<svg height="480pt" viewBox="0 0 480 480.38339" width="480pt" xmlns="http://www.w3.org/2000/svg" xmlns:xlink="http://www.w3.org/1999/xlink"><linearGradient id="a" gradientUnits="userSpaceOnUse" x1="62.743695" x2="421.599695" y1="457.019819" y2="98.163819"><stop offset="0" stop-color="#41dfd0"/><stop offset="1" stop-color="#ee83ef"/></linearGradient><path d="m112.191406 383.996094c-17.671875 0-32 14.328125-32 32s14.328125 32 32 32 32-14.328125 32-32-14.328125-32-32-32zm0 48c-8.835937 0-16-7.164063-16-16 0-8.835938 7.164063-16 16-16 8.835938 0 16 7.164062 16 16 0 8.835937-7.164062 16-16 16zm256-48c-17.671875 0-32 14.328125-32 32s14.328125 32 32 32 32-14.328125 32-32-14.328125-32-32-32zm0 48c-8.835937 0-16-7.164063-16-16 0-8.835938 7.164063-16 16-16 8.835938 0 16 7.164062 16 16 0 8.835937-7.164062 16-16 16zm104-264h-33.054687l7.710937-11.558594c1.257813-1.882812 1.65625-4.207031 1.105469-6.402344l-8-32c-.292969-1.058594-.796875-2.046875-1.488281-2.902344-.121094-.152343-.21875-.304687-.34375-.449218-.699219-.785156-1.546875-1.417969-2.496094-1.863282-.089844 0-.136719-.128906-.226562-.167968-.085938-.039063-.238282 0-.351563-.066406-.292969-.140626-.597656-.261719-.910156-.367188l-32-8c-1.152344-.289062-2.351563-.316406-3.511719-.078125l-30.402344 6.078125v-22.222656c0-2.429688-1.101562-4.730469-3-6.25l-40-32c-2.921875-2.339844-7.078125-2.339844-10 0l-28.0625 22.457031 8.496094-21.230469c.539062-1.300781.664062-2.738281.359375-4.113281-.023437-.46875-.089844-.933594-.199219-1.390625l-8-24c-.75-2.230469-2.433594-4.023438-4.617187-4.90625l-40-16c-1.914063-.75-4.039063-.75-5.953125 0l-40 16c-1.5.605469-2.78125 1.648438-3.679688 2.992188l-12.429687 18.601562-33.96875-13.601562c-2.972657-1.1875-6.371094-.488282-8.632813 1.777343l-40 40c-.515625.523438-.953125 1.117188-1.304687 1.761719-.117188.207031-.183594.429688-.277344.636719-.210937.445312-.375.902343-.496094 1.378906-.066406.261719-.097656.519531-.136719.796875-.085937.734375-.085937 1.46875 0 2.203125v.460937l6.398438 32.160157-32.152344 6.402343c-2.078125.414063-3.910156 1.636719-5.085937 3.398438l-16 24c-1.589844 2.382812-1.78125 5.4375-.503907 8l10.269532 20.464844h-51.054688c-4.417968 0-8 3.582031-8 8v32c0 4.417968 3.582032 8 8 8h16v184c0 4.417968 3.582032 8 8 8h16.550782c-3.257813 24.664062 8.070312 48.984375 29.050781 62.359375 20.984375 13.371093 47.8125 13.371093 68.796875 0 20.980468-13.375 32.3125-37.695313 29.050781-62.359375h34.304687l6.488282 25.945312c.890625 3.558594 4.089844 6.054688 7.757812 6.054688h32c3.667969 0 6.867188-2.496094 7.761719-6.054688l6.488281-25.945312h34.300782c-3.257813 24.664062 8.070312 48.984375 29.050781 62.359375 20.984375 13.371093 47.8125 13.371093 68.796875 0 20.980468-13.375 32.3125-37.695313 29.050781-62.359375h18.550781c2.136719 0 4.183594-.855469 5.6875-2.371094 1.5-1.519531 2.335938-3.574219 2.3125-5.710938l-1.917968-183.917968h15.917968c4.417969 0 8-3.582032 8-8v-32c0-4.417969-3.582031-8-8-8zm-40.625-17.496094-11.65625 17.496094h-42.117187l15.445312-17.664063 33.664063-18.398437zm-66.574218-23.304688 34.992187-6.992187 10.398437 2.59375-26.007812 14.183594c-.824219.449219-1.5625 1.042969-2.183594 1.75l-20.160156 23.035156-8.589844-17.1875zm-76.800782-35.359374 32-25.601563 32 25.601563v14.03125l-27.878906-16.726563c-2.652344-1.59375-5.984375-1.515625-8.5625.199219l-24 16c-1.652344 1.105468-2.835938 2.785156-3.316406 4.710937l-.242188.953125zm50.230469 46.398437-18.804687 12.539063-22.105469-11.058594 5.6875-22.765625 17.214843-11.480469 28.464844 17.078125zm8.824219 29.761719h-57.292969l2.574219-12.886719 24.089844 12.085937c2.5625 1.277344 5.613281 1.085938 8-.503906l16.453124-10.976562zm-101.351563-55.59375 19.488281 15.59375h-17.191406c-.65625 0-1.308594.082031-1.945312.238281l-32 8c-1.78125.449219-3.351563 1.492187-4.453125 2.960937l-16.234375 21.648438-8.421875-16.847656 12.335937-24.671875zm-43.054687-10.007813 2.695312-10.78125 16.175782 8.085938zm58.886718 2.191407 10.464844-6.988282v15.359375zm-40.839843 46.480468 28.289062-7.070312h29.257813l-4.800782 24h-65.441406zm44.800781-68.351562-18.070312 12.050781-35.746094-17.875 9.800781-14.6875 27.640625-13.824219 27.878906 5.601563zm-60.214844-52.214844 34.71875-13.886719 33.601563 13.429688 2.460937 7.410156-26.460937-5.296875c-1.742188-.355469-3.554688-.117188-5.144531.679688l-32 16c-1.246094.625-2.304688 1.5625-3.082032 2.71875l-8.351562 12.527343-7.757813-15.511719zm-59.351562 10.878906 32.269531 12.914063 7.617187 15.199219-32.496093-5.417969c-.4375-.066407-.878907-.089844-1.320313-.078125h-28.6875zm5.40625 38.617188 38.800781 6.464844-5 20-25.753906 12.894531-40.445313-13.480469-5.175781-25.878906zm8.425781 70.054687-3.761719-14.941406 1.449219.476563c2.011719.671874 4.207031.515624 6.101563-.429688l10.539062-5.273438-5.273438 10.535157c-1.125 2.253906-1.125 4.902343 0 7.152343l10.238282 20.425782h-28.109375l7.710937-11.558594c1.25-1.878906 1.652344-4.195312 1.105469-6.386719zm-16.386719.449219-11.65625 17.496094h-42.117187l15.445312-17.664063 33.671875-18.398437zm-66.574218-23.304688 34.664062-6.925781 9.519531 3.199219-24.800781 13.542969c-.824219.453125-1.5625 1.042969-2.183594 1.753906l-20.160156 23.03125-8.589844-17.183594zm-36.800782 264.800782v-32h41.089844c-12.832031 7.121094-22.84375 18.410156-28.378906 32zm72 72c-26.507812 0-48-21.492188-48-48 0-26.511719 21.492188-48 48-48 26.511719 0 48 21.488281 48 48-.027344 26.5-21.5 47.972656-48 48zm64-72h-4.710937c-5.535157-13.589844-15.546875-24.878906-28.375-32h33.085937zm0-48h-136v-32h136zm0-48h-136v-32h136zm0-48h-136v-32h136zm73.753906 176h-19.503906l-4-16h27.503906zm38.246094-168v136h-96v-176h96zm16 136v-32h33.089844c-12.832031 7.121094-22.84375 18.410156-28.378906 32zm136-128v32h-136v-32zm-136-16v-32h136v32zm136 64v32h-136v-32zm-72 152c-26.507812 0-48-21.492188-48-48 0-26.511719 21.492188-48 48-48 26.511719 0 48 21.488281 48 48-.027344 26.5-21.5 47.972656-48 48zm60.496094-72c-.382812.042968-.757812.121094-1.128906.230468-5.503906-13.691406-15.550782-25.070312-28.453125-32.230468h42.6875l.335937 32zm35.503906-192h-448v-16h448zm-240 48h-16v-16h16zm0 32h-16v-16h16zm0 32h-16v-16h16zm0 32h-16v-16h16zm0 32h-16v-16h16zm48-128h-16v-16h16zm0 32h-16v-16h16zm0 32h-16v-16h16zm0 32h-16v-16h16zm0 32h-16v-16h16zm0 0" fill="url(#a)"/></svg>