<svg height="480pt" viewBox="-64 0 480 480" width="480pt" xmlns="http://www.w3.org/2000/svg" xmlns:xlink="http://www.w3.org/1999/xlink"><linearGradient id="a" gradientUnits="userSpaceOnUse" x1="-1.718895" x2="353.705105" y1="473.6" y2="118.168"><stop offset="0" stop-color="#41dfd0"/><stop offset="1" stop-color="#ee83ef"/></linearGradient><path d="m40.464844 357.3125-40 112c-.875 2.449219-.5039065 5.167969.996094 7.292969 1.496093 2.125 3.933593 3.390625 6.53125 3.394531h336c2.601562-.003906 5.039062-1.269531 6.535156-3.394531s1.867187-4.84375.992187-7.292969l-40-112c-1.132812-3.183594-4.148437-5.308594-7.527343-5.3125h-93.167969l68.367187-88.472656c26.386719-34.265625 40.726563-76.28125 40.800782-119.527344 0-79.527344-64.46875-144-144-144-79.527344 0-144 64.472656-144 144 .074218 43.246094 14.414062 85.261719 40.800781 119.527344l68.367187 88.472656h-93.167968c-3.378907.003906-6.390626 2.128906-7.527344 5.3125zm11.113281 16.449219 103.128906 90.238281h-135.363281zm281.0625 90.238281h-135.359375l103.128906-90.238281zm-284.648437-320c0-70.691406 57.308593-128 128-128 70.695312 0 128 57.308594 128 128-.066407 39.710938-13.238282 78.289062-37.464844 109.753906l-90.535156 117.167969-90.535157-117.167969c-24.226562-31.464844-37.394531-70.042968-37.464843-109.753906zm121.671874 244.886719c1.515626 1.960937 3.851563 3.105469 6.328126 3.105469 2.476562 0 4.8125-1.144532 6.328124-3.105469l16.144532-20.886719h84.242187l-98.714843 86.398438v-14.398438h-16v14.398438l-98.710938-86.398438h84.238281zm70.328126-188.886719v-56h8c4.417968 0 8-3.582031 8-8v-24c0-3.445312-2.203126-6.503906-5.472657-7.59375l-72-24c-1.640625-.542969-3.414062-.542969-5.054687 0l-72 24c-3.269532 1.089844-5.472656 4.148438-5.472656 7.59375v24c0 4.417969 3.582031 8 8 8h8v56c0 4.417969 3.582031 8 8 8h112c4.417968 0 8-3.582031 8-8zm-128-82.230469 64-21.335937 64 21.335937v10.230469h-128zm72 74.230469h-16v-16c0-4.417969 3.582031-8 8-8 4.417968 0 8 3.582031 8 8zm16 0v-16c0-13.253906-10.746094-24-24-24-13.253907 0-24 10.746094-24 24v16h-24v-48h96v48zm-16 232h-16v-16h16zm112 8v16h-16v-16zm-224 0v16h-16v-16zm216-288c0-61.855469-50.144532-112-112-112-61.855469 0-112 50.144531-112 112s50.144531 112 112 112c61.828124-.066406 111.933593-50.171875 112-112zm-208 0c0-53.019531 42.980468-96 96-96 53.019531 0 96 42.980469 96 96s-42.980469 96-96 96c-52.996094-.058594-95.941407-43.003906-96-96zm0 0" fill="url(#a)"/></svg>