<?xml version="1.0" encoding="iso-8859-1"?>
<!-- Generator: Adobe Illustrator 19.0.0, SVG Export Plug-In . SVG Version: 6.00 Build 0)  -->
<svg version="1.1" id="Capa_1" xmlns="http://www.w3.org/2000/svg" xmlns:xlink="http://www.w3.org/1999/xlink" x="0px" y="0px"
	 viewBox="0 0 480.006 480.006" style="enable-background:new 0 0 480.006 480.006;" xml:space="preserve">
<linearGradient id="SVGID_1_" gradientUnits="userSpaceOnUse" x1="-26.872" y1="557.631" x2="-26.872" y2="621.923" gradientTransform="matrix(8 0 0 -8 454.9789 4941.0542)">
	<stop  offset="0" style="stop-color:#006DF0"/>
	<stop  offset="1" style="stop-color:#00E7F0"/>
</linearGradient>
<path style="fill:url(#SVGID_1_);" d="M432.003,192.006c4.418,0,8-3.582,8-8v-24h32c4.418,0,8-3.582,8-8v-80
	c0-3.599-2.403-6.755-5.872-7.712l-232-64c-1.392-0.392-2.864-0.392-4.256,0l-232,64c-3.469,0.957-5.872,4.113-5.872,7.712v80
	c0,4.418,3.582,8,8,8h32v24c0,4.418,3.582,8,8,8h8v128h-8c-4.418,0-8,3.582-8,8v24h-16c-4.418,0-8,3.582-8,8v24h-8
	c-4.418,0-8,3.582-8,8v32c0,4.418,3.582,8,8,8h184v40c0,4.418,3.582,8,8,8h272c4.418,0,8-3.582,8-8v-176c0-4.418-3.582-8-8-8h-48
	v-96H432.003z M424.003,176.006h-48v-16h48V176.006z M320.003,288.006v-96h8c4.418,0,8-3.582,8-8v-24h24v24c0,4.418,3.582,8,8,8h8
	v96H320.003z M208.003,288.006v-96h8c4.418,0,8-3.582,8-8v-24h32v24c0,4.418,3.582,8,8,8h8v96H208.003z M464.003,352.006h-256v-16
	h256V352.006z M120.003,352.006v-24c0-4.418-3.582-8-8-8h-8v-128h8c4.418,0,8-3.582,8-8v-24h24v24c0,4.418,3.582,8,8,8h8v128h-8
	c-4.418,0-8,3.582-8,8v24H120.003z M192.003,320.006h-16v-128h16V320.006z M200.003,176.006h-40v-16h48v16H200.003z
	 M160.003,336.006h32v16h-32V336.006z M312.003,176.006h-40v-16h48v16H312.003z M288.003,192.006h16v96h-16V192.006z M16.003,78.102
	l224-61.8l224,61.8v65.904h-448V78.102z M104.003,160.006v16h-48v-16H104.003z M72.003,192.006h16v128h-16V192.006z M56.003,336.006
	h48v16h-48V336.006z M32.003,368.006h160v16h-160V368.006z M16.003,416.006v-16h176v16H16.003z M208.003,464.006v-96h256v96H208.003
	z M464.003,320.006h-256v-16h256V320.006z M408.003,288.006h-16v-96h16V288.006z"/>
<g>
	
		<linearGradient id="SVGID_2_" gradientUnits="userSpaceOnUse" x1="-26.872" y1="557.611" x2="-26.872" y2="621.906" gradientTransform="matrix(8 0 0 -8 454.9789 4941.0542)">
		<stop  offset="0" style="stop-color:#006DF0"/>
		<stop  offset="1" style="stop-color:#00E7F0"/>
	</linearGradient>
	<path style="fill:url(#SVGID_2_);" d="M448.003,120.006V96.374c0-3.599-2.403-6.755-5.872-7.712l-200-55.2
		c-1.392-0.392-2.864-0.392-4.256,0l-200,55.2c-3.469,0.957-5.872,4.113-5.872,7.712v23.632c0,4.418,3.582,8,8,8h400
		C444.421,128.006,448.003,124.424,448.003,120.006z M432.003,112.006h-384v-9.536l192-52.968l192,52.968V112.006z"/>
	
		<linearGradient id="SVGID_3_" gradientUnits="userSpaceOnUse" x1="-26.872" y1="557.611" x2="-26.872" y2="621.906" gradientTransform="matrix(8 0 0 -8 454.9789 4941.0542)">
		<stop  offset="0" style="stop-color:#006DF0"/>
		<stop  offset="1" style="stop-color:#00E7F0"/>
	</linearGradient>
	<path style="fill:url(#SVGID_3_);" d="M216.003,80.006c0,13.255,10.745,24,24,24c13.255,0,24-10.745,24-24s-10.745-24-24-24
		C226.748,56.006,216.003,66.751,216.003,80.006z M248.003,80.006c0,4.418-3.582,8-8,8s-8-3.582-8-8s3.582-8,8-8
		S248.003,75.588,248.003,80.006z"/>
	
		<linearGradient id="SVGID_4_" gradientUnits="userSpaceOnUse" x1="-5.872" y1="557.611" x2="-5.872" y2="621.906" gradientTransform="matrix(8 0 0 -8 454.9789 4941.0542)">
		<stop  offset="0" style="stop-color:#006DF0"/>
		<stop  offset="1" style="stop-color:#00E7F0"/>
	</linearGradient>
	<path style="fill:url(#SVGID_4_);" d="M424.003,400.006c-5.923,0.021-11.627,2.245-16,6.24c-9.809-8.915-24.987-8.191-33.903,1.617
		c-8.915,9.809-8.191,24.987,1.617,33.903c9.154,8.32,23.132,8.32,32.285,0c9.809,8.915,24.987,8.19,33.903-1.618
		c8.915-9.809,8.19-24.987-1.618-33.903C435.833,402.197,430.021,399.97,424.003,400.006L424.003,400.006z M392.003,432.006
		c-4.418,0-8-3.582-8-8s3.582-8,8-8s8,3.582,8,8S396.421,432.006,392.003,432.006z M424.003,432.006c-4.418,0-8-3.582-8-8
		s3.582-8,8-8s8,3.582,8,8S428.421,432.006,424.003,432.006z"/>
	
		<linearGradient id="SVGID_5_" gradientUnits="userSpaceOnUse" x1="-26.872" y1="557.611" x2="-26.872" y2="621.906" gradientTransform="matrix(8 0 0 -8 454.9789 4941.0542)">
		<stop  offset="0" style="stop-color:#006DF0"/>
		<stop  offset="1" style="stop-color:#00E7F0"/>
	</linearGradient>
	<path style="fill:url(#SVGID_5_);" d="M248.003,416.006h-16c-4.418,0-8,3.582-8,8s3.582,8,8,8h16c4.418,0,8-3.582,8-8
		S252.421,416.006,248.003,416.006z"/>
	
		<linearGradient id="SVGID_6_" gradientUnits="userSpaceOnUse" x1="-17.872" y1="557.611" x2="-17.872" y2="621.906" gradientTransform="matrix(8 0 0 -8 454.9789 4941.0542)">
		<stop  offset="0" style="stop-color:#006DF0"/>
		<stop  offset="1" style="stop-color:#00E7F0"/>
	</linearGradient>
	<path style="fill:url(#SVGID_6_);" d="M344.003,416.006h-64c-4.418,0-8,3.582-8,8s3.582,8,8,8h64c4.418,0,8-3.582,8-8
		S348.421,416.006,344.003,416.006z"/>
</g>
<g>
</g>
<g>
</g>
<g>
</g>
<g>
</g>
<g>
</g>
<g>
</g>
<g>
</g>
<g>
</g>
<g>
</g>
<g>
</g>
<g>
</g>
<g>
</g>
<g>
</g>
<g>
</g>
<g>
</g>
</svg>
