<?xml version="1.0" encoding="iso-8859-1"?>
<!-- Generator: Adobe Illustrator 19.0.0, SVG Export Plug-In . SVG Version: 6.00 Build 0)  -->
<svg xmlns="http://www.w3.org/2000/svg" xmlns:xlink="http://www.w3.org/1999/xlink" 
version="1.1" id="Capa_1" x="0px" y="0px" viewBox="0 0 512 512" style="enable-background:new 0 0 512 512;" xml:space="preserve" 
width="512px" height="512px" >
<g>
	<g>
		<path d="M512,0H91H61h-1.563L0,51.116V344h8.386l162.052,134.297l-0.209,0.252L210.592,512H255.5l181.198-153.557l-0.335-0.395    L512,293.95V0z M30,64.884l31-26.66V272h-1.549L30,297.244V64.884z M195.821,460.37L38.19,329.737L70.549,302h0.043    l157.555,130.57L195.821,460.37z M244.499,482h-23.091L219,480.004L251.563,452h0.029H257h22.899L244.499,482z M482,280.05    L314.498,422h-52.091L91,279.949V30h391V280.05z" fill="#FFFFFF"/>
	</g>
</g>
<g>
	<g>
		<path d="M208.181,155.82c-2.841-3.559-6.701-6.06-11.58-7.5c4.08-1.839,7.14-4.579,9.18-8.22c2.04-3.64,3.06-7.459,3.06-11.46    c0-2.719-0.461-5.379-1.38-7.98c-0.92-2.599-2.22-4.92-3.9-6.96s-3.72-3.7-6.12-4.98c-2.4-1.279-5.081-1.92-8.04-1.92h-49.44V192    h41.88c4.159,0,8.1-0.42,11.82-1.26c3.72-0.84,6.979-2.14,9.78-3.9c2.8-1.759,4.999-4.02,6.6-6.78c1.6-2.76,2.4-6.06,2.4-9.9    C212.441,164.16,211.02,159.381,208.181,155.82z M163.361,126.72L163.361,126.72h16.68c1.519,0,2.839,0.5,3.96,1.5    c1.12,1.001,1.68,2.661,1.68,4.98c0,2.64-0.66,4.4-1.98,5.28c-1.32,0.881-2.781,1.32-4.38,1.32h-15.96V126.72z M186.701,170.52    c-1.32,1.2-2.94,1.8-4.86,1.8h-18.48v-14.28h19.32c1.759,0,3.199,0.701,4.32,2.1c1.12,1.4,1.68,3.141,1.68,5.22    C188.681,167.601,188.021,169.32,186.701,170.52z" fill="#FFFFFF"/>
	</g>
</g>
<g>
	<g>
		<path d="M263.562,106.8h-18.96l-31.8,85.2h24.84l5.04-16.68h22.68l5.159,16.68h24.721L263.562,106.8z M246.163,159.72l7.919-28.56    l7.561,28.56H246.163z" fill="#FFFFFF"/>
	</g>
</g>
<g>
	<g>
		<path d="M362.92,155.76c-1.2-2.799-2.922-5.179-5.16-7.14c-2.24-1.959-4.94-3.66-8.1-5.1c-3.162-1.44-6.702-2.76-10.62-3.96    c-2.481-0.799-4.701-1.479-6.66-2.04c-1.962-0.559-3.621-1.14-4.98-1.74c-1.361-0.6-2.399-1.26-3.12-1.98    c-0.72-0.72-1.08-1.639-1.08-2.76c0-1.519,0.619-2.599,1.86-3.24c1.239-0.639,2.898-0.96,4.98-0.96c2.559,0,5.179,0.42,7.859,1.26    c2.68,0.84,5.101,1.74,7.261,2.7c2.559,1.122,5.039,2.4,7.439,3.84l10.08-19.32c-1.92-0.96-4.08-1.98-6.48-3.06    c-2.399-1.08-4.979-2.079-7.739-3c-2.761-0.918-5.621-1.68-8.58-2.28c-2.961-0.6-6-0.9-9.12-0.9c-4.241,0-8.262,0.621-12.061,1.86    c-3.8,1.241-7.181,3.06-10.14,5.46c-2.961,2.4-5.301,5.4-7.02,9c-1.722,3.6-2.58,7.761-2.58,12.48c0,3.12,0.42,5.88,1.26,8.28    c0.84,2.4,2.14,4.541,3.9,6.42c1.759,1.88,3.999,3.561,6.72,5.04c2.719,1.481,5.959,2.861,9.72,4.14    c2.56,0.881,4.98,1.641,7.26,2.28c2.28,0.641,4.3,1.281,6.061,1.92c1.759,0.641,3.139,1.38,4.14,2.22c1,0.84,1.5,1.86,1.5,3.06    c0.001,1.121-0.499,2.021-1.499,2.7c-1.001,0.681-2.78,1.02-5.34,1.02c-3.36,0-6.66-0.48-9.9-1.44    c-3.239-0.96-6.141-2.04-8.699-3.24c-3.042-1.359-5.961-2.919-8.761-4.68l-10.08,20.52c2.56,1.521,5.341,2.88,8.341,4.08    s6.119,2.24,9.359,3.12c3.24,0.881,6.499,1.56,9.78,2.04c3.279,0.48,6.479,0.72,9.6,0.72c3.919,0,7.819-0.461,11.7-1.38    c3.88-0.919,7.359-2.419,10.44-4.5c3.078-2.08,5.56-4.86,7.439-8.34c1.879-3.48,2.82-7.779,2.82-12.9    C364.72,161.96,364.12,158.561,362.92,155.76z" fill="#FFFFFF"/>
	</g>
</g>
<g>
	<g>
		<polygon points="398.44,171.6 398.44,158.16 429.4,158.16 429.4,139.2 398.44,139.2 398.44,127.2 434.681,127.2 434.681,106.8     375.041,106.8 375.041,192 435.761,192 435.761,171.6   " fill="#FFFFFF"/>
	</g>
</g>
<g>
	<g>
		<rect x="147" y="222" width="279" height="30" fill="#FFFFFF"/>
	</g>
</g>
<g>
</g>
<g>
</g>
<g>
</g>
<g>
</g>
<g>
</g>
<g>
</g>
<g>
</g>
<g>
</g>
<g>
</g>
<g>
</g>
<g>
</g>
<g>
</g>
<g>
</g>
<g>
</g>
<g>
</g>
</svg>
