<svg height="512pt" viewBox="0 0 512 512" width="512pt" xmlns="http://www.w3.org/2000/svg" xmlns:xlink="http://www.w3.org/1999/xlink"><linearGradient id="a" gradientUnits="userSpaceOnUse" x1="256" x2="256" y1="0" y2="512"><stop offset="0" stop-color="#2af598"/><stop offset="1" stop-color="#009efd"/></linearGradient><path d="m0 442h98v30h-40v40h120v-40h-40v-30h98v-166h-236zm40-126h156v86h-156zm472 126v-166h-236v166h98v30h-40v40h120v-40h-40v-30zm-196-126h156v86h-156zm-80-120h-40v40h120v-40h-40v-30h98v-166h-236v166h98zm-58-156h156v86h-156zm0 0" fill="url(#a)"/></svg>