<svg height="512pt" viewBox="0 0 512 512" width="512pt" xmlns="http://www.w3.org/2000/svg" xmlns:xlink="http://www.w3.org/1999/xlink"><linearGradient id="a" gradientUnits="userSpaceOnUse" x1="256" x2="256" y1="0" y2="512"><stop offset="0" stop-color="#2af598"/><stop offset="1" stop-color="#009efd"/></linearGradient><path d="m240.785156 208.949219 141.335938 140.886719-28.238282 28.328124-141.636718-141.183593c-35.886719 43.785156-38.964844 89.195312-41.246094 100.023437h-37v-36c-.15625-29.929687 9.710938-78.84375 30.910156-110.804687l-25.800781-25.804688 28.28125-28.285156 26.308594 26.308594c32.566406-19.894531 82.367187-28.417969 113.542969-28.417969.253906 0 .507812 0 .757812.003906h37.996094v36c-9 1.558594-57.5625 1.265625-105.210938 38.945313zm219.214844-52.949219v40h52v40h-52v40h52v40h-52v40h52v40h-52v4c0 33.085938-26.914062 60-60 60h-4v52h-40v-52h-40v52h-40v-52h-40v52h-40v-52h-40v52h-40v-52h-4c-33.085938 0-60-26.914062-60-60v-4h-52v-40h52v-40h-52v-40h52v-40h-52v-40h52v-40h-52v-40h52v-4c0-33.085938 26.914062-60 60-60h4v-52h40v52h40v-52h40v52h40v-52h40v52h40v-52h40v52h4c33.085938 0 60 26.914062 60 60v4h52v40zm-40-44c0-11.027344-8.972656-20-20-20h-288c-11.027344 0-20 8.972656-20 20v288c0 11.027344 8.972656 20 20 20h288c11.027344 0 20-8.972656 20-20zm0 0" fill="url(#a)"/></svg>