<?xml version="1.0" encoding="iso-8859-1"?>
<!-- Generator: Adobe Illustrator 19.0.0, SVG Export Plug-In . SVG Version: 6.00 Build 0)  -->
<svg version="1.1" id="Capa_1" xmlns="http://www.w3.org/2000/svg" xmlns:xlink="http://www.w3.org/1999/xlink" x="0px" y="0px"
	 viewBox="0 0 512 512" style="enable-background:new 0 0 512 512;" xml:space="preserve">
<linearGradient id="SVGID_1_" gradientUnits="userSpaceOnUse" x1="36" y1="258" x2="476" y2="258" gradientTransform="matrix(1 0 0 -1 0 514)">
	<stop  offset="0" style="stop-color:#80D8FF"/>
	<stop  offset="1" style="stop-color:#EA80FC"/>
</linearGradient>
<path style="fill:url(#SVGID_1_);" d="M256,512c-6.63,0-12.829-3.285-16.551-8.771l-50.032-73.747
	C101.333,401.499,36,319.104,36,219.873C36,98.348,134.398,0,256,0c121.523,0,220,98.271,220,219.873
	c0,99.188-65.294,181.613-153.417,209.609l-50.032,73.747C268.829,508.715,262.63,512,256,512z M256,40
	c-99.252,0-180,80.69-180,179.873c0,83.308,56.377,152.262,131.355,173.227c4.555,1.273,8.51,4.12,11.166,8.033L256,456.376
	l37.48-55.244c2.655-3.913,6.61-6.759,11.165-8.033C379.54,372.158,436,303.264,436,219.873C436,120.69,355.252,40,256,40z
	 M278.894,136.426c0,10.739-10.174,20.348-22.892,20.348c-13,0-23.174-9.609-23.174-20.348s10.174-20.065,23.174-20.065
	C268.719,116.361,278.894,125.688,278.894,136.426z M278.045,196.057V303.73c0,6.782-9.891,13.565-22.043,13.565
	c-12.717,0-21.761-6.783-21.761-13.565V196.057c0-7.913,9.043-13.283,21.761-13.283
	C268.154,182.774,278.045,188.144,278.045,196.057z"/>
<g>
</g>
<g>
</g>
<g>
</g>
<g>
</g>
<g>
</g>
<g>
</g>
<g>
</g>
<g>
</g>
<g>
</g>
<g>
</g>
<g>
</g>
<g>
</g>
<g>
</g>
<g>
</g>
<g>
</g>
</svg>
