<?xml version="1.0" encoding="iso-8859-1"?>
<!-- Generator: Adobe Illustrator 22.1.0, SVG Export Plug-In . SVG Version: 6.00 Build 0)  -->
<svg xmlns="http://www.w3.org/2000/svg" xmlns:xlink="http://www.w3.org/1999/xlink" version="1.1" id="Layer_1_1_" x="0px" y="0px" viewBox="0 0 64 64" style="enable-background:new 0 0 64 64;" xml:space="preserve" width="512" height="512">
<linearGradient id="SVGID_1_" gradientUnits="userSpaceOnUse" x1="32" y1="63" x2="32" y2="1">
	<stop offset="0" style="stop-color:#9F2FFF"/>
	<stop offset="1" style="stop-color:#0BB1D3"/>
</linearGradient>
<path style="fill:url(#SVGID_1_);" d="M46.142,35.272C49.919,31.495,52,26.472,52,21.13V21C52,9.972,43.028,1,32,1S12,9.972,12,21  v0.13c0,5.342,2.081,10.365,5.858,14.143l1.549,1.548c4.094,4.095,6.967,9.093,8.476,14.602C23.724,52.307,21,54.472,21,57  c0,3.364,4.832,6,11,6s11-2.636,11-6c0-2.527-2.723-4.692-6.882-5.578c1.509-5.509,4.382-10.507,8.476-14.602L46.142,35.272z M41,57  c0,1.892-3.696,4-9,4s-9-2.108-9-4c0-1.49,2.247-2.976,5.357-3.632c0.126,0.6,0.257,1.198,0.351,1.808  C28.959,56.812,30.344,58,32,58s3.041-1.188,3.292-2.824c0.094-0.61,0.225-1.209,0.351-1.809C38.753,54.024,41,55.511,41,57z   M33.316,54.871C33.215,55.525,32.662,56,32,56s-1.215-0.475-1.316-1.129c-1.142-7.423-4.552-14.153-9.863-19.465l-1.549-1.548  C15.873,30.458,14,25.938,14,21.13V21c0-9.925,8.075-18,18-18s18,8.075,18,18v0.13c0,4.808-1.873,9.328-5.272,12.729l-1.549,1.548  C37.868,40.718,34.458,47.448,33.316,54.871z M32,7c-7.72,0-14,6.28-14,14s6.28,14,14,14s14-6.28,14-14S39.72,7,32,7z M32,33  c-6.617,0-12-5.383-12-12S25.383,9,32,9s12,5.383,12,12S38.617,33,32,33z M27,37h2v2h-2V37z M31,37h2v2h-2V37z M35,37h2v2h-2V37z"/>
</svg>
