<?xml version="1.0"?>
<svg xmlns="http://www.w3.org/2000/svg" height="512px" viewBox="0 0 481.64 481" width="512px"><path d="m360.800781 368.320312c-30.929687 0-56 25.070313-56 56 0 30.925782 25.070313 56 56 56 30.925781 0 56-25.074218 56-56-.035156-30.914062-25.085937-55.964843-56-56zm0 96c-22.09375 0-40-17.910156-40-40 0-22.089843 17.90625-40 40-40 22.089844 0 40 17.910157 40 40-.027343 22.082032-17.921875 39.972657-40 40zm0 0" fill="#FFFFFF"/><path d="m368.800781 401.792969v-9.472657h-16v9.472657c-6.777343 2.417969-12.109375 7.75-14.527343 14.527343h-9.472657v16h9.472657c2.417968 6.773438 7.75 12.109376 14.527343 14.527344v9.472656h16v-9.472656c6.773438-2.417968 12.105469-7.753906 14.527344-14.527344h9.472656v-16h-9.472656c-2.421875-6.777343-7.753906-12.109374-14.527344-14.527343zm-8 30.527343c-4.417969 0-8-3.582031-8-8 0-4.417968 3.582031-8 8-8s8 3.582032 8 8c0 4.417969-3.582031 8-8 8zm0 0" fill="#FFFFFF"/><path d="m120.800781 368.320312c-30.929687 0-56 25.070313-56 56 0 30.925782 25.070313 56 56 56 30.925781 0 56-25.074218 56-56-.035156-30.914062-25.085937-55.964843-56-56zm0 96c-22.09375 0-40-17.910156-40-40 0-22.089843 17.90625-40 40-40 22.089844 0 40 17.910157 40 40-.027343 22.082032-17.921875 39.972657-40 40zm0 0" fill="#FFFFFF"/><path d="m128.800781 401.792969v-9.472657h-16v9.472657c-6.777343 2.417969-12.109375 7.75-14.527343 14.527343h-9.472657v16h9.472657c2.417968 6.773438 7.75 12.109376 14.527343 14.527344v9.472656h16v-9.472656c6.773438-2.417968 12.105469-7.753906 14.527344-14.527344h9.472656v-16h-9.472656c-2.421875-6.777343-7.753906-12.109374-14.527344-14.527343zm-8 30.527343c-4.417969 0-8-3.582031-8-8 0-4.417968 3.582031-8 8-8s8 3.582032 8 8c0 4.417969-3.582031 8-8 8zm0 0" fill="#FFFFFF"/><path d="m424.800781 256.320312v-80h-96v-176h-176v176h-96v80h-56.800781l17.601562 176h39.199219v-8c0-35.347656 28.652344-64 64-64 35.34375 0 64 28.652344 64 64v8h112v-8c0-35.347656 28.652344-64 64-64 35.34375 0 64 28.652344 64 64v8h39.238281l17.601563-176zm-160-52.6875 52.6875 52.6875h-52.6875zm144 52.6875h-52.6875l52.6875-52.6875zm-11.3125-64-60.6875 60.6875-60.6875-60.6875zm-84.6875-43.3125-60.6875-60.6875 60.6875-60.6875zm-72-72-60.6875-60.6875h121.375zm-11.3125 11.3125-60.6875 60.6875v-121.375zm11.3125 11.3125 60.6875 60.6875h-121.375zm8 76.6875v80h-16v-80zm-32 80h-52.6875l52.6875-52.6875zm-11.3125-64-60.6875 60.6875-60.6875-60.6875zm-132.6875 11.3125 52.6875 52.6875h-52.6875zm376.800781 212.6875h-9.203124c-4.101563-40.882812-38.507813-72.011718-79.597657-72.011718-41.089843 0-75.496093 31.128906-79.601562 72.011718h-80.800781c-4.101563-40.882812-38.507813-72.011718-79.597657-72.011718-41.089843 0-75.496093 31.128906-79.601562 72.011718h-9.160157l-14.398437-144h446.359375zm0 0" fill="#FFFFFF"/><path d="m168.800781 352.320312h144v-64h-144zm16-48h112v32h-112zm0 0" fill="#FFFFFF"/></svg>
