<?xml version="1.0"?>
<svg xmlns="http://www.w3.org/2000/svg" height="512px" viewBox="0 -31 480 479" width="512px"><path d="m360 304.5c-30.929688 0-56 25.070312-56 56s25.070312 56 56 56 56-25.070312 56-56c-.035156-30.914062-25.085938-55.964844-56-56zm0 96c-22.089844 0-40-17.910156-40-40s17.910156-40 40-40 40 17.910156 40 40c-.027344 22.082031-17.917969 39.972656-40 40zm0 0" fill="#FFFFFF"/><path d="m368 337.972656v-9.472656h-16v9.472656c-6.777344 2.417969-12.109375 7.75-14.527344 14.527344h-9.472656v16h9.472656c2.417969 6.777344 7.75 12.109375 14.527344 14.527344v9.472656h16v-9.472656c6.777344-2.417969 12.109375-7.75 14.527344-14.527344h9.472656v-16h-9.472656c-2.417969-6.777344-7.75-12.109375-14.527344-14.527344zm-8 30.527344c-4.417969 0-8-3.582031-8-8s3.582031-8 8-8 8 3.582031 8 8-3.582031 8-8 8zm0 0" fill="#FFFFFF"/><path d="m120 304.5c-1.761719 0-3.488281.097656-5.167969.265625-1.175781.101563-2.328125.292969-3.480469.46875-.214843.042969-.449218.058594-.65625.097656h-.183593c-1.363281.238281-2.71875.527344-4.054688.863281-.480469.113282-.960937.242188-1.433593.367188-1.023438.289062-2.046876.59375-3.046876.9375-.863281.289062-1.710937.609375-2.5625.9375-.621093.246094-1.246093.488281-1.855468.757812-1.351563.585938-2.65625 1.226563-3.941406 1.90625-.128907.070313-.265626.125-.386719.199219-11.140625 6.007813-19.890625 15.644531-24.796875 27.3125l-.074219.175781c-.632813 1.492188-1.195313 3.019532-1.6875 4.582032-.078125.265625-.167969.527344-.246094.800781-.417969 1.375-.800781 2.769531-1.082031 4.191406-.097656.402344-.191406.800781-.273438 1.207031-.261718 1.34375-.460937 2.707032-.628906 4.082032-.058594.457031-.136718.894531-.175781 1.351562-.175781 1.800782-.28125 3.625-.28125 5.472656 0 1.847657.105469 3.671876.28125 5.472657 0 .453125.117187.894531.175781 1.34375.167969 1.375.367188 2.75.628906 4.09375.082032.402343.175782.800781.265626 1.183593.308593 1.4375.671874 2.847657 1.089843 4.234376l.238281.734374c.5 1.601563 1.074219 3.160157 1.71875 4.679688v.066406c5.578126 13.320313 16.132813 23.9375 29.417969 29.597656.34375.152344.695313.28125 1.039063.425782 1.097656.4375 2.207031.855468 3.34375 1.222656.800781.28125 1.640625.527344 2.472656.761719.617188.175781 1.238281.335937 1.863281.488281 1.273438.3125 2.550781.589844 3.855469.796875h.242188c3.09375.574219 6.234374.882813 9.382812.921875 30.929688 0 56-25.070312 56-56s-25.070312-56-56-56zm0 96c-2.390625-.023438-4.773438-.265625-7.121094-.71875-1.292968-.234375-2.511718-.625-3.75-.96875-1.242187-.34375-2.554687-.695312-3.769531-1.175781-.886719-.34375-1.71875-.800781-2.574219-1.191407-1.503906-.707031-2.957031-1.507812-4.351562-2.402343-.585938-.375-1.144532-.800781-1.707032-1.191407-1.519531-1.078124-2.960937-2.269531-4.3125-3.558593-.414062-.394531-.796874-.800781-1.214843-1.199219-1.335938-1.40625-2.574219-2.902344-3.695313-4.480469-.328125-.464843-.671875-.914062-.976562-1.386719-1.03125-1.609374-1.949219-3.296874-2.742188-5.039062-.257812-.566406-.5625-1.101562-.800781-1.6875-.699219-1.78125-1.269531-3.609375-1.703125-5.472656-.152344-.625-.386719-1.222656-.511719-1.855469-1.035156-5.085937-1.035156-10.328125 0-15.414063.125-.648437.359375-1.257812.519531-1.898437.429688-1.84375.992188-3.652344 1.6875-5.414063.246094-.617187.566407-1.191406.847657-1.792968.769531-1.691406 1.65625-3.324219 2.65625-4.886719.351562-.546875.734375-1.050781 1.113281-1.601563 1.066406-1.484374 2.234375-2.898437 3.496094-4.222656.476562-.511718.972656-1 1.484375-1.480468 1.242187-1.160157 2.550781-2.242188 3.921875-3.242188.710937-.511719 1.414062-1.023438 2.160156-1.496094 1.230469-.753906 2.496094-1.441406 3.800781-2.0625 1.023438-.496094 2.039063-1.015625 3.109375-1.433594 1.074219-.414062 2.195313-.695312 3.304688-1.023437 1.347656-.425781 2.71875-.777344 4.105468-1.054687 14.828126-2.523438 29.820313 3.492187 38.789063 15.570312s10.390625 28.171875 3.6875 41.636719c-6.707031 13.464843-20.410156 22.023437-35.453125 22.144531zm0 0" fill="#FFFFFF"/><path d="m128 337.972656v-9.472656h-16v9.472656c-6.777344 2.417969-12.109375 7.75-14.527344 14.527344h-9.472656v16h9.472656c2.417969 6.777344 7.75 12.109375 14.527344 14.527344v9.472656h16v-9.472656c6.777344-2.417969 12.109375-7.75 14.527344-14.527344h9.472656v-16h-9.472656c-2.417969-6.777344-7.75-12.109375-14.527344-14.527344zm-8 30.527344c-4.417969 0-8-3.582031-8-8s3.582031-8 8-8 8 3.582031 8 8-3.582031 8-8 8zm0 0" fill="#FFFFFF"/><path d="m480 168.5v-40h-64v-40h-8v-48h8v-40h-112v40h8v48h-8v40h-8v-40h-8v-48h8v-40h-112v40h8v48h-8v40h-8v-40h-8v-48h8v-40h-112v40h8v48h-8v40h-64v40h8v48h-8v40h16v112h40v-8c0-35.347656 28.652344-64 64-64s64 28.652344 64 64v8h112v-8c0-35.347656 28.652344-64 64-64s64 28.652344 64 64v8h40v-112h16v-40h-8v-48zm-16-24v8h-80v-8zm-144-40h80v8h-80zm0-88h80v8h-80zm8 24h64v48h-64zm16 104v8h-80v-8zm-80 88h80v8h-80zm72-16h-64v-48h64zm-136-112h80v8h-80zm0-88h80v8h-80zm8 24h64v48h-64zm40 88v40h8v48h-8v40h-16v-40h-8v-48h8v-40zm-104 40h64v48h-64zm72 64v8h-80v-8zm0-88v8h-80v-8zm-136-40h80v8h-80zm0-88h80v8h-80zm8 24h64v48h-64zm-72 104h80v8h-80zm8 24h64v48h-64zm-8 64h80v8h-80zm88-16v-48h8v-40h8v40h8v48h-8v40h-8v-40zm344 136h-8.398438c-4.105468-40.882812-38.511718-72.011719-79.601562-72.011719s-75.496094 31.128907-79.601562 72.011719h-80.796876c-4.105468-40.882812-38.511718-72.011719-79.601562-72.011719s-75.496094 31.128907-79.601562 72.011719h-8.398438v-80h416zm-88-96v-40h-8v-48h8v-40h8v40h8v48h-8v40zm104-16h-80v-8h80zm-8-24h-64v-48h64zm0 0" fill="#FFFFFF"/></svg>
