<svg height="512pt" viewBox="-10 0 512 512" width="512pt" xmlns="http://www.w3.org/2000/svg" xmlns:xlink="http://www.w3.org/1999/xlink"><linearGradient id="a" gradientUnits="userSpaceOnUse" x1="246" x2="246" y1="0" y2="512"><stop offset="0" stop-color="#2af598"/><stop offset="1" stop-color="#009efd"/></linearGradient><path d="m442 286.925781v-61.851562c28.882812-8.628907 50-35.425781 50-67.074219 0-38.597656-31.402344-70-70-70-20.449219 0-38.878906 8.816406-51.691406 22.851562l-55.140625-30.070312c.546875-3.515625.832031-7.113281.832031-10.78125 0-38.597656-31.402344-70-70-70s-70 31.402344-70 70c0 3.652344.28125 7.238281.824219 10.738281l-55.28125 29.957031c-12.804688-13.9375-31.167969-22.695312-51.542969-22.695312-38.597656 0-70 31.402344-70 70 0 30.914062 20.148438 57.191406 48 66.4375v63.125c-27.851562 9.246094-48 35.523438-48 66.4375 0 38.597656 31.402344 70 70 70 20.347656 0 38.691406-8.734375 51.492188-22.640625l55.28125 30.273437c-.503907 3.382813-.773438 6.84375-.773438 10.367188 0 38.597656 31.402344 70 70 70s70-31.402344 70-70c0-3.714844-.296875-7.363281-.859375-10.925781l54.710937-30.441407c12.824219 14.328126 31.449219 23.367188 52.148438 23.367188 38.597656 0 70-31.402344 70-70 0-31.648438-21.117188-58.445312-50-67.074219zm-66.058594 14.429688-87.296875-46.355469 85.894531-45.609375c7.742188 7.160156 17.101563 12.585937 27.460938 15.683594v61.851562c-9.742188 2.910157-18.59375 7.890625-26.058594 14.429688zm-259.882812 0c-7.96875-6.984375-17.527344-12.191407-28.058594-14.996094v-60.714844c11.15625-2.972656 21.222656-8.636719 29.460938-16.25l85.894531 45.605469zm305.941406-173.355469c16.542969 0 30 13.457031 30 30s-13.457031 30-30 30-30-13.457031-30-30 13.457031-30 30-30zm-69.113281 18.910156c-.578125 3.613282-.886719 7.316406-.886719 11.089844 0 5.847656.730469 11.527344 2.089844 16.960938l-88.089844 46.773437v-84.660156c12.421875-3.710938 23.410156-10.773438 31.894531-20.148438zm-106.886719-106.910156c16.542969 0 30 13.457031 30 30s-13.457031 30-30 30-30-13.457031-30-30 13.457031-30 30-30zm-51.925781 76.886719c8.488281 9.394531 19.488281 16.46875 31.925781 20.1875v84.660156l-88.089844-46.773437c1.359375-5.433594 2.089844-11.113282 2.089844-16.960938 0-3.851562-.324219-7.625-.925781-11.308594zm-124.074219 11.113281c16.542969 0 30 13.457031 30 30s-13.457031 30-30 30-30-13.457031-30-30 13.457031-30 30-30zm0 256c-16.542969 0-30-13.457031-30-30s13.457031-30 30-30 30 13.457031 30 30-13.457031 30-30 30zm69.0625-18.625c.609375-3.703125.9375-7.5.9375-11.375 0-6.480469-.902344-12.75-2.558594-18.710938l88.558594-47.023437v86.660156c-12.550781 3.75-23.632812 10.925781-32.152344 20.449219zm106.9375 106.625c-16.542969 0-30-13.457031-30-30s13.457031-30 30-30 30 13.457031 30 30-13.457031 30-30 30zm51.789062-77.046875c-8.46875-9.316406-19.421874-16.332031-31.789062-20.027344v-86.660156l88.558594 47.023437c-1.65625 5.960938-2.558594 12.230469-2.558594 18.710938 0 3.519531.269531 6.976562.769531 10.355469zm124.210938-10.953125c-16.542969 0-30-13.457031-30-30s13.457031-30 30-30 30 13.457031 30 30-13.457031 30-30 30zm0 0" fill="url(#a)"/></svg>