<svg height="400pt" viewBox="0 -17 400 400" width="400pt" xmlns="http://www.w3.org/2000/svg" xmlns:xlink="http://www.w3.org/1999/xlink"><linearGradient id="a" gradientTransform="matrix(1 0 0 -1 -56 440.75)" gradientUnits="userSpaceOnUse" x1="256" x2="256" y1="3.998" y2="508.995"><stop offset=".322" stop-color="#a163f5"/><stop offset=".466" stop-color="#b074ee"/><stop offset=".752" stop-color="#d8a1dd"/><stop offset=".898" stop-color="#efbad3"/></linearGradient><g fill="url(#a)"><path d="m348.476562 265.972656c-25.171874-7.683594-58.640624-13.242187-95.613281-15.953125l48.371094-69.914062c15.390625-22.136719 22.324219-49.0625 19.53125-75.878907-2.996094-26.90625-15.433594-51.875-35.101563-70.476562-47.234374-45-124.09375-45-171.328124 0-19.667969 18.601562-32.105469 43.570312-35.101563 70.476562-2.789063 26.8125 4.140625 53.738282 19.53125 75.875l48.371094 69.917969c-36.914063 2.707031-70.335938 8.25-95.5 15.917969-34.265625 10.445312-51.636719 24.210938-51.636719 40.921875 0 18.539063 21.253906 33.394531 63.164062 44.140625 36.675782 9.40625 85.273438 14.585938 136.835938 14.585938s100.160156-5.179688 136.835938-14.585938c41.910156-10.75 63.164062-25.601562 63.164062-44.140625 0-16.691406-17.335938-30.445313-51.523438-40.886719zm-249.355468-159.621094c2.492187-22.195312 12.769531-42.789062 29.007812-58.117187 40.480469-37.75 103.261719-37.75 143.742188 0 16.238281 15.328125 26.515625 35.921875 29.007812 58.117187 2.285156 22.046876-3.425781 44.179688-16.089844 62.375l-84.789062 122.554688-84.789062-122.554688c-12.664063-18.195312-18.375-40.328124-16.089844-62.375zm232.746094 225.277344c-35.101563 9-81.929688 13.957032-131.867188 13.957032s-96.769531-4.957032-131.867188-13.957032c-39.484374-10.128906-48.132812-21.3125-48.132812-24.769531 0-.101563.429688-10.5 37.46875-21.789063 26.414062-8.050781 62.796875-13.644531 102.941406-15.863281l31.367188 45.34375c1.867187 2.699219 4.941406 4.308594 8.222656 4.308594s6.355469-1.609375 8.222656-4.308594l31.367188-45.339843c40.199218 2.222656 76.628906 7.828124 103.046875 15.902343 36.933593 11.269531 37.363281 21.640625 37.363281 21.746094 0 3.457031-8.648438 14.640625-48.132812 24.769531zm0 0"/><path d="m253.566406 110.070312c0-29.585937-23.984375-53.566406-53.566406-53.566406-29.585938 0-53.566406 23.984375-53.566406 53.566406 0 29.585938 23.980468 53.566407 53.566406 53.566407s53.566406-23.980469 53.566406-53.566407zm-87.132812 0c0-18.539062 15.027344-33.566406 33.566406-33.566406s33.566406 15.027344 33.566406 33.566406c0 18.539063-15.027344 33.566407-33.566406 33.566407s-33.566406-15.027344-33.566406-33.566407zm0 0"/></g></svg>