<svg height="511pt" viewBox="0 1 511 511.999" width="511pt" xmlns="http://www.w3.org/2000/svg" xmlns:xlink="http://www.w3.org/1999/xlink"><linearGradient id="a" gradientUnits="userSpaceOnUse" x1="256.48075" x2="256.48075" y1="0" y2="512"><stop offset="0" stop-color="#2af598"/><stop offset="1" stop-color="#009efd"/></linearGradient><path d="m267.390625 0-249.390625 249.871094c-23.335938 23.371094-23.335938 61.40625 0 84.78125l159.511719 159.742187c11.324219 11.339844 26.390625 17.59375 42.417969 17.605469h.042968c16.007813 0 31.0625-6.230469 42.398438-17.546875l250.089844-249.832031v-244.621094zm205.070313 228.042969-238.359376 238.109375c-3.777343 3.769531-8.792968 5.847656-14.128906 5.847656-.007812 0-.011718 0-.015625 0-5.34375-.003906-10.363281-2.089844-14.140625-5.867188l-159.507812-159.742187c-7.777344-7.792969-7.777344-20.46875 0-28.261719l237.671875-238.128906h188.480469zm-104-104.042969c0-11.046875 8.957031-20 20-20 11.046874 0 20 8.953125 20 20s-8.953126 20-20 20c-11.042969 0-20-8.953125-20-20zm-65.609376 61.328125 23.609376-23.613281 28.285156 28.285156-23.238282 23.238281c3.085938 6.625 4.859376 13.804688 5.136719 21.191407.546875 14.6875-4.824219 28.464843-15.125 38.792968l-3.503906 3.515625-28.328125-28.242187 3.507812-3.515625c5.722657-5.738281 3.824219-14.5-1.316406-19.65625-2.878906-2.886719-6.808594-4.542969-10.78125-4.542969-2.480468 0-6.070312.640625-9.109375 3.6875-6.859375 6.878906-7.203125 16.4375-1.261719 35.261719l.089844.28125c3.765625 11.9375 7.660156 24.28125 8.460938 36.726562 1.097656 17.007813-3.933594 31.230469-14.941406 42.273438-11.261719 11.292969-27.019532 17.769531-43.234376 17.769531-9.546874 0-18.710937-2.15625-26.9375-6.199219l-23.265624 23.265625-28.285157-28.285156 23.648438-23.648438c-3.636719-7.890624-5.570313-16.578124-5.582031-25.589843-.019532-16.300781 6.207031-31.542969 17.542968-42.910157l5.609375-5.625 28.324219 28.246094-5.609375 5.625c-7.898437 7.921875-7.859375 21.351563.085937 29.320313 3.730469 3.742187 8.867188 5.800781 14.46875 5.800781 5.664063 0 11.097657-2.191406 14.90625-6.011719 6.078126-6.097656 3.515626-17-3.339843-38.722656l-.085938-.277344c-4.226562-13.386719-15.445312-48.945312 11.078125-75.542969 9.933594-9.960937 23.226563-15.445312 37.4375-15.445312 7.492188 0 14.90625 1.59375 21.753906 4.546875zm0 0" fill="url(#a)"/></svg>