<svg height="512pt" viewBox="-20 0 512 512" width="512pt" xmlns="http://www.w3.org/2000/svg" xmlns:xlink="http://www.w3.org/1999/xlink"><linearGradient id="a" gradientUnits="userSpaceOnUse" x1="-.000453" x2="471.999547" y1="256" y2="256"><stop offset="0" stop-color="#80d8ff"/><stop offset="1" stop-color="#ea80fc"/></linearGradient><path d="m236 197.636719c-37.480469 0-67.96875 30.488281-67.96875 67.964843 0 37.476563 30.488281 67.96875 67.96875 67.96875s67.96875-30.492187 67.96875-67.96875c0-37.476562-30.488281-67.964843-67.96875-67.964843zm0 95.933593c-15.421875 0-27.96875-12.546874-27.96875-27.96875 0-15.421874 12.546875-27.964843 27.96875-27.964843s27.96875 12.542969 27.96875 27.964843c0 15.421876-12.546875 27.96875-27.96875 27.96875zm135.605469 6.289063v-83.144531c0-136.886719-107.941407-195.960938-120.519531-209.824219-3.796876-4.367187-9.28125-6.890625-15.070313-6.890625-5.785156 0-11.273437 2.488281-15.070313 6.851562-12.703124 13.832032-120.554687 72.613282-120.554687 209.863282v83.144531c-67.648437 30.289063-98.539063 113.738281-100.3828125 177.171875-.3242185 11.253906 8.7148435 20.578125 19.9921875 20.578125h33.589844c5.195312 0 10.1875-2.019531 13.917968-5.632813l57.238282-55.441406.582031.246094c29.035156 12.289062 59.453125 19.566406 90.671875 21.746094v33.472656c0 11.046875 8.953125 20 20 20s20-8.953125 20-20v-33.472656c31.214844-2.179688 61.632812-9.457032 90.664062-21.742188l.589844-.25 57.238282 55.441406c3.730468 3.613282 8.722656 5.632813 13.914062 5.632813h33.59375c11.257812 0 20.316406-9.304687 19.992188-20.574219-1.726563-60.78125-30.882813-146.058594-100.386719-177.175781zm-271.289063 104.652344-54.824218 53.101562h-3.355469c4.449219-29.546875 17.917969-83.539062 58.179687-111.902343zm135.644532-358.28125c30.105468 23.398437 56.324218 46.617187 75.179687 83.328125h-150.386719c18.886719-36.917969 45.640625-60.441406 75.207032-83.328125zm95.644531 353.492187-.523438.222656c-24.070312 10.1875-49.25 16.363282-75.082031 18.46875v-43.089843c0-11.046875-8.953125-20-20-20s-20 8.953125-20 20v43.089843c-25.832031-2.105468-51.011719-8.28125-75.085938-18.46875l-.519531-.21875v-183.011718c0-17.179688 2.019531-32.855469 5.503907-47.15625h180.171874c3.5 14.308594 5.535157 29.980468 5.535157 47.15625zm94.902343 57.886719-54.820312-53.097656v-58.855469c34.769531 24.390625 51.855469 70.34375 58.152344 111.953125zm0 0" fill="url(#a)"/></svg>