<svg height="464pt" viewBox="0 -16 464 464" width="464pt" xmlns="http://www.w3.org/2000/svg"><path d="m432 0h-400c-17.671875 0-32 14.328125-32 32v240h464v-240c0-17.671875-14.328125-32-32-32zm0 0" fill="#ffeb99"/><path d="m48 0h-16c-17.671875 0-32 14.328125-32 32v240h16v-240c0-17.671875 14.328125-32 32-32zm0 0" fill="#ffe477"/><path d="m0 272v16c0 17.671875 14.328125 32 32 32h400c17.671875 0 32-14.328125 32-32v-16zm0 0" fill="#acabb1"/><path d="m16 288v-16h-16v16c0 17.671875 14.328125 32 32 32h16c-17.671875 0-32-14.328125-32-32zm0 0" fill="#898890"/><path d="m112 400c-8.835938 0-16 7.164062-16 16s7.164062 16 16 16h240c8.835938 0 16-7.164062 16-16s-7.164062-16-16-16zm0 0" fill="#787680"/><path d="m192 320h80v80h-80zm0 0" fill="#898890"/><path d="m248 32h-192c-4.417969 0-8 3.582031-8 8v192c0 4.417969 3.582031 8 8 8h192c4.417969 0 8-3.582031 8-8v-192c0-4.417969-3.582031-8-8-8zm-24 184h-144c-4.417969 0-8-3.582031-8-8 0-26.507812 21.492188-48 48-48h16v-16c-8.835938 0-16-7.164062-16-16v-32c0-17.671875 14.328125-32 32-32s32 14.328125 32 32v32c0 8.835938-7.164062 16-16 16v16h16c26.507812 0 48 21.492188 48 48 0 4.417969-3.582031 8-8 8zm0 0" fill="#ffc477"/><path d="m175.945312 160h-7.945312v-16c8.835938 0 16-7.164062 16-16v-24c-10.234375-.8125-19.316406-6.867188-24-16-8 24-40 24-40 24v16c0 8.835938 7.164062 16 16 16v16h-8l24 32zm0 0" fill="#ffdaaa"/><path d="m184 160h-8.054688l-23.945312 32v24h72c4.417969 0 8-3.582031 8-8 0-26.507812-21.492188-48-48-48zm0 0" fill="#3d9ae2"/><path d="m128 160h-8c-26.507812 0-48 21.492188-48 48 0 4.417969 3.582031 8 8 8h72v-24zm0 0" fill="#3d9ae2"/><path d="m160 88c4.683594 9.132812 13.765625 15.1875 24 16v-8c0-17.671875-14.328125-32-32-32s-32 14.328125-32 32v16s32 0 40-24zm0 0" fill="#ffe477"/><path d="m296.550781 32h110.898438c4.722656 0 8.550781 3.828125 8.550781 8.550781v190.898438c0 4.722656-3.828125 8.550781-8.550781 8.550781h-110.898438c-4.722656 0-8.550781-3.828125-8.550781-8.550781v-190.898438c0-4.722656 3.828125-8.550781 8.550781-8.550781zm0 0" fill="#e6e7e8"/><path d="m96 192h16v24h-16zm0 0" fill="#1a6fb0"/><path d="m192 192h16v24h-16zm0 0" fill="#1a6fb0"/><path d="m224 288h16v16h-16zm0 0" fill="#57565c"/><path d="m312 64h16v16h-16zm0 0" fill="#898890"/><path d="m344 64h48v16h-48zm0 0" fill="#c6c5ca"/><path d="m312 96h48v16h-48zm0 0" fill="#c6c5ca"/><path d="m376 96h16v16h-16zm0 0" fill="#898890"/><path d="m312 160h48v16h-48zm0 0" fill="#898890"/><path d="m376 160h16v16h-16zm0 0" fill="#c6c5ca"/><path d="m312 192h48v16h-48zm0 0" fill="#c6c5ca"/><path d="m376 192h16v16h-16zm0 0" fill="#898890"/><path d="m312 128h80v16h-80zm0 0" fill="#898890"/><path d="m192 320h80v16h-80zm0 0" fill="#787680"/></svg>