<?xml version="1.0"?>
<svg xmlns="http://www.w3.org/2000/svg" height="512px" viewBox="0 -12 464.10183 464" width="512px"><path d="m56.109375 264.050781h24v16h-24zm0 0" fill="#FFFFFF"/><path d="m56.109375 152.050781h24v16h-24zm0 0" fill="#FFFFFF"/><path d="m32.109375 208.050781h400c13.253906 0 24-10.746093 24-24v-48c0-13.253906-10.746094-24-24-24h-400c-13.253906 0-24 10.746094-24 24v48c0 13.253907 10.746094 24 24 24zm304-80h80c4.417969 0 8 3.582031 8 8s-3.582031 8-8 8h-80c-4.417969 0-8-3.582031-8-8s3.582031-8 8-8zm0 32h80c4.417969 0 8 3.582031 8 8s-3.582031 8-8 8h-80c-4.417969 0-8-3.582031-8-8s3.582031-8 8-8zm-296-16c0-4.417969 3.582031-8 8-8h40c4.417969 0 8 3.582031 8 8v32c0 4.417969-3.582031 8-8 8h-40c-4.417969 0-8-3.582031-8-8zm0 0" fill="#FFFFFF"/><path d="m56.109375 40.050781h24v16h-24zm0 0" fill="#FFFFFF"/><path d="m32.109375 96.050781h400c13.253906 0 24-10.746093 24-24v-48c0-13.253906-10.746094-23.9999998-24-23.9999998h-400c-13.253906 0-24 10.7460938-24 23.9999998v48c0 13.253907 10.746094 24 24 24zm304-80h80c4.417969 0 8 3.582031 8 8s-3.582031 8-8 8h-80c-4.417969 0-8-3.582031-8-8s3.582031-8 8-8zm0 32h80c4.417969 0 8 3.582031 8 8s-3.582031 8-8 8h-80c-4.417969 0-8-3.582031-8-8s3.582031-8 8-8zm-296-16c0-4.417969 3.582031-8 8-8h40c4.417969 0 8 3.582031 8 8v32c0 4.417969-3.582031 8-8 8h-40c-4.417969 0-8-3.582031-8-8zm0 0" fill="#FFFFFF"/><path d="m440.109375 392.050781c-10.25.019531-19.347656 6.566407-22.617187 16.28125-.449219-.140625-.914063-.234375-1.382813-.28125h-160c-.46875.046875-.933594.140625-1.386719.28125-2.386718-7.007812-7.890625-12.507812-14.894531-14.898437.136719-.449219.230469-.914063.28125-1.382813v-72h192c13.253906 0 24-10.746093 24-24v-48c0-13.253906-10.746094-24-24-24h-400c-13.253906 0-24 10.746094-24 24v48c0 13.253907 10.746094 24 24 24h192v72c.046875.46875.140625.933594.277344 1.382813-7.003907 2.390625-12.503907 7.890625-14.894531 14.898437-.449219-.140625-.914063-.234375-1.382813-.28125h-160c-.46875.046875-.933594.140625-1.386719.28125-3.777344-11.121093-15.046875-17.875-26.636718-15.960937-11.585938 1.914062-20.085938 11.933594-20.085938 23.679687 0 11.746094 8.5 21.765625 20.085938 23.679688 11.589843 1.914062 22.859374-4.839844 26.636718-15.960938.453125.140625.917969.234375 1.386719.28125h160c.46875-.046875.933594-.140625 1.382813-.28125 3.253906 9.726563 12.359374 16.285157 22.617187 16.285157 10.253906 0 19.363281-6.558594 22.613281-16.285157.453125.140625.917969.234375 1.386719.28125h160c.46875-.046875.933594-.140625 1.382813-.28125 3.960937 11.554688 15.984374 18.277344 27.902343 15.605469 11.917969-2.675781 19.914063-13.890625 18.558594-26.03125s-11.628906-21.3125-23.84375-21.292969zm-104-152h80c4.417969 0 8 3.582031 8 8s-3.582031 8-8 8h-80c-4.417969 0-8-3.582031-8-8s3.582031-8 8-8zm0 32h80c4.417969 0 8 3.582031 8 8s-3.582031 8-8 8h-80c-4.417969 0-8-3.582031-8-8s3.582031-8 8-8zm-240 16c0 4.417969-3.582031 8-8 8h-40c-4.417969 0-8-3.582031-8-8v-32c0-4.417969 3.582031-8 8-8h40c4.417969 0 8 3.582031 8 8zm0 0" fill="#FFFFFF"/></svg>
