<svg height="512pt" viewBox="0 0 512 512" width="512pt" xmlns="http://www.w3.org/2000/svg" xmlns:xlink="http://www.w3.org/1999/xlink"><linearGradient id="a" gradientUnits="userSpaceOnUse" x1="256" x2="256" y1="0" y2="512"><stop offset="0" stop-color="#2af598"/><stop offset="1" stop-color="#009efd"/></linearGradient><path d="m276 472v-78h135c33.085938 0 60-26.914062 60-60v-38c0-15.355469-5.804688-29.375-15.328125-40 9.523437-10.625 15.328125-24.644531 15.328125-40v-38c0-15.355469-5.804688-29.375-15.328125-40 9.523437-10.625 15.328125-24.644531 15.328125-40v-38c0-33.085938-26.914062-60-60-60h-311c-33.085938 0-60 26.914062-60 60v38c0 15.355469 5.804688 29.375 15.328125 40-9.523437 10.625-15.328125 24.644531-15.328125 40v38c0 15.355469 5.804688 29.375 15.328125 40-9.523437 10.625-15.328125 24.644531-15.328125 40v38c0 33.085938 26.914062 60 60 60h136v78h-236v40h512v-40zm-196-256v-38c0-11.027344 8.972656-20 20-20h311c11.027344 0 20 8.972656 20 20v38c0 11.027344-8.972656 20-20 20h-311c-11.027344 0-20-8.972656-20-20zm0-156c0-11.027344 8.972656-20 20-20h311c11.027344 0 20 8.972656 20 20v38c0 11.027344-8.972656 20-20 20h-311c-11.027344 0-20-8.972656-20-20zm0 274v-38c0-11.027344 8.972656-20 20-20h311c11.027344 0 20 8.972656 20 20v38c0 11.027344-8.972656 20-20 20h-311c-11.027344 0-20-8.972656-20-20zm25-254c0-11.046875 8.953125-20 20-20s20 8.953125 20 20-8.953125 20-20 20-20-8.953125-20-20zm70 0c0-11.046875 8.953125-20 20-20s20 8.953125 20 20-8.953125 20-20 20-20-8.953125-20-20zm-30 118c0 11.046875-8.953125 20-20 20s-20-8.953125-20-20 8.953125-20 20-20 20 8.953125 20 20zm70 0c0 11.046875-8.953125 20-20 20s-20-8.953125-20-20 8.953125-20 20-20 20 8.953125 20 20zm-70 118c0 11.046875-8.953125 20-20 20s-20-8.953125-20-20 8.953125-20 20-20 20 8.953125 20 20zm70 0c0 11.046875-8.953125 20-20 20s-20-8.953125-20-20 8.953125-20 20-20 20 8.953125 20 20zm0 0" fill="url(#a)"/></svg>