<svg height="480pt" viewBox="0 -8 480.23973 480" width="480pt" xmlns="http://www.w3.org/2000/svg" xmlns:xlink="http://www.w3.org/1999/xlink"><linearGradient id="a"><stop offset="0" stop-color="#fff200"/><stop offset="1" stop-color="#cd118c"/></linearGradient><linearGradient id="b" gradientUnits="userSpaceOnUse" x1="-96.456133" x2="463.543867" xlink:href="#a" y1="517.943865" y2="45.943865"/><linearGradient id="c" gradientUnits="userSpaceOnUse" x1="-248.416133" x2="311.583867" xlink:href="#a" y1="337.655865" y2="-134.344135"/><linearGradient id="d" gradientUnits="userSpaceOnUse" x1="-193.224133" x2="366.775867" xlink:href="#a" y1="403.135865" y2="-68.864135"/><linearGradient id="e" gradientUnits="userSpaceOnUse" x1="-138.032133" x2="421.967867" xlink:href="#a" y1="468.615865" y2="-3.384135"/><linearGradient id="f" gradientUnits="userSpaceOnUse" x1="-132.312133" x2="427.687867" xlink:href="#a" y1="483.399865" y2="11.399865"/><linearGradient id="g" gradientUnits="userSpaceOnUse" x1="-116.544133" x2="443.455867" xlink:href="#a" y1="502.111865" y2="30.111865"/><linearGradient id="h" gradientUnits="userSpaceOnUse" x1="-77.120133" x2="482.879867" xlink:href="#a" y1="548.879865" y2="76.879865"/><linearGradient id="i" gradientUnits="userSpaceOnUse" x1="-61.352133" x2="498.647867" xlink:href="#a" y1="567.591865" y2="95.591865"/><linearGradient id="j" gradientUnits="userSpaceOnUse" x1="-21.928133" x2="538.071867" xlink:href="#a" y1="614.359865" y2="142.359865"/><linearGradient id="k" gradientUnits="userSpaceOnUse" x1="-6.160133" x2="553.839867" xlink:href="#a" y1="633.071865" y2="161.071865"/><path d="m480.121094 88.121094v-48c-.027344-22.082032-17.921875-39.976563-40-40h-400c-22.082032.023437-39.976563 17.917968-40 40v48c.035156 12.636718 6.0625 24.511718 16.246094 32-10.183594 7.484375-16.210938 19.359375-16.246094 32v48c.035156 12.636718 6.0625 24.511718 16.246094 32-10.183594 7.484375-16.210938 19.359375-16.246094 32v48c.023437 22.078125 17.917968 39.972656 40 40h192v49.136718c-11.195313 2.925782-19.9375 11.667969-22.863282 22.863282h-146.273437c-4.027344-15.605469-19.03125-25.777344-35.015625-23.746094-15.988281 2.03125-27.96875 15.628906-27.96875 31.746094 0 16.113281 11.980469 29.714844 27.96875 31.742187 15.984375 2.03125 30.988281-8.140625 35.015625-23.742187h146.273437c3.589844 14.113281 16.296876 23.992187 30.863282 23.992187 14.5625 0 27.269531-9.878906 30.863281-23.992187h146.273437c4.027344 15.601562 19.027344 25.773437 35.015626 23.742187 15.984374-2.027343 27.964843-15.628906 27.964843-31.742187 0-16.117188-11.980469-29.714844-27.964843-31.746094-15.988282-2.03125-30.988282 8.140625-35.015626 23.746094h-146.273437c-2.925781-11.195313-11.671875-19.9375-22.863281-22.863282v-49.136718h192c22.078125-.027344 39.972656-17.921875 40-40v-48c-.035156-12.640625-6.066406-24.515625-16.25-32 10.183594-7.488282 16.214844-19.363282 16.25-32v-48c-.035156-12.640625-6.066406-24.515625-16.25-32 10.183594-7.488282 16.214844-19.363282 16.25-32zm-448 360c-8.835938 0-16-7.164063-16-16 0-8.835938 7.164062-16 16-16 8.835937 0 16 7.164062 16 16 0 8.835937-7.164063 16-16 16zm416-32c8.835937 0 16 7.164062 16 16 0 8.835937-7.164063 16-16 16-8.835938 0-16-7.164063-16-16 0-8.835938 7.164062-16 16-16zm-192 16c0 8.835937-7.164063 16-16 16-8.835938 0-16-7.164063-16-16 0-8.835938 7.164062-16 16-16 8.835937 0 16 7.164062 16 16zm208-168v48c0 13.253906-10.746094 24-24 24h-400c-13.257813 0-24-10.746094-24-24v-48c0-13.257813 10.742187-24 24-24h400c13.253906 0 24 10.742187 24 24zm0-112v48c0 13.253906-10.746094 24-24 24h-400c-13.257813 0-24-10.746094-24-24v-48c0-13.257813 10.742187-24 24-24h400c13.253906 0 24 10.742187 24 24zm0-64c0 13.253906-10.746094 24-24 24h-400c-13.257813 0-24-10.746094-24-24v-48c0-13.257813 10.742187-24 24-24h400c13.253906 0 24 10.742187 24 24zm0 0" fill="url(#b)"/><path d="m96.121094 40.121094h-40c-4.417969 0-8 3.582031-8 8v32c0 4.417968 3.582031 8 8 8h40c4.417968 0 8-3.582032 8-8v-32c0-4.417969-3.582032-8-8-8zm-8 32h-24v-16h24zm0 0" fill="url(#c)"/><path d="m56.121094 200.121094h40c4.417968 0 8-3.582032 8-8v-32c0-4.417969-3.582032-8-8-8h-40c-4.417969 0-8 3.582031-8 8v32c0 4.417968 3.582031 8 8 8zm8-32h24v16h-24zm0 0" fill="url(#d)"/><path d="m56.121094 312.121094h40c4.417968 0 8-3.582032 8-8v-32c0-4.417969-3.582032-8-8-8h-40c-4.417969 0-8 3.582031-8 8v32c0 4.417968 3.582031 8 8 8zm8-32h24v16h-24zm0 0" fill="url(#e)"/><path d="m424.121094 40.121094h-80c-4.417969 0-8 3.582031-8 8 0 4.417968 3.582031 8 8 8h80c4.417968 0 8-3.582032 8-8 0-4.417969-3.582032-8-8-8zm0 0" fill="url(#f)"/><path d="m424.121094 72.121094h-80c-4.417969 0-8 3.582031-8 8 0 4.417968 3.582031 8 8 8h80c4.417968 0 8-3.582032 8-8 0-4.417969-3.582032-8-8-8zm0 0" fill="url(#g)"/><path d="m344.121094 168.121094h80c4.417968 0 8-3.582032 8-8 0-4.417969-3.582032-8-8-8h-80c-4.417969 0-8 3.582031-8 8 0 4.417968 3.582031 8 8 8zm0 0" fill="url(#h)"/><path d="m344.121094 200.121094h80c4.417968 0 8-3.582032 8-8 0-4.417969-3.582032-8-8-8h-80c-4.417969 0-8 3.582031-8 8 0 4.417968 3.582031 8 8 8zm0 0" fill="url(#i)"/><path d="m344.121094 280.121094h80c4.417968 0 8-3.582032 8-8 0-4.417969-3.582032-8-8-8h-80c-4.417969 0-8 3.582031-8 8 0 4.417968 3.582031 8 8 8zm0 0" fill="url(#j)"/><path d="m344.121094 312.121094h80c4.417968 0 8-3.582032 8-8 0-4.417969-3.582032-8-8-8h-80c-4.417969 0-8 3.582031-8 8 0 4.417968 3.582031 8 8 8zm0 0" fill="url(#k)"/></svg>