<svg height="480pt" viewBox="0 -8 480.23973 480" width="480pt" xmlns="http://www.w3.org/2000/svg"><path d="m472.121094 88.121094v-48c0-17.675782-14.328125-32-32-32h-400c-17.675782 0-32 14.324218-32 32v48c0 17.671875 14.324218 32 32 32-17.675782 0-32 14.324218-32 32v48c0 17.671875 14.324218 32 32 32-17.675782 0-32 14.324218-32 32v48c0 17.671875 14.324218 32 32 32h400c17.671875 0 32-14.328125 32-32v-48c0-17.675782-14.328125-32-32-32 17.671875 0 32-14.328125 32-32v-48c0-17.675782-14.328125-32-32-32 17.671875 0 32-14.328125 32-32zm-376 216h-40v-32h40zm0-144v32h-40v-32zm-40-112h40v32h-40zm0 0" fill="#a5d0f2"/><g fill="#4b7493"><path d="m480.121094 88.121094v-48c-.027344-22.082032-17.921875-39.976563-40-40h-400c-22.082032.023437-39.976563 17.917968-40 40v48c.035156 12.636718 6.0625 24.511718 16.246094 32-10.183594 7.484375-16.210938 19.359375-16.246094 32v48c.035156 12.636718 6.0625 24.511718 16.246094 32-10.183594 7.484375-16.210938 19.359375-16.246094 32v48c.023437 22.078125 17.917968 39.972656 40 40h192v49.136718c-11.195313 2.925782-19.9375 11.667969-22.863282 22.863282h-146.273437c-4.027344-15.605469-19.03125-25.777344-35.015625-23.746094-15.988281 2.03125-27.96875 15.628906-27.96875 31.746094 0 16.113281 11.980469 29.714844 27.96875 31.742187 15.984375 2.03125 30.988281-8.140625 35.015625-23.742187h146.273437c3.589844 14.113281 16.296876 23.992187 30.863282 23.992187 14.5625 0 27.269531-9.878906 30.863281-23.992187h146.273437c4.027344 15.601562 19.027344 25.773437 35.015626 23.742187 15.984374-2.027343 27.964843-15.628906 27.964843-31.742187 0-16.117188-11.980469-29.714844-27.964843-31.746094-15.988282-2.03125-30.988282 8.140625-35.015626 23.746094h-146.273437c-2.925781-11.195313-11.671875-19.9375-22.863281-22.863282v-49.136718h192c22.078125-.027344 39.972656-17.921875 40-40v-48c-.035156-12.640625-6.066406-24.515625-16.25-32 10.183594-7.488282 16.214844-19.363282 16.25-32v-48c-.035156-12.640625-6.066406-24.515625-16.25-32 10.183594-7.488282 16.214844-19.363282 16.25-32zm-448 360c-8.835938 0-16-7.164063-16-16 0-8.835938 7.164062-16 16-16 8.835937 0 16 7.164062 16 16 0 8.835937-7.164063 16-16 16zm416-32c8.835937 0 16 7.164062 16 16 0 8.835937-7.164063 16-16 16-8.835938 0-16-7.164063-16-16 0-8.835938 7.164062-16 16-16zm-192 16c0 8.835937-7.164063 16-16 16-8.835938 0-16-7.164063-16-16 0-8.835938 7.164062-16 16-16 8.835937 0 16 7.164062 16 16zm208-168v48c0 13.253906-10.746094 24-24 24h-400c-13.257813 0-24-10.746094-24-24v-48c0-13.257813 10.742187-24 24-24h400c13.253906 0 24 10.742187 24 24zm0-112v48c0 13.253906-10.746094 24-24 24h-400c-13.257813 0-24-10.746094-24-24v-48c0-13.257813 10.742187-24 24-24h400c13.253906 0 24 10.742187 24 24zm0-64c0 13.253906-10.746094 24-24 24h-400c-13.257813 0-24-10.746094-24-24v-48c0-13.257813 10.742187-24 24-24h400c13.253906 0 24 10.742187 24 24zm0 0"/><path d="m96.121094 40.121094h-40c-4.417969 0-8 3.582031-8 8v32c0 4.417968 3.582031 8 8 8h40c4.417968 0 8-3.582032 8-8v-32c0-4.417969-3.582032-8-8-8zm-8 32h-24v-16h24zm0 0"/><path d="m56.121094 200.121094h40c4.417968 0 8-3.582032 8-8v-32c0-4.417969-3.582032-8-8-8h-40c-4.417969 0-8 3.582031-8 8v32c0 4.417968 3.582031 8 8 8zm8-32h24v16h-24zm0 0"/><path d="m56.121094 312.121094h40c4.417968 0 8-3.582032 8-8v-32c0-4.417969-3.582032-8-8-8h-40c-4.417969 0-8 3.582031-8 8v32c0 4.417968 3.582031 8 8 8zm8-32h24v16h-24zm0 0"/><path d="m424.121094 32.121094h-80c-4.417969 0-8 3.582031-8 8 0 4.417968 3.582031 8 8 8h80c4.417968 0 8-3.582032 8-8 0-4.417969-3.582032-8-8-8zm0 0"/><path d="m424.121094 64.121094h-80c-4.417969 0-8 3.582031-8 8 0 4.417968 3.582031 8 8 8h80c4.417968 0 8-3.582032 8-8 0-4.417969-3.582032-8-8-8zm0 0"/><path d="m344.121094 160.121094h80c4.417968 0 8-3.582032 8-8 0-4.417969-3.582032-8-8-8h-80c-4.417969 0-8 3.582031-8 8 0 4.417968 3.582031 8 8 8zm0 0"/><path d="m344.121094 192.121094h80c4.417968 0 8-3.582032 8-8 0-4.417969-3.582032-8-8-8h-80c-4.417969 0-8 3.582031-8 8 0 4.417968 3.582031 8 8 8zm0 0"/><path d="m344.121094 272.121094h80c4.417968 0 8-3.582032 8-8 0-4.417969-3.582032-8-8-8h-80c-4.417969 0-8 3.582031-8 8 0 4.417968 3.582031 8 8 8zm0 0"/><path d="m344.121094 304.121094h80c4.417968 0 8-3.582032 8-8 0-4.417969-3.582032-8-8-8h-80c-4.417969 0-8 3.582031-8 8 0 4.417968 3.582031 8 8 8zm0 0"/></g></svg>