<svg height="442pt" viewBox="-48 0 442 442.97503" width="442pt" xmlns="http://www.w3.org/2000/svg" xmlns:xlink="http://www.w3.org/1999/xlink"><linearGradient id="a"><stop offset="0" stop-color="#00efd1"/><stop offset="1" stop-color="#00acea"/></linearGradient><linearGradient id="b" gradientTransform="matrix(1 0 0 -1 -82.412485 479.574934)" gradientUnits="userSpaceOnUse" x1="255.902" x2="255.902" xlink:href="#a" y1="498" y2="13.851"/><linearGradient id="c" gradientTransform="matrix(1 0 0 -1 -82.412485 479.574934)" gradientUnits="userSpaceOnUse" x1="256.102" x2="256.102" xlink:href="#a" y1="498" y2="13.851"/><path d="m341.886719 105.574219-162.898438-104c-3.292969-2.097657-7.507812-2.097657-10.800781 0l-163 104c-2.90625 1.804687-4.683594 4.980469-4.699219 8.402343v90.199219c.082031 74.304688 36.109375 143.980469 96.699219 187l70.5 50c3.496094 2.398438 8.105469 2.398438 11.601562 0l70.5-50c60.585938-43.019531 96.617188-112.695312 96.699219-187v-90.199219c.042969-3.414062-1.703125-6.601562-4.601562-8.402343zm-15.300781 98.699219c-.070313 67.839843-32.972657 131.445312-88.296876 170.703124l-64.703124 45.898438-64.699219-45.898438c-55.324219-39.257812-88.230469-102.863281-88.300781-170.703124v-84.699219l153-97.597657 153 97.597657zm0 0" fill="url(#b)"/><path d="m120.386719 209.375c-3.835938-3.949219-10.148438-4.039062-14.097657-.199219-3.949218 3.835938-4.039062 10.148438-.203124 14.097657l41.5 42.601562c3.855468 3.878906 10.085937 4.011719 14.101562.300781l79.300781-74.800781c4.003907-3.785156 4.183594-10.097656.398438-14.101562-3.78125-4.003907-10.09375-4.183594-14.097657-.398438l-72.101562 68.101562zm0 0" fill="url(#c)"/></svg>