<svg height="464pt" viewBox="0 0 464 464" width="464pt" xmlns="http://www.w3.org/2000/svg"><path d="m464 232c0 128.128906-103.871094 232-232 232s-232-103.871094-232-232 103.871094-232 232-232 232 103.871094 232 232zm0 0" fill="#fff6d2"/><path d="m232 24c123.46875-.003906 225.308594 96.695312 231.695312 220 .203126-3.972656.304688-7.972656.304688-12 0-128.128906-103.871094-232-232-232s-232 103.871094-232 232c0 4.027344.101562 8.027344.304688 12 6.386718-123.304688 108.226562-220.003906 231.695312-220zm0 0" fill="#ffefac"/><g fill="#e5556f"><path d="m378 133.601562c-1.601562-2.320312-3.199219-4.640624-4.960938-6.960937-1.4375-2-2.960937-3.921875-4.558593-5.839844-.550781-.578125-1.058594-1.191406-1.519531-1.839843-1.199219-1.441407-2.480469-2.882813-3.761719-4.320313-2.199219-2.402344-4.605469-4.609375-6.917969-6.921875l-39.441406 39.441406c7.410156 7.417969 13.824218 15.765625 19.082031 24.839844l48.511719-28c-2.035156-3.527344-4.152344-7.039062-6.433594-10.398438zm0 0"/><path d="m349.359375 100.800781c-1.4375-1.28125-2.878906-2.5625-4.320313-3.761719-.648437-.460937-1.261718-.96875-1.839843-1.519531-1.917969-1.597656-3.839844-3.121093-5.839844-4.558593-2.320313-1.761719-4.640625-3.359376-6.960937-4.960938-3.359376-2.28125-6.871094-4.390625-10.398438-6.398438l-28 48.476563c9.0625 5.257813 17.398438 11.671875 24.800781 19.082031l39.4375-39.441406c-2.269531-2.3125-4.476562-4.71875-6.878906-6.917969zm0 0"/><path d="m314.878906 76.71875c-2.160156-1.199219-4.320312-2.320312-6.558594-3.359375-2.558593-1.28125-5.121093-2.398437-7.761718-3.519531-2-.878906-4-1.679688-6-2.398438-1.4375-.5625-2.878906-1.121094-4.398438-1.601562-5.121094-1.761719-10.320312-3.359375-15.601562-4.640625-2.160156-.558594-4.398438-1.039063-6.558594-1.519531-2.160156-.480469-4.480469-.878907-6.71875-1.199219-1.839844-.402344-3.679688-.640625-5.519531-.878907-2.320313-.320312-4.722657-.5625-7.121094-.800781-2.402344-.242187-4.878906-.402343-7.359375-.5625h-.402344c-2.957031-.160156-5.917968-.238281-8.878906-.238281v56c21.070312-.042969 41.773438 5.503906 60 16.078125l28-48.511719c-1.71875-.957031-3.390625-1.964844-5.121094-2.847656zm0 0"/></g><path d="m336.160156 292 48.558594 28c.960938-1.679688 1.921875-3.441406 2.800781-5.121094 1.199219-2.160156 2.320313-4.320312 3.359375-6.558594 1.28125-2.558593 2.402344-5.121093 3.519532-7.761718.882812-2 1.679687-4 2.402343-6 .558594-1.4375 1.121094-2.878906 1.597657-4.398438 1.761718-5.121094 3.363281-10.320312 4.640624-15.601562.5625-2.160156 1.039063-4.398438 1.519532-6.558594.480468-2.160156.882812-4.480469 1.203125-6.71875.398437-1.839844.636719-3.679688.878906-5.519531.320313-2.320313.558594-4.722657.800781-7.121094.238282-2.402344.398438-4.878906.558594-7.359375v-.402344c.160156-2.957031.238281-5.917968.238281-8.878906h-56c.042969 21.070312-5.503906 41.773438-16.078125 60zm0 0" fill="#e13957"/><path d="m133.601562 86c-2.320312 1.601562-4.640624 3.199219-6.960937 4.960938-2 1.4375-3.921875 2.960937-5.839844 4.558593-.578125.550781-1.191406 1.058594-1.839843 1.519531-1.441407 1.199219-2.882813 2.480469-4.320313 3.761719-4.800781 4.398438-9.441406 9.039063-13.839844 13.839844-1.28125 1.4375-2.5625 2.878906-3.761719 4.320313-.460937.648437-.96875 1.261718-1.519531 1.839843-1.597656 1.917969-3.121093 3.839844-4.558593 5.839844-1.761719 2.320313-3.359376 4.640625-4.960938 6.960937-2.28125 3.359376-4.390625 6.871094-6.398438 10.398438l48.511719 28c10.546875-18.226562 25.691407-33.371094 43.917969-43.921875l-28.03125-48.511719c-3.527344 2.035156-7.039062 4.152344-10.398438 6.433594zm0 0" fill="#e97187"/><path d="m390.640625 155.679688c-1.039063-2.238282-2.160156-4.398438-3.359375-6.558594-.90625-1.730469-1.890625-3.402344-2.847656-5.089844l-48.511719 27.96875c10.574219 18.226562 16.121094 38.929688 16.078125 60h56c0-2.960938-.078125-5.921875-.238281-8.878906v-.402344c-.160157-2.480469-.320313-4.957031-.5625-7.359375-.238281-2.398437-.480469-4.800781-.800781-7.121094-.238282-1.839843-.476563-3.679687-.878907-5.519531-.320312-2.238281-.71875-4.480469-1.199219-6.71875-.480468-2.160156-.960937-4.398438-1.519531-6.558594-1.28125-5.28125-2.878906-10.480468-4.640625-15.601562-.480468-1.519532-1.039062-2.960938-1.601562-4.398438-.71875-2-1.519532-4-2.398438-6-1.121094-2.640625-2.238281-5.203125-3.519531-7.761718zm0 0" fill="#e13957"/><path d="m76.71875 149.121094c-1.199219 2.160156-2.320312 4.320312-3.359375 6.558594-1.28125 2.558593-2.398437 5.121093-3.519531 7.761718-.878906 2-1.679688 4-2.398438 6-.5625 1.4375-1.121094 2.878906-1.601562 4.398438-1.761719 5.121094-3.359375 10.320312-4.640625 15.601562-.558594 2.160156-1.039063 4.398438-1.519531 6.558594-.480469 2.160156-.878907 4.480469-1.199219 6.71875-.402344 1.839844-.640625 3.679688-.878907 5.519531-.320312 2.320313-.5625 4.722657-.800781 7.121094-.242187 2.402344-.402343 4.878906-.5625 7.359375v.402344c-.160156 2.957031-.238281 5.917968-.238281 8.878906h56c-.042969-21.070312 5.503906-41.773438 16.078125-60l-48.511719-28c-.957031 1.71875-1.964844 3.390625-2.847656 5.121094zm0 0" fill="#ee8e9f"/><path d="m223.121094 56.238281h-.402344c-2.480469.160157-4.957031.320313-7.359375.5625-2.398437.238281-4.800781.480469-7.121094.800781-1.839843.238282-3.679687.476563-5.519531.878907-2.238281.320312-4.480469.71875-6.71875 1.199219-2.160156.480468-4.398438.960937-6.558594 1.519531-5.28125 1.28125-10.480468 2.878906-15.601562 4.640625-1.519532.480468-2.960938 1.039062-4.398438 1.601562-2 .71875-4 1.519532-6 2.398438-2.640625 1.121094-5.203125 2.238281-7.761718 3.519531-2.238282 1.039063-4.398438 2.160156-6.558594 3.359375-1.730469.90625-3.402344 1.890625-5.089844 2.847656l28 48.511719c18.214844-10.566406 38.910156-16.117187 59.96875-16.078125v-56c-2.960938 0-5.921875.078125-8.878906.238281zm0 0" fill="#e97187"/><path d="m56 232.878906v.402344c.160156 2.480469.320312 4.957031.558594 7.359375.242187 2.398437.480468 4.800781.800781 7.121094.242187 1.839843.480469 3.679687.878906 5.519531.320313 2.238281.722657 4.480469 1.203125 6.71875.480469 2.160156.957032 4.398438 1.519532 6.558594 1.277343 5.28125 2.878906 10.480468 4.640624 15.601562.476563 1.519532 1.039063 2.960938 1.597657 4.398438.722656 2 1.519531 4 2.402343 6 1.117188 2.640625 2.238282 5.203125 3.519532 7.761718 1.039062 2.238282 2.160156 4.398438 3.359375 6.558594.878906 1.679688 1.839843 3.441406 2.800781 5.121094l48.558594-28c-10.574219-18.226562-16.121094-38.929688-16.078125-60h-56c0 2.960938.078125 5.921875.238281 8.878906zm0 0" fill="#f2aab7"/><path d="m254.625 209.375c-10.796875-10.792969-27.714844-12.457031-40.40625-3.972656-12.695312 8.484375-17.625 24.753906-11.78125 38.855468 5.84375 14.105469 20.839844 22.113282 35.8125 19.132813s25.753906-16.125 25.75-31.390625c.011719-8.488281-3.363281-16.632812-9.375-22.625zm-22.625 30.625c-4.417969 0-8-3.582031-8-8s3.582031-8 8-8 8 3.582031 8 8-3.582031 8-8 8zm0 0" fill="#ffa897"/><path d="m152 328h160v32h-160zm0 0" fill="#e6e7e8"/><path d="m136 344h176v32h-176zm0 0" fill="#dfd7b8"/><path d="m415.761719 223.121094v-.960938c-.167969-2.558594-.335938-5.128906-.585938-7.59375-.246093-2.460937-.503906-5-.800781-7.351562-.269531-2.0625-.542969-4.125-.894531-5.597656-.34375-2.402344-.800781-4.800782-1.3125-7.328126l-.238281-1.074218c-.417969-1.902344-.859376-3.855469-1.3125-5.597656-1.234376-5.058594-2.816407-10.402344-4.800782-16.113282-.535156-1.695312-1.152344-3.296875-1.703125-4.703125-.800781-2.175781-1.648437-4.34375-2.570312-6.402343-1.183594-2.796876-2.398438-5.496094-3.621094-8-1.121094-2.398438-2.328125-4.742188-3.53125-6.894532-2.921875-5.597656-6.167969-11.027344-9.710937-16.257812l-.160157-.222656v-.039063c-.152343-.222656-.3125-.433594-.472656-.664063-1.09375-1.601562-2.207031-3.199218-3.34375-4.726562l-1.117187-1.539062c-1.546876-2.144532-3.203126-4.214844-5.417969-6.847657-.363281-.40625-.703125-.835937-1.015625-1.285156-1.257813-1.496094-2.59375-3.011719-4-4.601563-4.535156-4.953124-9.359375-9.769531-14.65625-14.625-1.425782-1.253906-2.847656-2.519531-4.625-4-.167969-.121093-.34375-.246093-.574219-.429687-.234375-.1875-.511719-.425781-.914063-.800781-2.070312-1.730469-4.144531-3.367188-6.136718-4.800782l-.117188-.089843-1.601562-1.160157c-1.855469-1.351562-3.695313-2.6875-5.597656-3.949218-5.191407-3.523438-10.582032-6.746094-16.136719-9.65625-2.328125-1.289063-4.65625-2.503906-6.847657-3.519532-2.714843-1.351562-5.425781-2.535156-8.113281-3.679687-2.175781-.960937-4.351562-1.832031-6.574219-2.632813-1.523437-.585937-3.050781-1.167968-4.449218-1.601562-5.945313-2.054688-11.289063-3.640625-16.191406-4.800781-2.066407-.542969-4.203126-1.007813-6.914063-1.597657-2.398437-.503906-4.800781-.945312-6.6875-1.191406-1.976563-.433594-3.953125-.695312-6.121094-.976562-2.398437-.335938-4.894531-.585938-7.4375-.847656-2.546875-.265626-5.066406-.410157-8.097656-.578126-6.0625-.328124-12.136719-.328124-18.199219 0h-.902344c-2.570312.167969-5.144531.335938-7.699218.585938-2.550782.246094-4.972656.503906-7.574219.863281-1.96875.257813-3.945313.519531-5.359375.847657-2.402344.351562-4.800781.800781-7.890625 1.441406-2.070313.464844-4.207031.925781-6.125 1.4375-5.050781 1.210937-10.402344 2.792968-16.121094 4.800781-1.601562.511719-3.144531 1.097656-4.710937 1.695313-2.175782.800781-4.351563 1.65625-6.402344 2.578124-2.808594 1.183594-5.519531 2.398438-8 3.625-2.398438 1.109376-4.734375 2.328126-6.902344 3.527344-.847656.445313-1.671875.949219-2.511718 1.40625-4.695313 2.5625-9.328126 5.320313-13.730469 8.304688h-.109375l-.875.625c-1.597656 1.066406-3.148438 2.160156-4.652344 3.285156l-1.554688 1.136719c-1.078124.800781-2.144531 1.601562-3.246093 2.449219-1.105469.847656-2.273438 1.839843-3.5625 2.929687-.160157.15625-.335938.304687-.519531.4375l-.800782.617187c-1.421875 1.191407-2.847656 2.457032-4.597656 4-4.96875 4.558594-9.792969 9.375-14.402344 14.398438-1.34375 1.503906-2.679687 3.015625-4.191406 4.847656-.386719.535156-.8125 1.039063-1.269531 1.511719-1.722657 2.074219-3.359375 4.144531-4.800781 6.128906l-.074219.089844v.054687l-1.132813 1.550782c-1.351562 1.867187-2.699218 3.714844-4 5.601562-3.523437 5.183594-6.746094 10.566406-9.65625 16.121094-1.289062 2.328125-2.496094 4.65625-3.519531 6.863281-1.355469 2.710938-2.539063 5.40625-3.691406 8.113281-.949219 2.175782-1.820313 4.34375-2.527344 6.316407-.621094 1.601562-1.238281 3.203125-1.703125 4.707031-2.039062 5.917969-3.625 11.253906-4.800781 16.199219-.488281 1.886719-.925781 3.839843-1.34375 5.742187l-.253907 1.136719c-.519531 2.402344-.953124 4.847656-1.191406 6.695313-.457031 2.074218-.730468 4.136718-.992187 6.136718-.328125 2.402344-.585938 4.921875-.800781 7.402344-.21875 2.476562-.417969 5.046875-.59375 8.132812-.175782 3.089844-.367188 6.167969-.367188 9.273438s.078125 6.207031.238281 8.878906v.960938c.167969 2.558594.335938 5.128906.585938 7.59375.246093 2.460937.503906 5 .800781 7.351562.269531 2.0625.542969 4.125.894531 5.597656.34375 2.402344.800781 4.800782 1.3125 7.328126l.238281 1.074218c.417969 1.902344.859376 3.855469 1.3125 5.597656 1.234376 5.058594 2.816407 10.402344 4.800782 16.113282.535156 1.695312 1.152344 3.296875 1.703125 4.703125.800781 2.175781 1.648437 4.34375 2.570312 6.402343 1.183594 2.796876 2.398438 5.496094 3.621094 8 1.121094 2.398438 2.328125 4.742188 3.539063 6.910157.917968 1.769531 1.925781 3.609375 2.933593 5.367187l4 6.96875 62.472657-36-4.03125-6.847656c-20.007813-34.652344-20.007813-77.347656 0-112 9.859374-17.011719 23.996093-31.148438 41.007812-41.007812 34.753906-19.625 77.246094-19.625 112 0 17.011719 9.855468 31.152344 23.996093 41.007812 41.007812 19.988282 34.640625 19.988282 77.3125 0 111.953125l-4 6.941406 62.472657 36 4-6.964843c1.007812-1.761719 2.015625-3.601563 2.855469-5.210938 1.289062-2.328125 2.496093-4.65625 3.519531-6.863281 1.351562-2.710938 2.535156-5.40625 3.6875-8.113281.953125-2.175782 1.824219-4.34375 2.527343-6.316407.625-1.601562 1.242188-3.203125 1.707032-4.707031 2.039062-5.917969 3.621094-11.253906 4.796875-16.199219.488281-1.886719.929687-3.839843 1.347656-5.742187l.253906-1.136719c.519531-2.402344.953125-4.847656 1.191407-6.695313.457031-2.074218.730468-4.136718.992187-6.136718.328125-2.402344.585937-4.921875.800781-7.402344.214844-2.476562.414063-5.046875.59375-8.132812.175782-3.089844.246094-6.167969.246094-9.273438s-.078125-6.207031-.238281-8.878906zm-20.707031-31.679688c.441406 1.710938.800781 3.480469 1.21875 5.207032l.222656 1.03125c.441406 2.054687.800781 4.113281 1.207031 6.746093.351563 1.597657.554687 3.199219.800781 4.910157.3125 2.214843.535156 4.511718.800782 6.832031.128906 1.230469.222656 2.480469.3125 3.679687.078124 1.023438.144531 2.007813.207031 2.871094v.839844.441406h-40.089844c-1.042969-17.027344-5.496094-33.671875-13.09375-48.945312l34.695313-20c.71875 1.359374 1.441406 2.679687 2.152343 4.210937 1.199219 2.398437 2.253907 4.796875 3.34375 7.398437.800781 1.832032 1.535157 3.65625 2.273438 5.679688.496093 1.289062 1 2.558594 1.496093 4.113281 1.871094 5.421875 3.320313 10.296875 4.453126 14.984375zm-147.183594-126.640625c2.289062.230469 4.585937.457031 7.082031.800781 1.550781.207032 3.085937.398438 5.199219.839844 2.054687.285156 4.121094.664063 6.710937 1.214844 1.878907.414062 3.808594.847656 5.816407 1.359375 4.542968 1.105469 9.410156 2.542969 15.089843 4.503906 1.269531.390625 2.476563.871094 4.078125 1.488281 1.832032.65625 3.65625 1.390626 5.601563 2.238282 2.480469 1.050781 4.894531 2.097656 7.511719 3.410156 1.328124.617188 2.664062 1.351562 4 2.046875l-20 34.710937c-15.304688-7.492187-31.949219-11.855468-48.960938-12.839843v-40.367188h.800781c2.398438.167969 4.75.320313 7.070313.59375zm-75.328125 10.054688c1.210937-.464844 2.402343-.945313 3.90625-1.40625 5.460937-1.890625 10.328125-3.328125 15.007812-4.464844 1.871094-.480469 3.800781-.914063 6.207031-1.441406 2.0625-.4375 4.128907-.800781 6.742188-1.207031 1.554688-.335938 3.097656-.527344 4.929688-.800782 2.207031-.304687 4.503906-.527344 6.800781-.757812 2.296875-.234375 4.703125-.386719 6.582031-.519532h1.28125v40.359376c-17 .96875-33.636719 5.320312-48.9375 12.796874l-20-34.703124c1.363281-.71875 2.679688-1.4375 4.21875-2.160157 2.398438-1.207031 4.796875-2.253906 7.40625-3.34375 1.808594-.847656 3.632812-1.582031 5.855469-2.390625zm-107.007813 134.410156c.207032-1.601563.410156-3.203125.863282-5.417969.296874-2.054687.664062-4.113281 1.089843-6.105468l.238281-1.09375c.386719-1.726563.800782-3.496094 1.25-5.328126 1.101563-4.566406 2.550782-9.441406 4.496094-15.074218.421875-1.351563.925782-2.621094 1.496094-4.101563.664062-1.832031 1.390625-3.65625 2.230469-5.601562 1.058593-2.480469 2.113281-4.886719 3.417969-7.511719.613281-1.328125 1.351562-2.671875 2.046874-4l34.695313 20c-7.597656 15.28125-12.050781 31.933594-13.09375 48.96875h-40.066406c0-.273438 0-.511719 0-.800781.152343-2.398438.304687-4.75.535156-7.0625.234375-2.3125.480469-4.585938.800781-6.871094zm17.128906 99.6875c-.71875-1.359375-1.441406-2.679687-2.152343-4.210937-1.199219-2.398438-2.253907-4.796876-3.34375-7.398438-.800781-1.832031-1.535157-3.65625-2.273438-5.679688-.496093-1.289062-1-2.558593-1.496093-4.113281-1.871094-5.429687-3.320313-10.304687-4.453126-14.992187-.441406-1.710938-.800781-3.480469-1.21875-5.207032l-.222656-1.03125c-.441406-2.054687-.800781-4.113281-1.207031-6.746093-.351563-1.597657-.554687-3.199219-.800781-4.910157-.3125-2.214843-.535156-4.511718-.800782-6.832031-.128906-1.230469-.222656-2.480469-.3125-3.679687-.078124-1.023438-.144531-2.007813-.207031-2.871094v-.800781c0-.152344 0-.296875 0-.441407h40.25c.972657 17.015626 5.351563 33.660157 12.878907 48.953126zm42.71875-147.746094-34.726562-20c.679688-1.054687 1.3125-2.128906 2.023438-3.199219l.207031-.28125c1.433593-2.085937 2.875-4.167968 4.570312-6.398437 1.328125-1.847656 2.734375-3.625 3.703125-4.800781.730469-.75 1.40625-1.550782 2.023438-2.398438 1.144531-1.375 2.402344-2.753906 3.511718-4 4.230469-4.609375 8.71875-9.097656 13.472657-13.464844 1.3125-1.152343 2.617187-2.3125 3.566406-3.121093l1.328125-1.03125c.304688-.246094.59375-.515625.867188-.800781 1.765624-1.480469 3.535156-2.878907 5.542968-4.328126 2.222656-1.679687 4.449219-3.199218 6.617188-4.710937 1-.679687 2.125-1.222656 3.140625-1.878906l20 34.640625c-14.195313 9.4375-26.378907 21.597656-35.847657 35.773437zm177.410157-35.824219 20-34.726562c1.023437.65625 2.070312 1.273438 3.078125 1.960938 2.207031 1.519531 4.425781 3.046874 6.792968 4.847656 1.839844 1.3125 3.601563 2.710937 4.871094 3.742187.417969.402344.855469.800781 1.273438 1.128907.414062.328124.800781.632812 1.078125.839843 1.304687 1.097657 2.609375 2.257813 4.042969 3.511719 4.628906 4.257812 9.117187 8.753906 13.269531 13.273438 1.226562 1.375 2.449219 2.75 3.335937 3.800781.539063.757812 1.128906 1.476562 1.769532 2.148437 1.472656 1.769532 2.871093 3.53125 4.320312 5.539063l.101562.152343c1.601563 2.125 3.089844 4.253907 4.625 6.488282.6875 1.007812 1.222657 2.117187 1.878907 3.148437l-34.636719 20c-9.441406-14.203125-21.609375-26.390625-35.800781-35.855469zm95.671875 129.351563c-.207032 1.601563-.410156 3.203125-.863282 5.417969-.296874 2.054687-.664062 4.113281-1.089843 6.105468l-.238281 1.09375c-.386719 1.726563-.800782 3.496094-1.25 5.328126-1.101563 4.566406-2.550782 9.441406-4.496094 15.074218-.421875 1.351563-.925782 2.621094-1.496094 4.101563-.664062 1.832031-1.390625 3.65625-2.230469 5.601562-1.058593 2.480469-2.113281 4.886719-3.417969 7.511719-.613281 1.335938-1.351562 2.664062-2.046874 4l-34.679688-20c7.527344-15.296875 11.90625-31.949219 12.878906-48.96875h40.265625v.800781c-.152343 2.398438-.304687 4.75-.535156 7.0625-.234375 2.3125-.480469 4.585938-.800781 6.871094zm0 0" fill="#78b9eb"/><path d="m381.65625 93.65625-11.3125-11.3125-116.320312 116.320312c-17.179688-11.371093-40.175782-7.882812-53.210938 8.070313s-11.867188 39.1875 2.699219 53.753906c14.566406 14.566407 37.800781 15.734375 53.753906 2.699219s19.441406-36.03125 8.070313-53.210938zm-125.65625 138.34375c0 13.253906-10.746094 24-24 24s-24-10.746094-24-24 10.746094-24 24-24c3.5625.015625 7.078125.835938 10.28125 2.398438l-6.191406 6.195312c-1.332032-.378906-2.707032-.578125-4.089844-.59375-8.835938 0-16 7.164062-16 16s7.164062 16 16 16 16-7.164062 16-16c-.019531-1.382812-.21875-2.757812-.601562-4.089844l6.195312-6.191406c1.566406 3.203125 2.390625 6.714844 2.40625 10.28125zm0 0" fill="#1e81ce"/></svg>