<?xml version="1.0" encoding="iso-8859-1"?>
<!-- Generator: Adobe Illustrator 19.0.0, SVG Export Plug-In . SVG Version: 6.00 Build 0)  -->
<svg version="1.1" id="Capa_1" xmlns="http://www.w3.org/2000/svg" xmlns:xlink="http://www.w3.org/1999/xlink" x="0px" y="0px"
	 viewBox="0 0 511.999 511.999" style="enable-background:new 0 0 511.999 511.999;" xml:space="preserve">
<linearGradient id="SVGID_1_" gradientUnits="userSpaceOnUse" x1="256.1514" y1="513.9308" x2="256.1514" y2="1.6768" gradientTransform="matrix(0.9995 0 0 -0.9995 -0.0244 513.6749)">
	<stop  offset="0" style="stop-color:#2AF598"/>
	<stop  offset="1" style="stop-color:#009EFD"/>
</linearGradient>
<path style="fill:url(#SVGID_1_);" d="M490.117,0.896c-1.542,0.063-38.316,1.715-87.065,15.28
	c-64.917,18.063-120.634,49.015-161.129,89.508c-26.16,26.16-51.087,58.345-71.994,88.294l-19.142-19.142
	c-14.74-14.741-34.337-22.92-55.183-23.032c-0.145,0-0.289-0.001-0.434-0.001c-20.656,0-40.147,7.938-54.934,22.38L0.187,212.77
	v37.984h22.765c21.227,0,41.181,8.27,56.182,23.282l158.798,159.012c15.017,15.004,23.286,34.958,23.286,56.186v22.765h37.984
	l38.587-40.051c14.544-14.89,22.491-34.55,22.379-55.367c-0.112-20.845-8.291-40.442-23.031-55.182l-19.27-19.27
	c29.893-21.015,62.064-46.047,88.26-72.243c40.494-40.495,71.445-96.212,89.508-161.128c13.564-48.749,15.216-85.523,15.28-87.065
	L511.812,0L490.117,0.896z M468.546,43.265c-1.977,14.13-5.501,33.684-11.711,55.788c-0.799,2.844-1.662,5.78-2.58,8.784
	l-50.282-50.282c3.003-0.918,5.94-1.78,8.784-2.579C434.861,48.766,454.418,45.241,468.546,43.265z M55.303,215.185l12.726-12.261
	l0.112-0.109c15.07-14.75,39.464-14.618,54.374,0.292l24.735,24.735c-8.809,13.694-16.294,25.966-22.077,35.719l-17.754-17.778
	C92.702,231.054,74.819,220.642,55.303,215.185z M308.866,389.67c14.912,14.912,15.043,39.303,0.292,54.375l-12.37,12.839
	c-5.456-19.514-15.864-37.394-30.583-52.1l-17.654-17.678c9.692-5.809,21.912-13.335,35.558-22.19L308.866,389.67z M377.855,241.617
	c-50.579,50.579-128.001,98.335-158.483,116.27l-64.978-65.065c17.767-30.56,65.168-108.235,115.799-158.867
	c28.245-28.245,61.559-47.779,92.438-61.201l76.423,76.423C425.634,180.056,406.1,213.372,377.855,241.617z M320.169,191.642
	c7.807,7.806,7.807,20.464,0,28.27c-7.807,7.806-20.464,7.806-28.27,0c-7.807-7.806-7.807-20.464,0-28.27
	C299.706,183.835,312.362,183.835,320.169,191.642z M265.196,245.615c7.807,7.806,7.807,20.464,0,28.27s-20.464,7.806-28.27,0
	c-7.807-7.806-7.807-20.464,0-28.27S257.389,237.809,265.196,245.615z M124.766,415.314l-95.452,95.452l-28.271-28.27l95.452-95.452
	L124.766,415.314z M170.958,422.027l28.271,28.27l-60.47,60.47l-28.271-28.27L170.958,422.027z M89.784,340.851l-60.47,60.47
	l-28.271-28.27l60.47-60.47L89.784,340.851z M376.141,164.94c-7.807,7.806-20.464,7.806-28.27,0c-7.807-7.806-7.807-20.464,0-28.27
	c7.807-7.806,20.464-7.806,28.27,0C383.947,144.476,383.947,157.133,376.141,164.94z"/>
<g>
</g>
<g>
</g>
<g>
</g>
<g>
</g>
<g>
</g>
<g>
</g>
<g>
</g>
<g>
</g>
<g>
</g>
<g>
</g>
<g>
</g>
<g>
</g>
<g>
</g>
<g>
</g>
<g>
</g>
</svg>
