<?xml version="1.0"?>
<svg xmlns="http://www.w3.org/2000/svg" height="512px" viewBox="0 0 511 511.99995" width="512px"><path d="m512.496094 211.722656-4.347656-192.15625c-.1875-8.324218-6.886719-15.023437-15.210938-15.210937l-192.164062-4.35156275c-4.234376-.09765625-8.351563 1.55078175-11.359376 4.55468775l-284.355468 284.355468c-6.078125 6.078126-6.078125 15.9375 0 22.015626l196.511718 196.511718c2.917969 2.917969 6.878907 4.558594 11.003907 4.558594 4.128906 0 8.089843-1.640625 11.007812-4.558594l51.257813-51.257812c.003906-.003906.003906-.003906.003906-.007813.003906 0 .003906 0 .003906-.003906l233.089844-233.085937c3.007812-3.007813 4.65625-7.113282 4.558594-11.363282zm-248.660156 211.429688-174.492188-174.492188 158.050781-158.046875 174.492188 174.492188zm-51.261719 51.265625-174.492188-174.496094 29.246094-29.246094 174.496094 174.492188zm231.328125-231.328125-174.496094-174.492188 37.316406-37.316406 170.636719 3.863281 3.859375 170.628907zm0 0" fill="#FFFFFF"/><path d="m375.214844 73.492188c-17.582032 17.585937-17.582032 46.195312 0 63.78125 8.792968 8.792968 20.34375 13.1875 31.890625 13.1875 11.550781 0 23.097656-4.394532 31.890625-13.1875 8.519531-8.519532 13.210937-19.84375 13.210937-31.890626 0-12.046874-4.691406-23.375-13.210937-31.890624-17.585938-17.582032-46.195313-17.582032-63.78125 0zm41.765625 41.765624c-5.445313 5.445313-14.304688 5.445313-19.75 0-5.441407-5.445312-5.441407-14.304687 0-19.75 2.722656-2.71875 6.300781-4.082031 9.875-4.082031 3.578125 0 7.152343 1.363281 9.875 4.082031 2.640625 2.640626 4.089843 6.148438 4.089843 9.875 0 3.730469-1.453124 7.238282-4.089843 9.875zm0 0" fill="#FFFFFF"/><path d="m320.5625 225.78125-5.910156-5.914062 4.917968-4.917969c6.078126-6.078125 6.078126-15.933594 0-22.015625-6.078124-6.078125-15.9375-6.078125-22.015624 0l-7.3125 7.3125c-14.464844-5.417969-31.898438-1.941406-44.042969 10.203125-16.273438 16.277343-16.988281 42.046875-1.589844 57.445312 1.78125 1.78125 2.070313 4.070313 2 5.679688-.125 2.796875-1.398437 5.542969-3.589844 7.730469-2.1875 2.1875-4.933593 3.464843-7.734375 3.589843-1.601562.066407-3.894531-.214843-5.675781-2l-16.921875-16.917969c-6.078125-6.082031-15.933594-6.082031-22.015625 0-6.078125 6.078126-6.078125 15.933594 0 22.015626l5.914063 5.910156-4.917969 4.917968c-6.078125 6.078126-6.078125 15.9375 0 22.015626 3.039062 3.039062 7.023437 4.558593 11.007812 4.558593 3.980469 0 7.964844-1.519531 11.007813-4.558593l7.316406-7.316407c4.417969 1.652344 9.113281 2.488281 13.851562 2.488281 10.765626 0 21.75-4.257812 30.183594-12.6875 7.699219-7.699218 12.199219-17.769531 12.675782-28.355468.5-11.109375-3.4375-21.441406-11.085938-29.085938-3.203125-3.207031-2.476562-9.347656 1.589844-13.414062s10.207031-4.792969 13.410156-1.589844l16.917969 16.917969c6.082031 6.082031 15.9375 6.078125 22.015625 0 6.082031-6.078125 6.082031-15.933594.003906-22.011719zm0 0" fill="#FFFFFF"/></svg>
