<svg height="360pt" viewBox="-2 0 360 360" width="360pt" xmlns="http://www.w3.org/2000/svg" xmlns:xlink="http://www.w3.org/1999/xlink"><linearGradient id="a" gradientTransform="matrix(1 0 0 -1 -78.486 438)" gradientUnits="userSpaceOnUse" x1="253.776" x2="257.603" y1="-41.361" y2="471.459"><stop offset=".322" stop-color="#a163f5"/><stop offset=".466" stop-color="#b074ee"/><stop offset=".752" stop-color="#d8a1dd"/><stop offset=".898" stop-color="#efbad3"/></linearGradient><path d="m327.132812 0h-63.382812c-15.398438.0195312-27.878906 12.5-27.894531 27.898438v25.234374h-116.683594v-23.132812c-.019531-16.5625-13.4375-29.9804688-30-30h-59.171875c-16.5625.0195312-29.9804688 13.4375-30 30v61.570312c.0195312 16.5625 13.4375 29.984376 30 30h21.113281v116.859376h-21.113281c-16.5625.015624-29.9804688 13.4375-30 30v61.570312c.0195312 16.5625 13.4375 29.980469 30 30h59.171875c16.5625-.019531 29.980469-13.4375 30-30v-14.539062h116.683594v16.644531c.019531 15.398437 12.496093 27.875 27.894531 27.894531h63.382812c15.398438-.015625 27.882813-12.496094 27.898438-27.894531v-65.785157c-.015625-15.398437-12.5-27.878906-27.898438-27.890624h-19.40625v-116.859376h19.40625c15.398438-.011718 27.882813-12.492187 27.898438-27.890624v-65.78125c-.015625-15.402344-12.496094-27.882813-27.898438-27.898438zm-307.132812 91.570312v-61.570312c.007812-5.519531 4.480469-9.992188 10-10h59.171875c5.519531.007812 9.992187 4.480469 10 10v61.570312c-.007813 5.523438-4.480469 9.996094-10 10h-59.171875c-5.519531-.003906-9.992188-4.476562-10-10zm79.171875 238.429688c-.007813 5.519531-4.480469 9.992188-10 10h-59.171875c-5.519531-.007812-9.992188-4.480469-10-10v-61.570312c.007812-5.523438 4.480469-9.996094 10-10h59.171875c5.519531.003906 9.992187 4.476562 10 10zm235.855469-63.679688v65.785157c-.003906 4.359375-3.539063 7.894531-7.898438 7.894531h-63.378906c-4.359375-.003906-7.890625-3.535156-7.894531-7.894531v-65.785157c.003906-4.355468 3.535156-7.890624 7.894531-7.890624h63.382812c4.359376 0 7.890626 3.53125 7.894532 7.890624zm-47.300782-27.890624h-23.976562c-15.398438.015624-27.875 12.492187-27.894531 27.890624v29.140626h-116.683594v-27.03125c-.019531-16.5625-13.4375-29.984376-30-30h-18.058594v-116.859376h18.054688c16.5625-.015624 29.980469-13.4375 30-30v-18.445312h116.6875v20.554688c.019531 15.398437 12.496093 27.875 27.894531 27.890624h23.976562zm47.300782-144.75c-.003906 4.359374-3.539063 7.890624-7.898438 7.890624h-63.378906c-4.359375 0-7.890625-3.535156-7.894531-7.890624v-65.78125c0-4.359376 3.535156-7.894532 7.894531-7.898438h63.382812c4.359376 0 7.894532 3.535156 7.898438 7.894531zm0 0" fill="url(#a)"/></svg>