<?xml version="1.0" encoding="utf-8"?>
<!-- Generator: Adobe Illustrator 19.0.0, SVG Export Plug-In . SVG Version: 6.00 Build 0)  -->
<svg xmlns="http://www.w3.org/2000/svg" xmlns:xlink="http://www.w3.org/1999/xlink" version="1.1" id="Layer_1" x="0px" y="0px" viewBox="0 2 98 98" style="enable-background:new 0 2 98 98;" xml:space="preserve" width="512" height="512">
<style type="text/css">
	.st0{fill:url(#SVGID_1_);}
</style>
<linearGradient id="SVGID_1_" gradientUnits="userSpaceOnUse" x1="49" y1="10.5999" x2="49" y2="91.4001">
	<stop offset="0" style="stop-color:#00EFD1"/>
	<stop offset="1" style="stop-color:#00ACEA"/>
</linearGradient>
<path class="st0" d="M91.6,48.5h-4.3V31.6c0-1.7-1.3-3-3-3h-7.2v-15c0-1.7-1.3-3-3-3H15.4c-6.6,0-12,5.4-12,12c0,0.2,0,0.5,0,0.7h0  v57.9c0,5.6,4.6,10.2,10.2,10.2h70.8c1.7,0,3-1.3,3-3V70.9h4.2c1.7,0,3-1.3,3-3V51.5C94.6,49.8,93.3,48.5,91.6,48.5z M15.4,16.6  h55.7v3.1H15.5c-1.7,0-3,1.3-3,3s1.3,3,3,3h55.6v2.9H15.4c-3.4,0-6-2.6-6-6S12,16.6,15.4,16.6z M81.4,85.4H13.6  c-2.4,0-4.2-1.8-4.2-4.2V33c1.8,1,3.8,1.6,6,1.6h65.9v13.9H68.9c-1.7,0-3,1.3-3,3v16.4c0,1.7,1.3,3,3,3h12.5V85.4z M88.6,64.9H71.9  V54.5h16.7V64.9z"/>
</svg>
