<?xml version="1.0" encoding="iso-8859-1"?>
<!-- Generator: Adobe Illustrator 19.0.0, SVG Export Plug-In . SVG Version: 6.00 Build 0)  -->
<svg version="1.1" id="Capa_1" xmlns="http://www.w3.org/2000/svg" xmlns:xlink="http://www.w3.org/1999/xlink" x="0px" y="0px"
	 viewBox="0 0 512 512" style="enable-background:new 0 0 512 512;" xml:space="preserve">
<linearGradient id="SVGID_1_" gradientUnits="userSpaceOnUse" x1="0" y1="258" x2="512" y2="258" gradientTransform="matrix(1 0 0 -1 0 514)">
	<stop  offset="0" style="stop-color:#80D8FF"/>
	<stop  offset="0.16" style="stop-color:#88D1FF"/>
	<stop  offset="0.413" style="stop-color:#9FBEFE"/>
	<stop  offset="0.725" style="stop-color:#C4A0FD"/>
	<stop  offset="1" style="stop-color:#EA80FC"/>
</linearGradient>
<path style="fill:url(#SVGID_1_);" d="M492,176h-32v-60c0-33.084-26.916-60-60-60H60C26.916,56,0,82.916,0,116v280
	c0,33.084,26.916,60,60,60h340c33.084,0,60-26.916,60-60v-60h32c11.046,0,20-8.954,20-20V196C512,184.954,503.046,176,492,176z
	 M420,396c0,11.028-8.972,20-20,20H60c-11.028,0-20-8.972-20-20V116c0-11.028,8.972-20,20-20h340c11.028,0,20,8.972,20,20v60h-80
	c-11.046,0-20,8.954-20,20v120c0,11.046,8.954,20,20,20h80V396z M472,296c-11.216,0-100.777,0-112,0v-80c11.223,0,100.784,0,112,0
	V296z M436,256c0,11.046-8.954,20-20,20s-20-8.954-20-20s8.954-20,20-20S436,244.954,436,256z"/>
<g>
</g>
<g>
</g>
<g>
</g>
<g>
</g>
<g>
</g>
<g>
</g>
<g>
</g>
<g>
</g>
<g>
</g>
<g>
</g>
<g>
</g>
<g>
</g>
<g>
</g>
<g>
</g>
<g>
</g>
</svg>
