<?xml version="1.0" encoding="iso-8859-1"?>
<!-- Generator: Adobe Illustrator 19.0.0, SVG Export Plug-In . SVG Version: 6.00 Build 0)  -->
<svg version="1.1" id="Capa_1" xmlns="http://www.w3.org/2000/svg" xmlns:xlink="http://www.w3.org/1999/xlink" x="0px" y="0px"
	 viewBox="0 0 480 480" style="enable-background:new 0 0 480 480;" xml:space="preserve">
<linearGradient id="SVGID_1_" gradientUnits="userSpaceOnUse" x1="-26.875" y1="537.7637" x2="-26.875" y2="593.1667" gradientTransform="matrix(8 0 0 -8 455.0001 4759.0986)">
	<stop  offset="0" style="stop-color:#006DF0"/>
	<stop  offset="1" style="stop-color:#00E7F0"/>
</linearGradient>
<path style="fill:url(#SVGID_1_);" d="M456,91.789h-8V44.197c-0.008-13.255-10.76-23.994-24.015-23.986
	c-1.417,0.001-2.831,0.127-4.225,0.377L22.584,91.917h-0.056C9.9,92.693,0.044,103.137,0,115.789v320c0,13.255,10.745,24,24,24h432
	c13.255,0,24-10.745,24-24v-320C480,102.534,469.255,91.789,456,91.789z M422.584,36.325c4.349-0.782,8.508,2.109,9.29,6.458
	c0.084,0.467,0.126,0.94,0.126,1.414v47.592H113.792L422.584,36.325z M456,443.789H24c-4.418,0-8-3.582-8-8v-320
	c0-4.418,3.582-8,8-8h432c4.418,0,8,3.582,8,8v104H328c-13.255,0-24,10.745-24,24v64c0,13.255,10.745,24,24,24h136v104
	C464,440.207,460.418,443.789,456,443.789z M464,315.789H328c-4.418,0-8-3.582-8-8v-64c0-4.418,3.582-8,8-8h136V315.789z"/>
<linearGradient id="SVGID_2_" gradientUnits="userSpaceOnUse" x1="-11.875" y1="537.7637" x2="-11.875" y2="593.1667" gradientTransform="matrix(8 0 0 -8 455.0001 4759.0986)">
	<stop  offset="0" style="stop-color:#006DF0"/>
	<stop  offset="1" style="stop-color:#00E7F0"/>
</linearGradient>
<path style="fill:url(#SVGID_2_);" d="M360,299.789c-13.255,0-24-10.745-24-24s10.745-24,24-24s24,10.745,24,24
	S373.255,299.789,360,299.789z M360,267.789c-4.418,0-8,3.582-8,8s3.582,8,8,8s8-3.582,8-8S364.418,267.789,360,267.789z"/>
<g>
</g>
<g>
</g>
<g>
</g>
<g>
</g>
<g>
</g>
<g>
</g>
<g>
</g>
<g>
</g>
<g>
</g>
<g>
</g>
<g>
</g>
<g>
</g>
<g>
</g>
<g>
</g>
<g>
</g>
</svg>
