<svg height="331pt" viewBox="0 -14 331.83612 331" width="331pt" xmlns="http://www.w3.org/2000/svg"><g fill="#1ae5be"><path d="m9.003906 81.019531c-3.679687 0-6.988281-2.238281-8.355468-5.652343-1.371094-3.410157-.527344-7.3125 2.132812-9.855469 21.949219-20.933594 47.800781-37.347657 76.082031-48.308594 27.734375-10.832031 57.207031-16.515625 86.980469-16.773437 62.253906-.625 120.25 21.652343 163.246094 62.753906 3.5625 3.441406 3.671875 9.109375.25 12.6875-3.417969 3.582031-9.089844 3.722656-12.6875.324218-39.027344-37.308593-91.589844-57.777343-148.214844-57.777343-.800781 0-1.601562 0-2.402344.011719-57.320312.585937-110.878906 21.925781-150.808594 60.09375-1.671874 1.605468-3.90625 2.5-6.222656 2.496093zm0 0"/><path d="m65.035156 150.882812c-3.675781 0-6.984375-2.238281-8.355468-5.648437-1.367188-3.414063-.523438-7.316406 2.136718-9.859375 28.890625-27.617188 67.164063-43.277344 107.128906-43.828125 40.625-.660156 78.652344 14.101563 107.136719 41.523437 2.332031 2.226563 3.296875 5.53125 2.527344 8.664063-.773437 3.132813-3.160156 5.613281-6.261719 6.5-3.101562.890625-6.441406.050781-8.753906-2.199219-25.03125-24.097656-58.554688-37.074218-94.363281-36.492187-35.429688.484375-69.363281 14.363281-94.976563 38.84375-1.671875 1.605469-3.902344 2.5-6.21875 2.496093zm0 0"/><path d="m118.636719 218.417969c-3.679688 0-6.984375-2.234375-8.355469-5.648438-1.367188-3.414062-.523438-7.316406 2.136719-9.859375 14.457031-13.746094 33.476562-21.679687 53.417969-22.28125 20.644531-.710937 39.839843 6.390625 54.03125 19.953125 2.34375 2.21875 3.320312 5.523438 2.5625 8.660157-.757813 3.136718-3.140626 5.625-6.238282 6.523437-3.101562.902344-6.445312.074219-8.765625-2.171875-10.660156-10.1875-25.210937-15.511719-40.984375-14.976562-15.503906.535156-30.285156 6.6875-41.589844 17.308593-1.671874 1.601563-3.898437 2.496094-6.214843 2.492188zm0 0"/></g><path d="m199.9375 270.417969c0-18.777344-15.222656-34-34-34s-34 15.222656-34 34c0 18.777343 15.222656 34 34 34 18.769531-.019531 33.976562-15.230469 34-34zm-34 16c-8.835938 0-16-7.164063-16-16 0-8.835938 7.164062-16 16-16s16 7.164062 16 16c-.011719 8.832031-7.167969 15.988281-16 16zm0 0" fill="#0635c9"/></svg>