<svg height="512pt" viewBox="0 0 512 512" width="512pt" xmlns="http://www.w3.org/2000/svg" xmlns:xlink="http://www.w3.org/1999/xlink"><linearGradient id="a" gradientTransform="matrix(1 0 0 -1 0 -22278)" gradientUnits="userSpaceOnUse" x1="0" x2="512" y1="-22534" y2="-22534"><stop offset="0" stop-color="#00f38d"/><stop offset="1" stop-color="#009eff"/></linearGradient><path d="m512 256c0 141.386719-114.613281 256-256 256s-256-114.613281-256-256 114.613281-256 256-256 256 114.613281 256 256zm0 0" fill="url(#a)"/><g fill="#fff"><path d="m281.265625 407.089844c0 14.402344-11.675781 26.082031-26.082031 26.082031-14.402344 0-26.078125-11.679687-26.078125-26.082031s11.675781-26.078125 26.078125-26.078125c14.40625 0 26.082031 11.675781 26.082031 26.078125zm0 0"/><path d="m440.253906 220.53125-10.226562-10.972656c-45.660156-48.992188-107.464844-75.972656-174.03125-75.96875-66.5625 0-128.363282 26.976562-174.023438 75.96875l-10.226562 10.972656-21.945313-20.457031 10.226563-10.972657c51.394531-55.140624 120.992187-85.511718 195.96875-85.511718 74.980468-.003906 144.578125 30.367187 195.976562 85.511718l10.226563 10.972657zm0 0"/><path d="m383.890625 285.914062-10.578125-10.636718c-32.332031-32.507813-73.996094-50.414063-117.316406-50.410156-43.328125 0-84.988282 17.902343-117.3125 50.410156l-10.578125 10.636718-21.269531-21.152343 10.574218-10.636719c37.996094-38.210938 87.210938-59.257812 138.585938-59.257812 51.363281-.003907 100.582031 21.042968 138.589844 59.257812l10.574218 10.636719zm0 0"/><path d="m321.300781 350.882812-10.613281-10.601562c-14.679688-14.664062-36.203125-24.136719-54.835938-24.136719-.003906 0-.003906 0-.007812 0h-1.136719s-.003906 0-.007812 0c-18.632813 0-40.15625 9.472657-54.835938 24.136719l-10.609375 10.601562-21.203125-21.226562 10.609375-10.601562c20.324219-20.300782 49.460938-32.910157 76.039063-32.910157h.011719 1.132812.011719c26.578125 0 55.710937 12.609375 76.035156 32.910157l10.613281 10.601562zm0 0"/></g></svg>