<svg height="331pt" viewBox="0 -14 331.868 331" width="331pt" xmlns="http://www.w3.org/2000/svg" xmlns:xlink="http://www.w3.org/1999/xlink"><linearGradient id="a"><stop offset=".322" stop-color="#a163f5"/><stop offset=".466" stop-color="#b074ee"/><stop offset=".752" stop-color="#d8a1dd"/><stop offset=".898" stop-color="#efbad3"/></linearGradient><linearGradient id="b" gradientUnits="userSpaceOnUse" x1="165.972205" x2="165.972205" xlink:href="#a" y1="385.24788" y2="-104.49012"/><linearGradient id="c" gradientUnits="userSpaceOnUse" x1="166.175205" x2="166.175205" xlink:href="#a" y1="385.24788" y2="-104.49012"/><path d="m165.878906.445312c-29.769531.257813-59.246094 5.941407-86.980468 16.773438-28.28125 10.960938-54.132813 27.375-76.082032 48.308594-2.34375 2.21875-3.324218 5.519531-2.5625 8.65625.757813 3.136718 3.136719 5.628906 6.238282 6.527344 3.097656.898437 6.441406.070312 8.761718-2.171876 39.929688-38.167968 93.488282-59.507812 150.808594-60.09375.800781-.007812 1.601562-.011718 2.402344-.011718 56.628906 0 109.191406 20.46875 148.21875 57.777344 3.597656 3.398437 9.269531 3.257812 12.691406-.320313 3.417969-3.582031 3.308594-9.25-.25-12.691406-42.996094-41.101563-100.992188-63.378907-163.246094-62.753907zm0 0" fill="url(#b)"/><path d="m165.980469 91.5625c-39.964844.550781-78.238281 16.210938-107.128907 43.828125-3.59375 3.4375-3.722656 9.132813-.289062 12.726563 3.4375 3.59375 9.132812 3.722656 12.726562.285156 25.617188-24.480469 59.550782-38.359375 94.984376-38.84375 35.804687-.582032 69.328124 12.390625 94.363281 36.492187 2.3125 2.25 5.652343 3.089844 8.75 2.199219 3.101562-.886719 5.492187-3.367188 6.261719-6.5.769531-3.132812-.195313-6.4375-2.527344-8.664062-28.488282-27.425782-66.515625-42.183594-107.140625-41.523438zm0 0" fill="url(#b)"/><path d="m165.871094 180.644531c-19.941406.601563-38.960938 8.535157-53.421875 22.285157-3.59375 3.433593-3.722657 9.128906-.285157 12.722656 3.433594 3.59375 9.128907 3.722656 12.722657.289062 11.308593-10.621094 26.089843-16.773437 41.589843-17.308594 15.773438-.535156 30.328126 4.789063 40.988282 14.976563 2.320312 2.246094 5.664062 3.074219 8.761718 2.175781 3.101563-.902344 5.480469-3.390625 6.238282-6.527344.761718-3.136718-.21875-6.441406-2.5625-8.65625-14.191406-13.566406-33.382813-20.667968-54.03125-19.957031zm0 0" fill="url(#c)"/><path d="m165.972656 236.433594c-18.777344 0-34 15.222656-34 34s15.222656 34 34 34 34-15.222656 34-34c-.019531-18.769532-15.230468-33.980469-34-34zm0 50c-8.835937 0-16-7.164063-16-16 0-8.835938 7.164063-16 16-16 8.835938 0 16 7.164062 16 16-.011718 8.832031-7.167968 15.992187-16 16zm0 0" fill="url(#b)"/></svg>