<?xml version="1.0" encoding="iso-8859-1"?>
<!-- Generator: Adobe Illustrator 19.0.0, SVG Export Plug-In . SVG Version: 6.00 Build 0)  -->
<svg version="1.1" id="Capa_1" xmlns="http://www.w3.org/2000/svg" xmlns:xlink="http://www.w3.org/1999/xlink" x="0px" y="0px"
	 viewBox="0 0 512 512" style="enable-background:new 0 0 512 512;" xml:space="preserve">
<linearGradient id="SVGID_1_" gradientUnits="userSpaceOnUse" x1="255.1261" y1="462.1323" x2="255.1261" y2="56.1313" gradientTransform="matrix(1.0029 0 0 -1.0029 0.1408 515.8764)">
	<stop  offset="0" style="stop-color:#2AF598"/>
	<stop  offset="1" style="stop-color:#009EFD"/>
</linearGradient>
<path style="fill:url(#SVGID_1_);" d="M254.997,395.4c17.724,0,32.092,14.368,32.092,32.092s-14.368,32.092-32.092,32.092
	s-32.092-14.368-32.092-32.092S237.273,395.4,254.997,395.4z M512,172.828l-13.675-14.672
	C434.772,89.968,348.711,52.415,255.997,52.416C163.284,52.417,77.226,89.97,13.675,158.155L0,172.828l29.345,27.35l13.675-14.673
	c55.88-59.954,131.517-92.973,212.976-92.974c81.463-0.001,157.102,33.019,212.983,92.974l13.675,14.673L512,172.828z
	 M441.813,252.354l-14.144-14.223c-47.07-47.329-108.039-73.394-171.674-73.393c-63.648,0.002-124.617,26.068-171.674,73.395
	l-14.143,14.224l28.447,28.284l14.143-14.224c39.472-39.699,90.338-61.562,143.228-61.564
	c52.878-0.001,103.744,21.864,143.228,61.566l14.145,14.222L441.813,252.354z M364.705,332.203l-14.191-14.175
	c-25.298-25.271-61.581-40.968-94.694-40.968c-0.004,0-0.011,0-0.015,0h-1.394c-0.006,0-0.009,0-0.015,0
	c-33.114,0-69.4,15.697-94.697,40.967l-14.191,14.176l28.35,28.381l14.191-14.175c17.78-17.76,43.821-29.234,66.35-29.234
	c0.003,0,0.006,0,0.009,0h1.4c0.004,0,0.005,0,0.009,0c22.526,0,48.569,11.475,66.347,29.233l14.19,14.176L364.705,332.203z"/>
<g>
</g>
<g>
</g>
<g>
</g>
<g>
</g>
<g>
</g>
<g>
</g>
<g>
</g>
<g>
</g>
<g>
</g>
<g>
</g>
<g>
</g>
<g>
</g>
<g>
</g>
<g>
</g>
<g>
</g>
</svg>
