<?xml version="1.0" encoding="iso-8859-1"?>
<!-- Generator: Adobe Illustrator 19.0.0, SVG Export Plug-In . SVG Version: 6.00 Build 0)  -->
<svg version="1.1" id="Capa_1" xmlns="http://www.w3.org/2000/svg" xmlns:xlink="http://www.w3.org/1999/xlink" x="0px" y="0px"
	 viewBox="0 0 58 58" style="enable-background:new 0 0 58 58;" xml:space="preserve">
<g>
	<path style="fill:#ECD361;" d="M55,16c-0.552,0-1,0.447-1,1s0.448,1,1,1h3v-2H55z"/>
	<path style="fill:#ECD361;" d="M54,20c0,0.553,0.448,1,1,1h3v-2h-3C54.448,19,54,19.447,54,20z"/>
	<path style="fill:#ECD361;" d="M54,23c0,0.553,0.448,1,1,1h3v-2h-3C54.448,22,54,22.447,54,23z"/>
	<path style="fill:#ECD361;" d="M54,26c0,0.553,0.448,1,1,1h3v-2h-3C54.448,25,54,25.447,54,26z"/>
	<path style="fill:#ECD361;" d="M54,29c0,0.553,0.448,1,1,1h3v-2h-3C54.448,28,54,28.447,54,29z"/>
	<path style="fill:#ECD361;" d="M54,32c0,0.553,0.448,1,1,1h3v-2h-3C54.448,31,54,31.447,54,32z"/>
	<path style="fill:#ECD361;" d="M54,35c0,0.553,0.448,1,1,1h3v-2h-3C54.448,34,54,34.447,54,35z"/>
	<path style="fill:#ECD361;" d="M54,38c0,0.553,0.448,1,1,1h3v-2h-3C54.448,37,54,37.447,54,38z"/>
	<path style="fill:#ECD361;" d="M54,41c0,0.553,0.448,1,1,1h3v-2h-3C54.448,40,54,40.447,54,41z"/>
</g>
<path style="fill:#5E5E60;" d="M55,16h3V4.499C58,2.014,55.986,0,53.501,0H46c0,2.209-1.791,4-4,4s-4-1.791-4-4H4.499
	C2.014,0,0,2.014,0,4.499V10h4v4H0v39.501C0,55.986,2.014,58,4.499,58H38c0-2.209,1.791-4,4-4s4,1.791,4,4h7.501
	C55.986,58,58,55.986,58,53.501V42h-3c-0.552,0-1-0.447-1-1s0.448-1,1-1h3v-1h-3c-0.552,0-1-0.447-1-1s0.448-1,1-1h3v-1h-3
	c-0.552,0-1-0.447-1-1s0.448-1,1-1h3v-1h-3c-0.552,0-1-0.447-1-1s0.448-1,1-1h3v-1h-3c-0.552,0-1-0.447-1-1s0.448-1,1-1h3v-1h-3
	c-0.552,0-1-0.447-1-1s0.448-1,1-1h3v-1h-3c-0.552,0-1-0.447-1-1s0.448-1,1-1h3v-1h-3c-0.552,0-1-0.447-1-1s0.448-1,1-1h3v-1h-3
	c-0.552,0-1-0.447-1-1S54.448,16,55,16z M4,55c-0.552,0-1-0.448-1-1s0.448-1,1-1s1,0.448,1,1S4.552,55,4,55z M4,5
	C3.448,5,3,4.552,3,4s0.448-1,1-1s1,0.448,1,1S4.552,5,4,5z M55,54c0,0.552-0.448,1-1,1s-1-0.448-1-1s0.448-1,1-1S55,53.448,55,54z
	 M53,4c0-0.552,0.448-1,1-1s1,0.448,1,1s-0.448,1-1,1S53,4.552,53,4z"/>
<path style="fill:#38454F;" d="M15,39.643V18.357C15,16.503,16.503,15,18.357,15h21.285C41.497,15,43,16.503,43,18.357v21.285
	C43,41.497,41.497,43,39.643,43H18.357C16.503,43,15,41.497,15,39.643z"/>
<g>
	<path style="fill:#ECD361;" d="M11,22H8c-0.552,0-1,0.447-1,1s0.448,1,1,1h3c0.552,0,1-0.447,1-1S11.552,22,11,22z"/>
	<path style="fill:#ECD361;" d="M11,34H8c-0.552,0-1,0.447-1,1s0.448,1,1,1h3c0.552,0,1-0.447,1-1S11.552,34,11,34z"/>
	<path style="fill:#ECD361;" d="M11,30H8c-0.552,0-1,0.447-1,1s0.448,1,1,1h3c0.552,0,1-0.447,1-1S11.552,30,11,30z"/>
	<path style="fill:#ECD361;" d="M11,26H8c-0.552,0-1,0.447-1,1s0.448,1,1,1h3c0.552,0,1-0.447,1-1S11.552,26,11,26z"/>
	<path style="fill:#ECD361;" d="M47,24h3c0.552,0,1-0.447,1-1s-0.448-1-1-1h-3c-0.552,0-1,0.447-1,1S46.448,24,47,24z"/>
	<path style="fill:#ECD361;" d="M50,34h-3c-0.552,0-1,0.447-1,1s0.448,1,1,1h3c0.552,0,1-0.447,1-1S50.552,34,50,34z"/>
	<path style="fill:#ECD361;" d="M50,30h-3c-0.552,0-1,0.447-1,1s0.448,1,1,1h3c0.552,0,1-0.447,1-1S50.552,30,50,30z"/>
	<path style="fill:#ECD361;" d="M50,26h-3c-0.552,0-1,0.447-1,1s0.448,1,1,1h3c0.552,0,1-0.447,1-1S50.552,26,50,26z"/>
	<path style="fill:#ECD361;" d="M35,7c-0.552,0-1,0.447-1,1v3c0,0.553,0.448,1,1,1s1-0.447,1-1V8C36,7.447,35.552,7,35,7z"/>
	<path style="fill:#ECD361;" d="M23,7c-0.552,0-1,0.447-1,1v3c0,0.553,0.448,1,1,1s1-0.447,1-1V8C24,7.447,23.552,7,23,7z"/>
	<path style="fill:#ECD361;" d="M27,7c-0.552,0-1,0.447-1,1v3c0,0.553,0.448,1,1,1s1-0.447,1-1V8C28,7.447,27.552,7,27,7z"/>
	<path style="fill:#ECD361;" d="M31,7c-0.552,0-1,0.447-1,1v3c0,0.553,0.448,1,1,1s1-0.447,1-1V8C32,7.447,31.552,7,31,7z"/>
	<path style="fill:#ECD361;" d="M35,46c-0.552,0-1,0.447-1,1v3c0,0.553,0.448,1,1,1s1-0.447,1-1v-3C36,46.447,35.552,46,35,46z"/>
	<path style="fill:#ECD361;" d="M23,46c-0.552,0-1,0.447-1,1v3c0,0.553,0.448,1,1,1s1-0.447,1-1v-3C24,46.447,23.552,46,23,46z"/>
	<path style="fill:#ECD361;" d="M27,46c-0.552,0-1,0.447-1,1v3c0,0.553,0.448,1,1,1s1-0.447,1-1v-3C28,46.447,27.552,46,27,46z"/>
	<path style="fill:#ECD361;" d="M31,46c-0.552,0-1,0.447-1,1v3c0,0.553,0.448,1,1,1s1-0.447,1-1v-3C32,46.447,31.552,46,31,46z"/>
</g>
<circle style="fill:#ECD361;" cx="3" cy="36" r="1"/>
<circle style="fill:#ECD361;" cx="3" cy="40" r="1"/>
<circle style="fill:#ECD361;" cx="3" cy="44" r="1"/>
<circle style="fill:#ECD361;" cx="3" cy="48" r="1"/>
<g>
	<circle style="fill:#546A79;" cx="37" cy="38" r="1"/>
	<circle style="fill:#546A79;" cx="33" cy="38" r="1"/>
	<circle style="fill:#546A79;" cx="35" cy="35" r="1"/>
	<circle style="fill:#546A79;" cx="29" cy="38" r="1"/>
	<circle style="fill:#546A79;" cx="25" cy="38" r="1"/>
	<circle style="fill:#546A79;" cx="31" cy="35" r="1"/>
	<circle style="fill:#546A79;" cx="27" cy="35" r="1"/>
	<circle style="fill:#546A79;" cx="21" cy="38" r="1"/>
	<circle style="fill:#546A79;" cx="23" cy="35" r="1"/>
	<circle style="fill:#546A79;" cx="37" cy="32" r="1"/>
	<circle style="fill:#546A79;" cx="33" cy="32" r="1"/>
	<circle style="fill:#546A79;" cx="35" cy="29" r="1"/>
	<circle style="fill:#546A79;" cx="29" cy="32" r="1"/>
	<circle style="fill:#546A79;" cx="25" cy="32" r="1"/>
	<circle style="fill:#546A79;" cx="31" cy="29" r="1"/>
	<circle style="fill:#546A79;" cx="27" cy="29" r="1"/>
	<circle style="fill:#546A79;" cx="21" cy="32" r="1"/>
	<circle style="fill:#546A79;" cx="23" cy="29" r="1"/>
	<circle style="fill:#546A79;" cx="37" cy="26" r="1"/>
	<circle style="fill:#546A79;" cx="33" cy="26" r="1"/>
	<circle style="fill:#546A79;" cx="35" cy="23" r="1"/>
	<circle style="fill:#546A79;" cx="29" cy="26" r="1"/>
	<circle style="fill:#546A79;" cx="25" cy="26" r="1"/>
	<circle style="fill:#546A79;" cx="31" cy="23" r="1"/>
	<circle style="fill:#546A79;" cx="27" cy="23" r="1"/>
	<circle style="fill:#546A79;" cx="21" cy="26" r="1"/>
	<circle style="fill:#546A79;" cx="23" cy="23" r="1"/>
	<circle style="fill:#546A79;" cx="37" cy="20" r="1"/>
	<circle style="fill:#546A79;" cx="33" cy="20" r="1"/>
	<circle style="fill:#546A79;" cx="29" cy="20" r="1"/>
	<circle style="fill:#546A79;" cx="25" cy="20" r="1"/>
	<circle style="fill:#546A79;" cx="21" cy="20" r="1"/>
</g>
<circle style="fill:#ECD361;" cx="10" cy="55" r="1"/>
<circle style="fill:#ECD361;" cx="14" cy="55" r="1"/>
<circle style="fill:#ECD361;" cx="18" cy="55" r="1"/>
<circle style="fill:#ECD361;" cx="22" cy="55" r="1"/>
<rect x="21" y="11" style="fill:#CBD4D8;" width="16" height="4"/>
<rect x="21" y="43" style="fill:#CBD4D8;" width="16" height="4"/>
<rect x="43" y="21" style="fill:#CBD4D8;" width="4" height="16"/>
<rect x="11" y="21" style="fill:#CBD4D8;" width="4" height="16"/>
<g>
</g>
<g>
</g>
<g>
</g>
<g>
</g>
<g>
</g>
<g>
</g>
<g>
</g>
<g>
</g>
<g>
</g>
<g>
</g>
<g>
</g>
<g>
</g>
<g>
</g>
<g>
</g>
<g>
</g>
</svg>
