<svg height="496pt" viewBox="-24 0 496 496" width="496pt" xmlns="http://www.w3.org/2000/svg" xmlns:xlink="http://www.w3.org/1999/xlink"><linearGradient id="a" gradientUnits="userSpaceOnUse" x1="224" x2="224" y1="496" y2="0"><stop offset="0" stop-color="#9f2fff"/><stop offset="1" stop-color="#0bb1d3"/></linearGradient><path d="m120 128c-48.519531 0-88 39.480469-88 88s39.480469 88 88 88 88-39.480469 88-88-39.480469-88-88-88zm0 160c-39.703125 0-72-32.296875-72-72s32.296875-72 72-72 72 32.296875 72 72-32.296875 72-72 72zm328-200v-64c0-13.230469-10.769531-24-24-24h-304c-13.230469 0-24 10.769531-24 24v74.414062c-54.710938 11.152344-96 59.632813-96 117.585938 0 52.128906 33.464844 96.472656 80 113v23h-16v16h16v88c0 22.054688 17.945312 40 40 40s40-17.945312 40-40v-56h264c13.230469 0 24-10.769531 24-24v-64c0-13.230469-10.769531-24-24-24v-32c13.230469 0 24-10.769531 24-24v-64c0-13.230469-10.769531-24-24-24v-32c13.230469 0 24-10.769531 24-24zm-336-64c0-4.414062 3.585938-8 8-8h216v80h-208v.40625c-2.65625-.175781-5.296875-.40625-8-.40625s-5.34375.230469-8 .40625zm296 88v32h-192.222656c-9.761719-12.953125-22.042969-23.871094-36.160156-32zm-264 344c0 13.230469-10.769531 24-24 24s-24-10.769531-24-24v-88h48zm0-104h-48v-18.414062c7.761719 1.574218 15.785156 2.414062 24 2.414062s16.238281-.839844 24-2.414062zm-24-32c-57.34375 0-104-46.65625-104-104s46.65625-104 104-104 104 46.65625 104 104-46.65625 104-104 104zm113-64h175v32h-192.222656c7.269531-9.648438 13.101562-20.40625 17.222656-32zm103 128h-176v-16h16v-16h-16v-23c15.480469-5.496094 29.480469-14.0625 41.3125-25h134.6875zm96-72v64c0 4.414062-3.585938 8-8 8h-72v-80h72c4.414062 0 8 3.585938 8 8zm0-144v64c0 4.414062-3.585938 8-8 8h-186.414062c1.574218-7.761719 2.414062-15.785156 2.414062-24 0-20.222656-5.070312-39.265625-13.945312-56h197.945312c4.414062 0 8 3.585938 8 8zm-80-72v-80h72c4.414062 0 8 3.585938 8 8v64c0 4.414062-3.585938 8-8 8zm40-64c-13.230469 0-24 10.769531-24 24s10.769531 24 24 24 24-10.769531 24-24-10.769531-24-24-24zm0 32c-4.414062 0-8-3.585938-8-8s3.585938-8 8-8 8 3.585938 8 8-3.585938 8-8 8zm-72 0h-192v-16h192zm-64 128h160v16h-160zm136 128c-13.230469 0-24 10.769531-24 24s10.769531 24 24 24 24-10.769531 24-24-10.769531-24-24-24zm0 32c-4.414062 0-8-3.585938-8-8s3.585938-8 8-8 8 3.585938 8 8-3.585938 8-8 8zm-200-16h128v16h-128zm0 0" fill="url(#a)"/></svg>