<svg height="512pt" viewBox="0 0 512 512" width="512pt" xmlns="http://www.w3.org/2000/svg"><path d="m512 79.660156h-63.726562l-20 83.726563 83.726562-20zm0 0" fill="#00cc76"/><path d="m512 143.386719h-63.726562l-20 83.726562 83.726562-20zm0 0" fill="#ffeb99"/><path d="m448.273438 207.113281-20 83.726563 83.726562-19.996094v-63.730469zm0 0" fill="#4895ff"/><path d="m448.273438 334.570312h63.726562v-63.726562h-83.726562zm0 0" fill="#ff4c04"/><path d="m448.273438 0h-200.238282l-20 255.765625 20 255.769531h200.238282zm0 0" fill="#ff9f22"/><path d="m47.796875 0h200.238281v511.535156h-200.238281zm0 0" fill="#ffd422"/><g fill="#3f4a4a"><path d="m0 48.742188h95.589844v29.972656h-95.589844zm0 0"/><path d="m0 144.761719h95.589844v29.972656h-95.589844zm0 0"/><path d="m0 240.78125h95.589844v29.972656h-95.589844zm0 0"/><path d="m0 336.800781h95.589844v29.972657h-95.589844zm0 0"/><path d="m0 432.820312h95.589844v29.972657h-95.589844zm0 0"/></g></svg>