<svg height="512pt" viewBox="0 -46 512 512" width="512pt" xmlns="http://www.w3.org/2000/svg"><path d="m61 0v330h451v-330zm0 0" fill="#93bf00"/><path d="m286 0h226v330h-226zm0 0" fill="#81a713"/><path d="m0 90v330h451v-330zm0 0" fill="#4a696f"/><path d="m226 90h225v330h-225zm0 0" fill="#3e5959"/><path d="m30 120h391v270h-391zm0 0" fill="#ececf1"/><path d="m226 120h195v270h-195zm0 0" fill="#e2e2e7"/><path d="m136 270c-41.398438 0-75 33.601562-75 75v15h150v-15c0-41.398438-33.601562-75-75-75zm0 0" fill="#979fef"/><path d="m136 150c-33 0-60 27-60 60s27 60 60 60 60-27 60-60-27-60-60-60zm0 0" fill="#979fef"/><g fill="#384949"><path d="m241 180h30v30h-30zm0 0"/><path d="m241 240h30v30h-30zm0 0"/><path d="m241 300h30v30h-30zm0 0"/><path d="m301 180h90v30h-90zm0 0"/><path d="m301 240h90v30h-90zm0 0"/><path d="m301 300h90v30h-90zm0 0"/></g><path d="m196 210c0 33-27 60-60 60v-120c33 0 60 27 60 60zm0 0" fill="#7984eb"/><path d="m211 345v15h-75v-90c41.398438 0 75 33.601562 75 75zm0 0" fill="#7984eb"/></svg>