<svg xmlns="http://www.w3.org/2000/svg" height="512pt" version="1.1" viewBox="0 -46 512.00064 512" width="512pt">
<g id="surface1">
<path d="M 505.953125 287.972656 L 433.960938 383.964844 C 417.164062 406.460938 390.164062 419.960938 361.964844 419.960938 L 59.996094 419.960938 L 29.996094 344.96875 L 59.996094 269.972656 L 100.992188 269.972656 L 142.6875 233.378906 C 166.382812 212.378906 197.582031 203.980469 226.980469 208.480469 C 246.476562 211.179688 265.375 219.582031 281.273438 233.378906 C 284.273438 236.078125 287.574219 238.476562 291.175781 239.976562 L 361.964844 239.976562 C 378.464844 239.976562 391.964844 253.476562 391.964844 269.972656 C 391.964844 286.472656 378.464844 299.972656 361.964844 299.972656 L 256.976562 299.972656 C 248.578125 299.972656 241.976562 306.570312 241.976562 314.96875 C 241.976562 323.371094 248.578125 329.96875 256.976562 329.96875 C 256.976562 329.96875 367.964844 329.96875 371.867188 329.96875 C 380.265625 329.96875 388.367188 326.371094 394.066406 320.371094 L 460.058594 249.578125 C 469.957031 238.777344 486.15625 236.980469 498.453125 244.777344 C 512.855469 254.375 516.453125 274.175781 505.953125 287.972656 Z M 505.953125 287.972656 " style=" stroke:none;fill-rule:nonzero;fill:rgb(77.647059%,44.313725%,35.294118%);fill-opacity:1;" />
<path d="M 505.953125 287.972656 L 433.960938 383.964844 C 417.164062 406.460938 390.164062 419.960938 361.964844 419.960938 L 226.980469 419.960938 L 226.980469 208.480469 C 246.476562 211.179688 265.375 219.578125 281.273438 233.378906 C 284.273438 236.078125 287.574219 238.476562 291.175781 239.976562 L 361.964844 239.976562 C 378.464844 239.976562 391.964844 253.476562 391.964844 269.972656 C 391.964844 286.472656 378.464844 299.972656 361.964844 299.972656 L 256.976562 299.972656 C 248.578125 299.972656 241.976562 306.570312 241.976562 314.96875 C 241.976562 323.371094 248.578125 329.96875 256.976562 329.96875 C 256.976562 329.96875 367.964844 329.96875 371.867188 329.96875 C 380.265625 329.96875 388.367188 326.367188 394.066406 320.367188 L 460.058594 249.574219 C 469.957031 238.777344 486.15625 236.976562 498.453125 244.773438 C 512.855469 254.375 516.453125 274.175781 505.953125 287.972656 Z M 505.953125 287.972656 " style=" stroke:none;fill-rule:nonzero;fill:rgb(70.196078%,37.254902%,28.627451%);fill-opacity:1;" />
<path d="M 466.957031 29.996094 C 458.558594 29.996094 451.957031 36.597656 451.957031 44.996094 L 451.957031 74.992188 L 421.960938 74.992188 L 421.960938 44.996094 C 421.960938 36.597656 415.363281 29.996094 406.960938 29.996094 C 398.5625 29.996094 391.964844 36.597656 391.964844 44.996094 L 391.964844 74.992188 L 301.972656 74.992188 C 301.972656 33.597656 268.375 0 226.980469 0 C 185.582031 0 151.984375 33.597656 151.984375 74.992188 L 151.984375 104.992188 C 151.984375 146.386719 185.582031 179.984375 226.980469 179.984375 C 268.375 179.984375 301.972656 146.386719 301.972656 104.992188 L 466.957031 104.992188 C 475.355469 104.992188 481.957031 98.390625 481.957031 89.992188 L 481.957031 44.996094 C 481.957031 36.597656 475.355469 29.996094 466.957031 29.996094 Z M 241.976562 104.992188 C 241.976562 113.390625 235.378906 119.988281 226.980469 119.988281 C 218.578125 119.988281 211.980469 113.390625 211.980469 104.992188 L 211.980469 74.992188 C 211.980469 66.59375 218.578125 59.996094 226.980469 59.996094 C 235.378906 59.996094 241.976562 66.59375 241.976562 74.992188 Z M 241.976562 104.992188 " style=" stroke:none;fill-rule:nonzero;fill:rgb(100%,83.137255%,0%);fill-opacity:1;" />
<path d="M 59.996094 419.960938 L 15 419.960938 C 6.714844 419.960938 0 413.246094 0 404.964844 L 0 284.972656 C 0 276.691406 6.714844 269.976562 15 269.976562 L 59.996094 269.976562 Z M 59.996094 419.960938 " style=" stroke:none;fill-rule:nonzero;fill:rgb(40.784314%,32.941176%,30.980392%);fill-opacity:1;" />
<path d="M 481.957031 44.996094 L 481.957031 89.992188 C 481.957031 98.390625 475.355469 104.992188 466.957031 104.992188 L 301.972656 104.992188 C 301.972656 146.386719 268.375 179.984375 226.980469 179.984375 L 226.980469 119.988281 C 235.378906 119.988281 241.976562 113.390625 241.976562 104.992188 L 241.976562 74.992188 C 241.976562 66.59375 235.378906 59.996094 226.980469 59.996094 L 226.980469 0 C 268.375 0 301.972656 33.597656 301.972656 74.992188 L 391.964844 74.992188 L 391.964844 44.996094 C 391.964844 36.597656 398.5625 29.996094 406.960938 29.996094 C 415.363281 29.996094 421.960938 36.597656 421.960938 44.996094 L 421.960938 74.992188 L 451.957031 74.992188 L 451.957031 44.996094 C 451.957031 36.597656 458.558594 29.996094 466.957031 29.996094 C 475.355469 29.996094 481.957031 36.597656 481.957031 44.996094 Z M 481.957031 44.996094 " style=" stroke:none;fill-rule:nonzero;fill:rgb(99.215686%,74.901961%,0%);fill-opacity:1;" />
</g>
</svg>