<svg height="512pt" viewBox="0 -12 512 511" width="512pt" xmlns="http://www.w3.org/2000/svg"><path d="m81.261719 260.765625 13.3125 59.734375h323.378906l13.320313-59.734375 24.722656-110.933594h-399.460938zm0 0" fill="#7f6e5d"/><path d="m437.332031 201.035156-13.046875 59.730469h-342.972656l-13.046875-59.730469zm0 0" fill="#af8066"/><path d="m110.933594 320.5h-42.667969l-34.132813-170.667969h42.667969l10.238281 51.203125 11.949219 59.730469zm0 0" fill="#cb8252"/><path d="m477.867188 149.832031-34.132813 170.667969h-42.667969l11.945313-59.734375 11.949219-59.730469 10.238281-51.203125zm0 0" fill="#cb8252"/><path d="m17.066406 111.433594h477.867188c4.710937 0 8.53125 3.820312 8.53125 8.53125v25.601562c0 4.714844-3.820313 8.535156-8.53125 8.535156h-477.867188c-4.710937 0-8.53125-3.820312-8.53125-8.535156v-25.601562c0-4.710938 3.820313-8.53125 8.53125-8.53125zm0 0" fill="#805333"/><path d="m165.394531 60.234375h-57.722656c-3.230469 0-6.183594 1.828125-7.628906 4.71875l-17.066407 34.132813c-1.320312 2.644531-1.179687 5.785156.375 8.300781 1.554688 2.511719 4.300782 4.046875 7.253907 4.046875h91.855469c2.957031 0 5.699218-1.535156 7.253906-4.046875 1.554687-2.515625 1.695312-5.65625.375-8.300781l-17.066406-34.132813c-1.445313-2.890625-4.398438-4.71875-7.628907-4.71875zm0 0" fill="#f0c419"/><path d="m404.328125 60.234375h-57.722656c-3.230469 0-6.183594 1.828125-7.628907 4.71875l-17.066406 34.132813c-1.320312 2.644531-1.179687 5.785156.375 8.300781 1.554688 2.511719 4.296875 4.046875 7.253906 4.046875h91.855469c2.953125 0 5.699219-1.535156 7.253907-4.046875 1.554687-2.515625 1.695312-5.65625.375-8.300781l-17.066407-34.132813c-1.445312-2.890625-4.398437-4.71875-7.628906-4.71875zm0 0" fill="#f29c1f"/><path d="m284.859375 60.234375h-57.71875c-3.230469 0-6.183594 1.828125-7.628906 4.71875l-17.066407 34.132813c-1.320312 2.644531-1.179687 5.785156.375 8.300781 1.550782 2.511719 4.296876 4.046875 7.253907 4.046875h91.851562c2.957031 0 5.703125-1.535156 7.253907-4.046875 1.554687-2.515625 1.695312-5.65625.375-8.300781l-17.066407-34.132813c-1.445312-2.890625-4.398437-4.71875-7.628906-4.71875zm0 0" fill="#f0c419"/><path d="m228.394531.5h-57.726562c-3.417969.140625-6.417969 2.308594-7.628907 5.503906l-17.066406 39.824219c-1.46875 2.890625-1.4375 6.316406.082032 9.179687 1.515624 2.863282 4.332031 4.8125 7.546874 5.226563h91.859376c3.214843-.414063 6.027343-2.363281 7.546874-5.226563 1.519532-2.863281 1.550782-6.285156.089844-9.179687l-17.066406-39.824219c-1.210938-3.199218-4.21875-5.367187-7.636719-5.503906zm0 0" fill="#f29c1f"/><path d="m341.332031.5h-57.726562c-3.417969.136719-6.425781 2.304688-7.636719 5.503906l-17.066406 39.824219c-1.460938 2.894531-1.429688 6.316406.089844 9.179687 1.519531 2.863282 4.332031 4.8125 7.546874 5.226563h91.859376c3.214843-.414063 6.03125-2.363281 7.546874-5.226563 1.519532-2.863281 1.550782-6.289062.082032-9.179687l-17.066406-39.824219c-1.210938-3.195312-4.210938-5.363281-7.628907-5.503906zm0 0" fill="#f0c419"/><path d="m8.535156 375.964844c-4.714844 0-8.535156-3.820313-8.535156-8.53125v-34.132813c0-4.714843 3.820312-8.535156 8.535156-8.535156 4.710938 0 8.53125 3.820313 8.53125 8.535156v8.53125h25.601563c4.710937 0 8.53125 3.820313 8.53125 8.535157 0 4.710937-3.820313 8.53125-8.53125 8.53125h-25.601563v8.535156c0 4.710937-3.820312 8.53125-8.53125 8.53125zm0 0" fill="#5e5f62"/><path d="m503.464844 375.964844c-4.710938 0-8.53125-3.820313-8.53125-8.53125v-8.535156h-25.601563c-4.710937 0-8.53125-3.820313-8.53125-8.53125 0-4.714844 3.820313-8.535157 8.53125-8.535157h25.601563v-8.53125c0-4.714843 3.820312-8.535156 8.53125-8.535156 4.714844 0 8.535156 3.820313 8.535156 8.535156v34.132813c0 4.710937-3.820312 8.53125-8.535156 8.53125zm0 0" fill="#5e5f62"/><path d="m51.199219 316.234375h409.601562c4.710938 0 8.53125 3.820313 8.53125 8.53125v51.199219c0 4.714844-3.820312 8.535156-8.53125 8.535156h-409.601562c-4.710938 0-8.53125-3.820312-8.53125-8.535156v-51.199219c0-4.710937 3.820312-8.53125 8.53125-8.53125zm0 0" fill="#805333"/><path d="m147.710938 444.234375c17.898437-11.789063 26.570312-33.46875 21.742187-54.347656-4.828125-20.878907-22.136719-36.550781-43.390625-39.285157-21.257812-2.734374-41.96875 8.042969-51.925781 27.019532-9.957031 18.976562-7.058594 42.144531 7.269531 58.078125l29.527344 25.601562zm0 0" fill="#a5a5a4"/><path d="m430.59375 435.699219c8.480469-9.339844 13.167969-21.515625 13.140625-34.132813.015625-24.460937-17.269531-45.519531-41.265625-50.265625-23.996094-4.746093-48 8.144531-57.292969 30.769531-9.296875 22.628907-1.289062 48.667969 19.113281 62.164063l41.574219 10.136719zm0 0" fill="#a5a5a4"/><path d="m119.464844 410.101562c-2.261719-.019531-4.429688-.90625-6.058594-2.476562-1.554688-1.636719-2.441406-3.800781-2.472656-6.058594.019531-.570312.074218-1.140625.171875-1.707031.089843-.535156.265625-1.050781.511719-1.535156.183593-.542969.445312-1.0625.765624-1.535157l1.023438-1.28125 1.28125-1.023437c.476562-.324219.992188-.582031 1.535156-.769531.484375-.246094 1.003906-.417969 1.539063-.511719 2.804687-.515625 5.691406.339844 7.761719 2.304687 2.070312 1.996094 2.980468 4.910157 2.410156 7.726563-.570313 2.820313-2.542969 5.148437-5.222656 6.183594-1.027344.4375-2.128907.667969-3.246094.683593zm0 0" fill="#5e5f62"/><path d="m392.535156 410.101562c-2.265625-.019531-4.433594-.90625-6.058594-2.476562-1.558593-1.636719-2.445312-3.800781-2.476562-6.058594.019531-.570312.074219-1.140625.171875-1.707031.089844-.535156.265625-1.050781.511719-1.535156.1875-.542969.445312-1.0625.765625-1.535157l1.027343-1.28125 1.277344-1.023437c.476563-.324219.992188-.582031 1.535156-.769531.484376-.246094 1.003907-.417969 1.539063-.511719 2.804687-.515625 5.691406.339844 7.765625 2.304687 2.066406 1.996094 2.976562 4.910157 2.40625 7.726563-.570312 2.820313-2.542969 5.148437-5.222656 6.183594-1.027344.4375-2.128906.667969-3.242188.683593zm0 0" fill="#5e5f62"/><path d="m42.667969 444.234375h-17.066407c-4.527343-.023437-8.871093 1.792969-12.035156 5.035156-3.238281 3.160157-5.058594 7.503907-5.03125 12.03125.027344 9.414063 7.652344 17.039063 17.066406 17.066407h460.796876c9.398437-.070313 17-7.671876 17.066406-17.066407-.027344-9.414062-7.652344-17.039062-17.066406-17.066406zm0 0" fill="#bdc3c7"/><g fill="#805333"><path d="m51.199219 435.699219h51.199219c4.714843 0 8.535156 3.820312 8.535156 8.535156v34.132813c0 4.710937-3.820313 8.53125-8.535156 8.53125h-51.199219c-4.710938 0-8.53125-3.820313-8.53125-8.53125v-34.132813c0-4.714844 3.820312-8.535156 8.53125-8.535156zm0 0"/><path d="m170.667969 435.699219h51.199219c4.710937 0 8.53125 3.820312 8.53125 8.535156v34.132813c0 4.710937-3.820313 8.53125-8.53125 8.53125h-51.199219c-4.714844 0-8.535157-3.820313-8.535157-8.53125v-34.132813c0-4.714844 3.820313-8.535156 8.535157-8.535156zm0 0"/><path d="m290.132812 435.699219h51.199219c4.714844 0 8.535157 3.820312 8.535157 8.535156v34.132813c0 4.710937-3.820313 8.53125-8.535157 8.53125h-51.199219c-4.710937 0-8.53125-3.820313-8.53125-8.53125v-34.132813c0-4.714844 3.820313-8.535156 8.53125-8.535156zm0 0"/><path d="m409.601562 435.699219h51.199219c4.710938 0 8.53125 3.820312 8.53125 8.535156v34.132813c0 4.710937-3.820312 8.53125-8.53125 8.53125h-51.199219c-4.714843 0-8.535156-3.820313-8.535156-8.53125v-34.132813c0-4.714844 3.820313-8.535156 8.535156-8.535156zm0 0"/></g></svg>