<svg xmlns="http://www.w3.org/2000/svg" height="512pt" version="1.1" viewBox="-69 0 512 512" width="512pt">
<g id="surface1">
<path d="M 319.433594 287.730469 L 319.433594 446.011719 C 319.433594 448.289062 318.132812 450.351562 316.125 451.378906 L 288.523438 464.53125 L 190.144531 511.410156 C 189.324219 511.800781 188.441406 512 187.5625 512 C 186.683594 512 185.804688 511.800781 184.984375 511.410156 L 59.125 451.429688 C 57.035156 450.429688 55.703125 448.328125 55.703125 446.011719 L 55.703125 287.730469 C 55.703125 286.53125 56.0625 285.378906 56.703125 284.421875 C 57.285156 283.519531 58.125 282.789062 59.125 282.308594 L 184.984375 222.328125 C 185.804688 221.941406 186.683594 221.738281 187.5625 221.738281 C 188.441406 221.738281 189.324219 221.941406 190.144531 222.328125 L 316.023438 282.308594 C 317.023438 282.800781 317.84375 283.53125 318.433594 284.421875 C 319.074219 285.378906 319.433594 286.53125 319.433594 287.730469 Z M 319.433594 287.730469 " style=" stroke:none;fill-rule:nonzero;fill:rgb(40.784314%,36.078431%,47.45098%);fill-opacity:1;" />
<path d="M 319.433594 287.730469 L 319.433594 446.011719 C 319.433594 448.289062 318.132812 450.351562 316.125 451.378906 L 288.523438 464.53125 L 190.144531 511.410156 C 189.324219 511.800781 188.441406 512 187.5625 512 L 187.5625 221.738281 C 188.441406 221.738281 189.324219 221.941406 190.144531 222.328125 L 316.023438 282.308594 C 317.023438 282.800781 317.84375 283.53125 318.433594 284.421875 C 319.074219 285.378906 319.433594 286.53125 319.433594 287.730469 Z M 319.433594 287.730469 " style=" stroke:none;fill-rule:nonzero;fill:rgb(34.901961%,30.980392%,41.176471%);fill-opacity:1;" />
<path d="M 214.121094 0 L 160.554688 0 C 158.277344 0 156.433594 1.84375 156.433594 4.121094 L 156.433594 440.402344 L 218.242188 440.402344 L 218.242188 4.121094 C 218.238281 1.84375 216.394531 0 214.121094 0 Z M 214.121094 0 " style=" stroke:none;fill-rule:nonzero;fill:rgb(100%,83.921569%,34.901961%);fill-opacity:1;" />
<path d="M 187.335938 440.402344 L 187.335938 4.121094 C 187.335938 1.84375 185.492188 0 183.214844 0 L 214.121094 0 C 216.394531 0 218.242188 1.84375 218.242188 4.121094 L 218.242188 440.402344 Z M 187.335938 440.402344 " style=" stroke:none;fill-rule:nonzero;fill:rgb(100%,74.117647%,32.941176%);fill-opacity:1;" />
<path d="M 2.121094 92.019531 C 23.171875 90.253906 101.816406 84.605469 150.332031 86.351562 L 150.332031 42.433594 C 143.707031 43.457031 43.285156 52.078125 0.726562 88.367188 C -0.765625 89.640625 0.210938 92.179688 2.121094 92.019531 Z M 2.121094 92.019531 " style=" stroke:none;fill-rule:nonzero;fill:rgb(67.843137%,90.588235%,100%);fill-opacity:1;" />
<path d="M 374.296875 88.691406 C 322.71875 42.433594 224.503906 42.617188 224.503906 42.617188 L 224.503906 86.648438 C 273.082031 84.898438 352.035156 90.574219 372.890625 92.328125 C 374.792969 92.488281 375.75 89.992188 374.296875 88.691406 Z M 374.296875 88.691406 " style=" stroke:none;fill-rule:nonzero;fill:rgb(67.843137%,90.588235%,100%);fill-opacity:1;" />
<path d="M 374.296875 88.691406 C 322.71875 42.433594 224.503906 42.617188 224.503906 42.617188 L 224.503906 45.265625 C 255.957031 49.183594 310.839844 59.5 343.390625 88.691406 C 343.839844 89.09375 344.058594 89.613281 344.089844 90.128906 C 356.738281 91.007812 366.933594 91.828125 372.890625 92.328125 C 374.792969 92.488281 375.75 89.992188 374.296875 88.691406 Z M 374.296875 88.691406 " style=" stroke:none;fill-rule:nonzero;fill:rgb(50.980392%,82.352941%,96.078431%);fill-opacity:1;" />
<path d="M 187.5625 346.78125 L 187.5625 512 C 186.683594 512 185.804688 511.800781 184.984375 511.410156 L 59.125 451.429688 C 57.035156 450.429688 55.703125 448.328125 55.703125 446.011719 L 55.703125 287.730469 C 55.703125 286.53125 56.0625 285.378906 56.703125 284.421875 Z M 187.5625 346.78125 " style=" stroke:none;fill-rule:nonzero;fill:rgb(30.980392%,69.411765%,96.078431%);fill-opacity:1;" />
<path d="M 319.433594 287.730469 L 319.433594 446.011719 C 319.433594 448.289062 318.132812 450.351562 316.125 451.378906 L 288.523438 464.53125 L 190.144531 511.410156 C 189.324219 511.800781 188.441406 512 187.5625 512 L 187.5625 346.78125 L 288.523438 298.671875 L 318.433594 284.421875 C 319.074219 285.378906 319.433594 286.53125 319.433594 287.730469 Z M 319.433594 287.730469 " style=" stroke:none;fill-rule:nonzero;fill:rgb(100%,17.254902%,36.078431%);fill-opacity:1;" />
<path d="M 319.433594 287.730469 L 319.433594 446.011719 C 319.433594 448.289062 318.132812 450.351562 316.125 451.378906 L 288.523438 464.53125 L 288.523438 298.671875 L 318.433594 284.421875 C 319.074219 285.378906 319.433594 286.53125 319.433594 287.730469 Z M 319.433594 287.730469 " style=" stroke:none;fill-rule:nonzero;fill:rgb(90.196078%,15.294118%,32.54902%);fill-opacity:1;" />
<path d="M 222.6875 105.59375 L 152.3125 105.59375 C 147.851562 105.59375 144.234375 101.976562 144.234375 97.515625 L 144.234375 37.441406 C 144.234375 32.976562 147.851562 29.359375 152.3125 29.359375 L 222.6875 29.359375 C 227.148438 29.359375 230.765625 32.980469 230.765625 37.441406 L 230.765625 97.515625 C 230.769531 101.976562 227.148438 105.59375 222.6875 105.59375 Z M 222.6875 105.59375 " style=" stroke:none;fill-rule:nonzero;fill:rgb(40.784314%,36.078431%,47.45098%);fill-opacity:1;" />
<path d="M 222.6875 29.359375 L 191.78125 29.359375 C 196.246094 29.359375 199.863281 32.976562 199.863281 37.441406 L 199.863281 97.511719 C 199.863281 101.976562 196.246094 105.59375 191.78125 105.59375 L 222.6875 105.59375 C 227.148438 105.59375 230.765625 101.976562 230.765625 97.511719 L 230.765625 37.441406 C 230.769531 32.976562 227.148438 29.359375 222.6875 29.359375 Z M 222.6875 29.359375 " style=" stroke:none;fill-rule:nonzero;fill:rgb(34.901961%,30.980392%,41.176471%);fill-opacity:1;" />
</g>
</svg>