<?xml version="1.0" encoding="iso-8859-1"?>
<!-- Generator: Adobe Illustrator 19.0.0, SVG Export Plug-In . SVG Version: 6.00 Build 0)  -->
<svg version="1.1" id="Capa_1" xmlns="http://www.w3.org/2000/svg" xmlns:xlink="http://www.w3.org/1999/xlink" x="0px" y="0px"
	 viewBox="0 0 512 512" style="enable-background:new 0 0 512 512;" xml:space="preserve">
<path style="fill:#9EAFC6;" d="M499.873,22.767v416.925c0,12.578-10.199,22.767-22.777,22.767H162.19
	c-12.578,0-22.767-10.188-22.767-22.767V22.767C139.423,10.199,149.612,0,162.19,0h314.906C489.675,0,499.873,10.199,499.873,22.767
	z"/>
<path style="fill:#8590A8;" d="M364.199,234.366v228.092H162.19c-12.578,0-22.767-10.188-22.767-22.767V222.004h212.413
	C358.666,222.004,364.199,227.536,364.199,234.366z"/>
<path style="fill:#57D3D0;" d="M455.709,61.182v63.037c0,3.414-2.767,6.181-6.181,6.181h-259.76c-3.414,0-6.181-2.767-6.181-6.181
	V61.182c0-3.414,2.767-6.181,6.181-6.181h259.76C452.942,55.001,455.709,57.769,455.709,61.182z"/>
<g>
	<polygon style="fill:#8CE5E1;" points="372.533,55.001 297.144,130.4 232.675,130.4 308.074,55.001 	"/>
	<polygon style="fill:#8CE5E1;" points="431.119,55.001 355.71,130.4 316.419,130.4 391.828,55.001 	"/>
</g>
<g>
	<path style="fill:#ED6294;" d="M218.819,208.883h-18.993c-8.092,0-14.653-6.56-14.653-14.653l0,0
		c0-8.092,6.56-14.653,14.653-14.653h18.993c8.092,0,14.653,6.56,14.653,14.653l0,0
		C233.472,202.323,226.912,208.883,218.819,208.883z"/>
	<path style="fill:#ED6294;" d="M292.368,208.883h-18.993c-8.092,0-14.653-6.56-14.653-14.653l0,0
		c0-8.092,6.56-14.653,14.653-14.653h18.993c8.092,0,14.653,6.56,14.653,14.653l0,0C307.021,202.323,300.46,208.883,292.368,208.883
		z"/>
	<path style="fill:#ED6294;" d="M365.916,208.883h-18.993c-8.092,0-14.653-6.56-14.653-14.653l0,0
		c0-8.092,6.56-14.653,14.653-14.653h18.993c8.092,0,14.653,6.56,14.653,14.653l0,0
		C380.569,202.323,374.009,208.883,365.916,208.883z"/>
	<path style="fill:#ED6294;" d="M439.465,208.883h-18.993c-8.092,0-14.653-6.56-14.653-14.653l0,0
		c0-8.092,6.56-14.653,14.653-14.653h18.993c8.092,0,14.653,6.56,14.653,14.653l0,0
		C454.118,202.323,447.557,208.883,439.465,208.883z"/>
</g>
<g>
	<path style="fill:#697491;" d="M218.819,283.471h-18.993c-8.092,0-14.653-6.56-14.653-14.653l0,0
		c0-8.092,6.56-14.653,14.653-14.653h18.993c8.092,0,14.653,6.56,14.653,14.653l0,0
		C233.472,276.911,226.912,283.471,218.819,283.471z"/>
	<path style="fill:#697491;" d="M292.368,283.471h-18.993c-8.092,0-14.653-6.56-14.653-14.653l0,0
		c0-8.092,6.56-14.653,14.653-14.653h18.993c8.092,0,14.653,6.56,14.653,14.653l0,0C307.021,276.911,300.46,283.471,292.368,283.471
		z"/>
	<path style="fill:#697491;" d="M380.568,268.815c0,4.049-1.638,7.716-4.296,10.364c-2.648,2.658-6.315,4.296-10.353,4.296h-18.996
		c-8.087,0-14.649-6.562-14.649-14.659c0-4.038,1.638-7.706,4.296-10.353c2.648-2.658,6.315-4.296,10.353-4.296h18.996
		C374.006,254.166,380.568,260.729,380.568,268.815z"/>
</g>
<path style="fill:#576384;" d="M364.199,254.166v29.309h-17.276c-8.087,0-14.649-6.562-14.649-14.659
	c0-4.038,1.638-7.706,4.296-10.353c2.648-2.658,6.315-4.296,10.353-4.296h17.276V254.166z"/>
<g>
	<path style="fill:#697491;" d="M439.465,283.471h-18.993c-8.092,0-14.653-6.56-14.653-14.653l0,0
		c0-8.092,6.56-14.653,14.653-14.653h18.993c8.092,0,14.653,6.56,14.653,14.653l0,0
		C454.118,276.911,447.557,283.471,439.465,283.471z"/>
	<path style="fill:#697491;" d="M218.819,343.407h-18.993c-8.092,0-14.653-6.56-14.653-14.653l0,0
		c0-8.092,6.56-14.653,14.653-14.653h18.993c8.092,0,14.653,6.56,14.653,14.653l0,0
		C233.472,336.847,226.912,343.407,218.819,343.407z"/>
	<path style="fill:#697491;" d="M292.368,343.407h-18.993c-8.092,0-14.653-6.56-14.653-14.653l0,0
		c0-8.092,6.56-14.653,14.653-14.653h18.993c8.092,0,14.653,6.56,14.653,14.653l0,0C307.021,336.847,300.46,343.407,292.368,343.407
		z"/>
	<path style="fill:#697491;" d="M380.568,328.751c0,4.049-1.638,7.716-4.296,10.364c-2.648,2.658-6.315,4.296-10.353,4.296h-18.996
		c-8.087,0-14.649-6.562-14.649-14.659c0-4.038,1.638-7.706,4.296-10.353c2.648-2.658,6.315-4.296,10.353-4.296h18.996
		C374.006,314.102,380.568,320.664,380.568,328.751z"/>
</g>
<path style="fill:#576384;" d="M346.922,314.102h17.276v29.309h-17.276c-8.087,0-14.649-6.562-14.649-14.659
	c0-4.038,1.638-7.706,4.296-10.353C339.217,315.74,342.884,314.102,346.922,314.102z"/>
<g>
	<path style="fill:#697491;" d="M439.465,343.407h-18.993c-8.092,0-14.653-6.56-14.653-14.653l0,0
		c0-8.092,6.56-14.653,14.653-14.653h18.993c8.092,0,14.653,6.56,14.653,14.653l0,0
		C454.118,336.847,447.557,343.407,439.465,343.407z"/>
	<path style="fill:#697491;" d="M218.819,403.343h-18.993c-8.092,0-14.653-6.56-14.653-14.653l0,0
		c0-8.092,6.56-14.653,14.653-14.653h18.993c8.092,0,14.653,6.56,14.653,14.653l0,0
		C233.472,396.782,226.912,403.343,218.819,403.343z"/>
	<path style="fill:#697491;" d="M292.368,403.343h-18.993c-8.092,0-14.653-6.56-14.653-14.653l0,0
		c0-8.092,6.56-14.653,14.653-14.653h18.993c8.092,0,14.653,6.56,14.653,14.653l0,0C307.021,396.782,300.46,403.343,292.368,403.343
		z"/>
	<path style="fill:#697491;" d="M380.568,388.687c0,4.049-1.638,7.716-4.296,10.364c-2.648,2.658-6.315,4.296-10.353,4.296h-18.996
		c-8.087,0-14.649-6.562-14.649-14.659c0-4.038,1.638-7.706,4.296-10.353c2.648-2.658,6.315-4.296,10.353-4.296h18.996
		C374.006,374.038,380.568,380.6,380.568,388.687z"/>
</g>
<path style="fill:#576384;" d="M346.922,374.038h17.276v29.309h-17.276c-8.087,0-14.649-6.562-14.649-14.659
	c0-4.038,1.638-7.706,4.296-10.353C339.217,375.676,342.884,374.038,346.922,374.038z"/>
<path style="fill:#697491;" d="M439.465,403.343h-18.993c-8.092,0-14.653-6.56-14.653-14.653l0,0c0-8.092,6.56-14.653,14.653-14.653
	h18.993c8.092,0,14.653,6.56,14.653,14.653l0,0C454.118,396.782,447.557,403.343,439.465,403.343z"/>
<path style="fill:#00BDC6;" d="M351.837,386.207v119.612c0,3.414-2.767,6.181-6.181,6.181H18.308c-3.414,0-6.181-2.767-6.181-6.181
	V386.207H351.837z"/>
<g>
	<path style="fill:#00A8BB;" d="M329.404,470.535H34.56c-4.268,0-7.726-3.459-7.726-7.726s3.459-7.726,7.726-7.726h294.844
		c4.268,0,7.726,3.459,7.726,7.726S333.672,470.535,329.404,470.535z"/>
	<path style="fill:#00A8BB;" d="M329.404,494.059H34.56c-4.268,0-7.726-3.459-7.726-7.726s3.459-7.726,7.726-7.726h294.844
		c4.268,0,7.726,3.459,7.726,7.726C337.13,490.6,333.672,494.059,329.404,494.059z"/>
	<path style="fill:#00A8BB;" d="M329.404,447.012H34.56c-4.268,0-7.726-3.459-7.726-7.726s3.459-7.726,7.726-7.726h294.844
		c4.268,0,7.726,3.459,7.726,7.726C337.13,443.552,333.672,447.012,329.404,447.012z"/>
</g>
<path style="fill:#57D3D0;" d="M351.837,240.543v165.475c0,3.414-2.767,6.181-6.181,6.181H18.308c-3.414,0-6.181-2.767-6.181-6.181
	V240.543c0-3.414,2.767-6.181,6.181-6.181h327.348C349.07,234.362,351.837,237.129,351.837,240.543z"/>
<path style="fill:#FFD243;" d="M247.123,322.756c0,19.764-8.804,37.473-22.699,49.42c-11.396,9.798-26.231,15.721-42.443,15.721
	s-31.046-5.923-42.443-15.721c-13.895-11.947-22.699-29.656-22.699-49.42c0-19.764,8.804-37.473,22.699-49.42
	c11.396-9.798,26.231-15.721,42.443-15.721s31.046,5.923,42.443,15.721C238.319,285.283,247.123,302.992,247.123,322.756z"/>
<path style="fill:#EFAE2E;" d="M200.279,334.233c0-10.022-7.934-18.226-17.851-18.66c-0.176-0.012-0.354-0.018-0.533-0.018
	c-1.779,0-3.226-1.447-3.226-3.226c0-1.779,1.448-3.226,3.226-3.226c0.974,0,1.887,0.435,2.505,1.193
	c2.698,3.306,7.562,3.802,10.871,1.104c3.307-2.697,3.801-7.564,1.105-10.871c-1.852-2.27-4.169-4.033-6.755-5.207v-0.509
	c0-4.267-3.459-7.726-7.726-7.726c-4.268,0-7.726,3.459-7.726,7.726v0.53c-6.45,2.946-10.953,9.443-10.953,16.985
	c0,10.022,7.934,18.226,17.851,18.66c0.176,0.012,0.354,0.018,0.533,0.018c1.779,0,3.226,1.447,3.226,3.226
	c0,1.779-1.448,3.226-3.226,3.226c-0.974,0-1.887-0.435-2.505-1.193c-2.698-3.306-7.562-3.801-10.871-1.104
	c-3.307,2.697-3.801,7.564-1.105,10.871c1.922,2.356,4.344,4.165,7.049,5.338v0.378c0,4.267,3.459,7.726,7.726,7.726
	c4.268,0,7.726-3.459,7.726-7.726v-0.672C195.912,348.068,200.279,341.659,200.279,334.233z"/>
<g>
	<circle style="fill:#FFD243;" cx="308.92" cy="369.39" r="14.681"/>
	<circle style="fill:#FFD243;" cx="55.04" cy="275.37" r="14.681"/>
</g>
<g>
	<path style="fill:#9EAFC6;" d="M106.431,207.759H80.307c-4.268,0-7.726-3.459-7.726-7.726s3.459-7.726,7.726-7.726h26.124
		c4.268,0,7.726,3.459,7.726,7.726S110.699,207.759,106.431,207.759z"/>
	<path style="fill:#9EAFC6;" d="M106.431,183.817H80.307c-4.268,0-7.726-3.459-7.726-7.726s3.459-7.726,7.726-7.726h26.124
		c4.268,0,7.726,3.459,7.726,7.726S110.699,183.817,106.431,183.817z"/>
</g>
<path style="fill:#00BDC6;" d="M106.483,157.256c-0.013,0-0.026,0-0.039,0l-0.103-0.001c-4.267-0.021-7.709-3.497-7.688-7.764
	c0.021-4.254,3.476-7.689,7.725-7.689c0.013,0,0.026,0,0.039,0c4.267,0.021,7.761,3.497,7.739,7.765
	C114.136,153.821,110.732,157.256,106.483,157.256z"/>
<g>
</g>
<g>
</g>
<g>
</g>
<g>
</g>
<g>
</g>
<g>
</g>
<g>
</g>
<g>
</g>
<g>
</g>
<g>
</g>
<g>
</g>
<g>
</g>
<g>
</g>
<g>
</g>
<g>
</g>
</svg>
