<svg xmlns="http://www.w3.org/2000/svg" height="512pt" version="1.1" viewBox="0 0 512 512" width="512pt">
<g id="surface1">
<path d="M 437.019531 74.980469 C 388.664062 26.628906 324.378906 0 256 0 C 187.617188 0 123.332031 26.628906 74.980469 74.980469 C 26.628906 123.332031 0 187.621094 0 256 C 0 324.378906 26.628906 388.667969 74.980469 437.019531 C 123.332031 485.371094 187.617188 512 256 512 C 324.378906 512 388.664062 485.371094 437.019531 437.019531 C 485.371094 388.667969 512 324.378906 512 256 C 512 187.621094 485.371094 123.332031 437.019531 74.980469 Z M 437.019531 74.980469 " style=" stroke:none;fill-rule:nonzero;fill:rgb(92.156863%,96.470588%,100%);fill-opacity:1;" />
<path d="M 437.019531 74.980469 C 388.664062 26.628906 324.378906 0 256 0 L 256 512 C 324.378906 512 388.664062 485.371094 437.019531 437.019531 C 485.371094 388.667969 512 324.378906 512 256 C 512 187.621094 485.371094 123.332031 437.019531 74.980469 Z M 437.019531 74.980469 " style=" stroke:none;fill-rule:nonzero;fill:rgb(69.803922%,86.27451%,100%);fill-opacity:1;" />
<path d="M 437.019531 74.980469 C 388.664062 26.628906 324.378906 0 256 0 C 187.617188 0 123.332031 26.628906 74.980469 74.980469 C 72.167969 77.792969 70.589844 81.609375 70.589844 85.585938 C 70.589844 89.5625 72.167969 93.378906 74.980469 96.191406 L 131.785156 152.996094 C 137.644531 158.855469 147.140625 158.855469 153 152.996094 C 180.511719 125.484375 217.09375 110.332031 256 110.332031 C 294.90625 110.332031 331.488281 125.484375 359.003906 153 C 361.933594 155.925781 365.769531 157.390625 369.609375 157.390625 C 373.449219 157.390625 377.289062 155.925781 380.214844 152.996094 L 437.019531 96.191406 C 439.832031 93.378906 441.414062 89.566406 441.414062 85.585938 C 441.414062 81.609375 439.832031 77.792969 437.019531 74.980469 Z M 437.019531 74.980469 " style=" stroke:none;fill-rule:nonzero;fill:rgb(100%,81.960784%,16.862745%);fill-opacity:1;" />
<path d="M 437.019531 74.980469 C 388.664062 26.628906 324.378906 0 256 0 L 256 110.332031 C 294.90625 110.332031 331.488281 125.484375 359.003906 153 C 361.933594 155.929688 365.769531 157.390625 369.609375 157.390625 C 373.445312 157.390625 377.285156 155.925781 380.214844 152.996094 L 437.019531 96.195312 C 439.832031 93.382812 441.414062 89.566406 441.414062 85.589844 C 441.414062 81.609375 439.832031 77.792969 437.019531 74.980469 Z M 437.019531 74.980469 " style=" stroke:none;fill-rule:nonzero;fill:rgb(100%,55.686275%,11.372549%);fill-opacity:1;" />
<path d="M 110.335938 256 C 110.335938 217.089844 125.484375 180.511719 152.996094 152.996094 C 155.8125 150.183594 157.394531 146.371094 157.394531 142.390625 C 157.394531 138.414062 155.8125 134.597656 152.996094 131.785156 L 96.195312 74.980469 C 90.335938 69.121094 80.839844 69.121094 74.980469 74.980469 C 26.628906 123.332031 0 187.617188 0 256 C 0 324.378906 26.628906 388.664062 74.980469 437.019531 C 77.792969 439.832031 81.609375 441.414062 85.585938 441.414062 C 89.5625 441.414062 93.378906 439.832031 96.191406 437.019531 L 152.996094 380.214844 C 158.855469 374.359375 158.855469 364.863281 152.996094 359.003906 C 125.484375 331.488281 110.335938 294.90625 110.335938 256 Z M 110.335938 256 " style=" stroke:none;fill-rule:nonzero;fill:rgb(50.196078%,82.745098%,59.607843%);fill-opacity:1;" />
<path d="M 437.019531 74.980469 C 434.207031 72.167969 430.390625 70.585938 426.414062 70.585938 C 422.433594 70.585938 418.617188 72.167969 415.808594 74.980469 L 359.003906 131.785156 C 353.144531 137.640625 353.144531 147.140625 359.003906 152.996094 C 386.515625 180.511719 401.664062 217.089844 401.664062 256 C 401.664062 294.90625 386.515625 331.488281 359.003906 359.003906 C 353.144531 364.859375 353.144531 374.359375 359.003906 380.214844 L 415.808594 437.019531 C 418.621094 439.832031 422.4375 441.414062 426.414062 441.414062 C 430.394531 441.414062 434.207031 439.832031 437.019531 437.019531 C 485.371094 388.664062 512 324.378906 512 256 C 512 187.621094 485.371094 123.335938 437.019531 74.980469 Z M 437.019531 74.980469 " style=" stroke:none;fill-rule:nonzero;fill:rgb(100%,22.352941%,69.411765%);fill-opacity:1;" />
<path d="M 420.84375 241.59375 C 397.378906 234.785156 279.144531 200.832031 256 200.832031 C 225.582031 200.832031 200.835938 225.582031 200.835938 256 C 200.835938 286.417969 225.582031 311.167969 256 311.167969 C 279.144531 311.167969 397.378906 277.214844 420.84375 270.40625 C 427.257812 268.546875 431.664062 262.675781 431.664062 256 C 431.664062 249.324219 427.257812 243.453125 420.84375 241.59375 Z M 420.84375 241.59375 " style=" stroke:none;fill-rule:nonzero;fill:rgb(0%,20.392157%,36.078431%);fill-opacity:1;" />
<path d="M 200.835938 256 C 200.835938 286.417969 225.582031 311.167969 256 311.167969 L 256 200.832031 C 225.582031 200.832031 200.835938 225.582031 200.835938 256 Z M 200.835938 256 " style=" stroke:none;fill-rule:nonzero;fill:rgb(0%,35.294118%,69.411765%);fill-opacity:1;" />
<path d="M 289.273438 384.609375 L 222.726562 384.609375 C 214.441406 384.609375 207.726562 377.894531 207.726562 369.609375 C 207.726562 361.324219 214.441406 354.609375 222.726562 354.609375 L 289.273438 354.609375 C 297.558594 354.609375 304.273438 361.324219 304.273438 369.609375 C 304.273438 377.894531 297.558594 384.609375 289.273438 384.609375 Z M 289.273438 384.609375 " style=" stroke:none;fill-rule:nonzero;fill:rgb(0%,35.294118%,69.411765%);fill-opacity:1;" />
<path d="M 289.273438 354.609375 L 256 354.609375 L 256 384.609375 L 289.273438 384.609375 C 297.558594 384.609375 304.273438 377.894531 304.273438 369.609375 C 304.273438 361.324219 297.558594 354.609375 289.273438 354.609375 Z M 289.273438 354.609375 " style=" stroke:none;fill-rule:nonzero;fill:rgb(0%,20.392157%,36.078431%);fill-opacity:1;" />
</g>
</svg>