<?xml version="1.0" encoding="iso-8859-1"?>
<!-- Generator: Adobe Illustrator 19.0.0, SVG Export Plug-In . SVG Version: 6.00 Build 0)  -->
<svg version="1.1" id="Layer_1" xmlns="http://www.w3.org/2000/svg" xmlns:xlink="http://www.w3.org/1999/xlink" x="0px" y="0px"
	 viewBox="0 0 512 512" style="enable-background:new 0 0 512 512;" xml:space="preserve">
<g>
	<rect x="26.483" y="132.414" style="fill:#2C3E50;" width="459.034" height="61.793"/>
	<rect x="26.483" y="308.966" style="fill:#2C3E50;" width="459.034" height="79.448"/>
</g>
<path style="fill:#7F8C8D;" d="M26.483,0h459.034C500.145,0,512,11.855,512,26.483v88.276c0,14.627-11.855,26.483-26.483,26.483
	H26.483C11.855,141.241,0,129.386,0,114.759V26.483C0,11.855,11.855,0,26.483,0z"/>
<path style="fill:#7ED09E;" d="M44.138,35.31h317.793c4.873,0,8.828,3.955,8.828,8.828v52.966c0,4.873-3.955,8.828-8.828,8.828
	H44.138c-4.873,0-8.828-3.955-8.828-8.828V44.138C35.31,39.265,39.265,35.31,44.138,35.31z"/>
<g>
	<path style="fill:#2C2F38;" d="M406.069,44.138c-1.156-0.018-2.295-0.256-3.354-0.706c-1.068-0.45-2.057-1.077-2.913-1.854
		c-1.66-1.66-2.586-3.919-2.56-6.268c0.035-2.339,0.945-4.573,2.56-6.268c0.856-0.777,1.845-1.404,2.913-1.854
		c2.145-0.892,4.564-0.892,6.709,0c1.077,0.424,2.066,1.059,2.913,1.854c1.607,1.695,2.525,3.928,2.56,6.268
		c0.018,2.348-0.9,4.608-2.56,6.268c-0.856,0.777-1.845,1.404-2.913,1.854C408.364,43.882,407.225,44.12,406.069,44.138z"/>
	<path style="fill:#2C2F38;" d="M441.379,44.138c-1.156-0.018-2.295-0.256-3.354-0.706c-1.068-0.45-2.057-1.077-2.913-1.854
		c-1.66-1.66-2.586-3.919-2.56-6.268c0.035-2.339,0.945-4.573,2.56-6.268c0.839-0.794,1.827-1.43,2.913-1.854
		c2.145-0.892,4.564-0.892,6.709,0c1.077,0.424,2.066,1.059,2.913,1.854c1.607,1.695,2.525,3.928,2.56,6.268
		c0.044,4.829-3.831,8.783-8.66,8.828C441.494,44.138,441.432,44.138,441.379,44.138z"/>
	<path style="fill:#2C2F38;" d="M476.69,44.138c-4.829,0.044-8.783-3.831-8.828-8.66c-0.009-1.209,0.23-2.41,0.706-3.513
		c0.424-1.077,1.059-2.074,1.854-2.913c3.434-3.46,9.022-3.487,12.482-0.053c1.686,1.66,2.631,3.937,2.613,6.312
		c0.018,2.348-0.9,4.608-2.56,6.268c-0.856,0.777-1.845,1.404-2.913,1.854C478.985,43.882,477.846,44.12,476.69,44.138z"/>
	<path style="fill:#2C2F38;" d="M406.069,79.448c-2.348,0.018-4.608-0.9-6.268-2.56c-0.777-0.856-1.404-1.845-1.854-2.913
		c-0.459-1.059-0.697-2.198-0.706-3.354c0.035-2.339,0.945-4.573,2.56-6.268c2.119-2.074,5.12-2.966,8.033-2.392
		c0.556,0.097,1.086,0.282,1.589,0.538c0.565,0.194,1.103,0.459,1.589,0.794c0.459,0.327,0.9,0.68,1.324,1.059
		c0.794,0.847,1.43,1.836,1.854,2.913c0.945,2.136,0.945,4.573,0,6.709c-0.45,1.068-1.077,2.057-1.854,2.913
		C410.677,78.548,408.417,79.466,406.069,79.448z"/>
	<path style="fill:#2C2F38;" d="M441.379,79.448c-1.156-0.018-2.295-0.256-3.354-0.706c-2.216-0.803-3.964-2.551-4.767-4.767
		c-0.936-2.136-0.936-4.573,0-6.709c0.424-1.077,1.059-2.074,1.854-2.913c3.434-3.46,9.022-3.487,12.482-0.053
		c1.686,1.668,2.631,3.946,2.613,6.321c0.026,1.156-0.212,2.304-0.706,3.354c-0.45,1.068-1.077,2.057-1.854,2.913
		c-0.856,0.777-1.845,1.404-2.913,1.854C443.674,79.192,442.536,79.431,441.379,79.448z"/>
	<path style="fill:#2C2F38;" d="M476.69,79.448c-2.348,0.018-4.608-0.9-6.268-2.56c-0.777-0.856-1.404-1.845-1.854-2.913
		c-0.459-1.059-0.697-2.198-0.706-3.354c0.035-2.339,0.945-4.573,2.56-6.268c2.119-2.074,5.12-2.966,8.033-2.392
		c0.556,0.097,1.086,0.282,1.589,0.538c0.565,0.194,1.103,0.459,1.589,0.794c0.459,0.327,0.9,0.68,1.324,1.059
		c0.794,0.847,1.43,1.836,1.854,2.913c0.945,2.136,0.945,4.573,0,6.709c-0.45,1.068-1.077,2.057-1.854,2.913
		C481.298,78.548,479.038,79.466,476.69,79.448z"/>
	<path style="fill:#2C2F38;" d="M406.069,114.759c-2.348-0.044-4.599-0.989-6.268-2.648c-1.668-1.615-2.595-3.858-2.56-6.179
		c0.009-1.156,0.247-2.295,0.706-3.354c1.721-4.484,6.753-6.727,11.246-5.005c2.304,0.883,4.122,2.701,5.005,5.005
		c0.945,2.136,0.945,4.573,0,6.709C412.804,112.561,409.618,114.706,406.069,114.759z"/>
	<path style="fill:#2C2F38;" d="M441.379,114.759c-2.366,0.026-4.634-0.927-6.268-2.648c-0.794-0.812-1.43-1.774-1.854-2.825
		c-0.494-1.05-0.733-2.198-0.706-3.354c0.009-1.156,0.247-2.295,0.706-3.354c0.803-2.216,2.551-3.964,4.767-4.767
		c3.293-1.298,7.044-0.574,9.622,1.854c0.777,0.856,1.404,1.845,1.854,2.913c1.333,3.266,0.609,7.009-1.854,9.534
		C446.014,113.832,443.745,114.785,441.379,114.759z"/>
	<path style="fill:#2C2F38;" d="M476.69,114.759c-2.366,0.026-4.635-0.927-6.268-2.648c-1.668-1.615-2.595-3.858-2.56-6.179
		c0.009-1.156,0.247-2.295,0.706-3.354c0.424-1.077,1.059-2.074,1.854-2.913c0.415-0.38,0.856-0.733,1.324-1.059
		c0.494-0.335,1.024-0.6,1.589-0.794c0.53-0.265,1.095-0.45,1.677-0.538c2.878-0.494,5.817,0.397,7.945,2.392
		c0.777,0.856,1.404,1.845,1.854,2.913c0.945,2.136,0.945,4.573,0,6.709C483.425,112.561,480.238,114.706,476.69,114.759z"/>
</g>
<g>
	<path style="fill:#527F72;" d="M70.621,79.448c-2.348,0.018-4.608-0.9-6.268-2.56c-0.777-0.856-1.404-1.845-1.854-2.913
		c-0.459-1.059-0.697-2.198-0.706-3.354c0.035-2.339,0.945-4.573,2.56-6.268c0.415-0.38,0.865-0.733,1.324-1.059
		c0.494-0.335,1.024-0.6,1.589-0.794c0.494-0.256,1.033-0.433,1.589-0.538c1.165-0.256,2.366-0.256,3.531,0
		c0.547,0.106,1.086,0.282,1.589,0.538c0.565,0.194,1.103,0.459,1.589,0.794c0.459,0.327,0.9,0.68,1.324,1.059
		c1.615,1.695,2.525,3.928,2.56,6.268c-0.018,1.156-0.256,2.295-0.706,3.354c-0.45,1.068-1.077,2.057-1.854,2.913
		C75.229,78.548,72.969,79.466,70.621,79.448z"/>
	<path style="fill:#527F72;" d="M167.724,79.448h-61.793c-4.873,0-8.828-3.955-8.828-8.828s3.955-8.828,8.828-8.828h61.793
		c4.873,0,8.828,3.955,8.828,8.828S172.597,79.448,167.724,79.448z"/>
</g>
<path style="fill:#7F8C8D;" d="M26.483,370.759h459.034c14.627,0,26.483,11.855,26.483,26.483v88.276
	C512,500.145,500.145,512,485.517,512H26.483C11.855,512,0,500.145,0,485.517v-88.276C0,382.614,11.855,370.759,26.483,370.759z"/>
<path style="fill:#7ED09E;" d="M44.138,406.069h317.793c4.873,0,8.828,3.955,8.828,8.828v52.966c0,4.873-3.955,8.828-8.828,8.828
	H44.138c-4.873,0-8.828-3.955-8.828-8.828v-52.966C35.31,410.024,39.265,406.069,44.138,406.069z"/>
<g>
	<path style="fill:#2C2F38;" d="M406.069,414.897c-2.348,0.018-4.608-0.9-6.268-2.56c-0.777-0.856-1.404-1.845-1.854-2.913
		c-0.936-2.136-0.936-4.573,0-6.709c0.424-1.077,1.059-2.074,1.854-2.913c0.856-0.777,1.845-1.404,2.913-1.854
		c2.145-0.892,4.564-0.892,6.709,0c2.216,0.803,3.964,2.551,4.767,4.767c0.945,2.136,0.945,4.573,0,6.709
		c-0.45,1.068-1.077,2.057-1.854,2.913C410.677,413.996,408.417,414.914,406.069,414.897z"/>
	<path style="fill:#2C2F38;" d="M441.379,414.897c-2.348,0.018-4.608-0.9-6.268-2.56c-0.777-0.856-1.404-1.845-1.854-2.913
		c-0.936-2.136-0.936-4.573,0-6.709c1.686-4.414,6.63-6.63,11.043-4.943c0.15,0.053,0.291,0.115,0.433,0.177
		c2.216,0.803,3.964,2.551,4.767,4.767c0.45,1.059,0.697,2.198,0.706,3.354c0.026,1.156-0.212,2.304-0.706,3.354
		c-0.45,1.068-1.077,2.057-1.854,2.913C445.987,413.996,443.727,414.914,441.379,414.897z"/>
	<path style="fill:#2C2F38;" d="M476.69,414.897c-2.348,0.018-4.608-0.9-6.268-2.56c-0.777-0.856-1.404-1.845-1.854-2.913
		c-0.936-2.136-0.936-4.573,0-6.709c0.424-1.077,1.059-2.074,1.854-2.913c3.54-3.266,8.995-3.266,12.535,0
		c0.777,0.856,1.404,1.845,1.854,2.913c0.945,2.136,0.945,4.573,0,6.709c-0.45,1.068-1.077,2.057-1.854,2.913
		C481.298,413.996,479.038,414.914,476.69,414.897z"/>
	<path style="fill:#2C2F38;" d="M406.069,450.207c-4.829,0.044-8.783-3.831-8.828-8.66c-0.009-1.209,0.23-2.41,0.706-3.513
		c0.803-2.216,2.551-3.964,4.767-4.767c3.293-1.333,7.062-0.609,9.622,1.854c0.777,0.856,1.404,1.845,1.854,2.913
		c0.945,2.136,0.945,4.573,0,6.709c-0.45,1.068-1.077,2.057-1.854,2.913c-0.874,0.777-1.863,1.43-2.913,1.942
		C408.355,450.013,407.217,450.225,406.069,450.207z"/>
	<path style="fill:#2C2F38;" d="M441.379,450.207c-4.829,0.044-8.783-3.831-8.828-8.66c-0.009-1.209,0.23-2.41,0.706-3.513
		c0.803-2.216,2.551-3.964,4.767-4.767c3.293-1.333,7.062-0.609,9.622,1.854c0.777,0.856,1.404,1.845,1.854,2.913
		c0.945,2.136,0.945,4.573,0,6.709c-0.45,1.068-1.077,2.057-1.854,2.913C445.987,449.306,443.727,450.225,441.379,450.207z"/>
	<path style="fill:#2C2F38;" d="M476.69,450.207c-2.348,0.018-4.608-0.9-6.268-2.56c-0.777-0.856-1.404-1.845-1.854-2.913
		c-0.936-2.136-0.936-4.573,0-6.709c0.803-2.216,2.551-3.964,4.767-4.767c3.293-1.342,7.071-0.618,9.622,1.854
		c0.777,0.856,1.404,1.845,1.854,2.913c0.945,2.136,0.945,4.573,0,6.709c-0.45,1.068-1.077,2.057-1.854,2.913
		C481.298,449.306,479.038,450.225,476.69,450.207z"/>
	<path style="fill:#2C2F38;" d="M406.069,485.517c-1.156-0.018-2.295-0.256-3.354-0.706c-2.216-0.803-3.964-2.551-4.767-4.767
		c-0.459-1.059-0.697-2.198-0.706-3.354c0.018-2.339,0.936-4.582,2.56-6.268c3.434-3.46,9.022-3.487,12.482-0.053
		c1.686,1.668,2.631,3.946,2.613,6.321c-0.018,1.156-0.256,2.295-0.706,3.354c-0.45,1.068-1.077,2.057-1.854,2.913
		c-0.856,0.777-1.845,1.404-2.913,1.854C408.364,485.261,407.225,485.5,406.069,485.517z"/>
	<path style="fill:#2C2F38;" d="M441.379,485.517c-2.348,0.018-4.608-0.9-6.268-2.56c-0.777-0.856-1.404-1.845-1.854-2.913
		c-0.494-1.05-0.733-2.198-0.706-3.354c0.035-2.339,0.945-4.573,2.56-6.268c0.856-0.777,1.845-1.404,2.913-1.854
		c1.607-0.706,3.399-0.892,5.12-0.539c0.556,0.097,1.086,0.283,1.589,0.539c0.565,0.194,1.103,0.459,1.589,0.794
		c0.459,0.327,0.9,0.68,1.324,1.059c1.615,1.695,2.525,3.928,2.56,6.268c-0.018,1.156-0.256,2.295-0.706,3.354
		c-0.45,1.068-1.077,2.057-1.854,2.913C445.987,484.617,443.727,485.535,441.379,485.517z"/>
	<path style="fill:#2C2F38;" d="M476.69,485.517c-2.348,0.018-4.608-0.9-6.268-2.56c-0.777-0.856-1.404-1.845-1.854-2.913
		c-0.459-1.059-0.697-2.198-0.706-3.354c0.035-2.339,0.945-4.573,2.56-6.268c0.856-0.777,1.845-1.404,2.913-1.854
		c3.293-1.377,7.08-0.644,9.622,1.854c1.615,1.695,2.525,3.928,2.56,6.268c-0.018,1.156-0.256,2.295-0.706,3.354
		c-0.45,1.068-1.077,2.057-1.854,2.913C481.298,484.617,479.038,485.535,476.69,485.517z"/>
</g>
<g>
	<path style="fill:#527F72;" d="M70.621,450.207c-1.148,0.018-2.286-0.194-3.354-0.618c-1.05-0.512-2.03-1.165-2.913-1.942
		c-0.777-0.856-1.404-1.845-1.854-2.913c-0.936-2.136-0.936-4.573,0-6.709c0.45-1.068,1.077-2.057,1.854-2.913
		c3.54-3.266,8.995-3.266,12.535,0c0.777,0.856,1.404,1.845,1.854,2.913c0.945,2.136,0.945,4.573,0,6.709
		c-0.45,1.068-1.077,2.057-1.854,2.913C75.229,449.306,72.969,450.225,70.621,450.207z"/>
	<path style="fill:#527F72;" d="M167.724,450.207h-61.793c-4.873,0-8.828-3.955-8.828-8.828s3.955-8.828,8.828-8.828h61.793
		c4.873,0,8.828,3.955,8.828,8.828S172.597,450.207,167.724,450.207z"/>
</g>
<path style="fill:#7F8C8D;" d="M26.483,185.379h459.034c14.627,0,26.483,11.855,26.483,26.483v88.276
	c0,14.627-11.855,26.483-26.483,26.483H26.483C11.855,326.621,0,314.765,0,300.138v-88.276C0,197.235,11.855,185.379,26.483,185.379
	z"/>
<g>
	<path style="fill:#2C2F38;" d="M44.138,220.69h317.793c4.873,0,8.828,3.955,8.828,8.828v52.966c0,4.873-3.955,8.828-8.828,8.828
		H44.138c-4.873,0-8.828-3.955-8.828-8.828v-52.966C35.31,224.644,39.265,220.69,44.138,220.69z"/>
	<path style="fill:#2C2F38;" d="M406.069,229.517c-1.148,0.018-2.286-0.194-3.354-0.618c-1.05-0.512-2.03-1.165-2.913-1.942
		c-2.525-2.525-3.257-6.338-1.854-9.622c0.424-1.077,1.059-2.074,1.854-2.913c0.856-0.777,1.845-1.404,2.913-1.854
		c3.284-1.386,7.089-0.653,9.622,1.854c0.777,0.856,1.404,1.845,1.854,2.913c1.898,4.44-0.159,9.578-4.59,11.476
		C408.479,229.288,407.278,229.526,406.069,229.517z"/>
	<path style="fill:#2C2F38;" d="M441.379,229.517c-1.148,0.018-2.286-0.194-3.354-0.618c-1.05-0.512-2.03-1.165-2.913-1.942
		c-2.525-2.525-3.257-6.338-1.854-9.622c0.45-1.068,1.077-2.057,1.854-2.913c3.54-3.266,8.995-3.266,12.535,0
		c0.777,0.856,1.404,1.845,1.854,2.913c0.494,1.05,0.733,2.198,0.706,3.354c0.044,4.829-3.831,8.783-8.66,8.828
		C441.494,229.517,441.432,229.517,441.379,229.517z"/>
	<path style="fill:#2C2F38;" d="M476.69,229.517c-1.148,0.018-2.286-0.194-3.354-0.618c-1.051-0.512-2.03-1.165-2.913-1.942
		c-2.525-2.525-3.257-6.338-1.854-9.622c0.45-1.068,1.077-2.057,1.854-2.913c3.328-3.46,8.836-3.566,12.297-0.238
		c0.918,0.883,1.633,1.96,2.083,3.151c1.898,4.44-0.159,9.578-4.59,11.476C479.1,229.288,477.899,229.526,476.69,229.517z"/>
	<path style="fill:#2C2F38;" d="M406.069,264.828c-4.829,0.044-8.783-3.831-8.828-8.66c0-0.053,0-0.115,0-0.168
		c-0.026-4.873,3.902-8.854,8.775-8.881c2.375-0.018,4.652,0.927,6.321,2.613c1.624,1.686,2.542,3.928,2.56,6.268
		c0.044,4.829-3.831,8.783-8.66,8.828C406.184,264.828,406.122,264.828,406.069,264.828z"/>
	<path style="fill:#2C2F38;" d="M441.379,264.828c-4.829,0.044-8.783-3.831-8.828-8.66c0-0.053,0-0.115,0-0.168
		c0.035-2.339,0.945-4.573,2.56-6.268c0.839-0.794,1.827-1.43,2.913-1.854c3.284-1.386,7.089-0.653,9.622,1.854
		c1.615,1.695,2.525,3.928,2.56,6.268c0.018,2.348-0.9,4.608-2.56,6.268c-0.874,0.777-1.863,1.43-2.913,1.942
		C443.666,264.633,442.527,264.845,441.379,264.828z"/>
	<path style="fill:#2C2F38;" d="M476.69,264.828c-4.829,0.044-8.783-3.831-8.828-8.66c0-0.053,0-0.115,0-0.168
		c0.018-2.339,0.936-4.582,2.56-6.268c3.434-3.46,9.022-3.487,12.482-0.053c1.686,1.668,2.631,3.946,2.613,6.321
		c0.044,4.829-3.831,8.783-8.66,8.828C476.804,264.828,476.743,264.828,476.69,264.828z"/>
	<path style="fill:#2C2F38;" d="M406.069,300.138c-4.829,0.044-8.783-3.831-8.828-8.66c0-0.053,0-0.115,0-0.168
		c0-4.873,3.955-8.828,8.828-8.828s8.828,3.955,8.828,8.828c0.044,4.829-3.831,8.783-8.66,8.828
		C406.184,300.138,406.122,300.138,406.069,300.138z"/>
	<path style="fill:#2C2F38;" d="M441.379,300.138c-4.829,0.044-8.783-3.831-8.828-8.66c0-0.053,0-0.115,0-0.168
		c0-4.873,3.955-8.828,8.828-8.828s8.828,3.955,8.828,8.828c0.018,2.348-0.9,4.608-2.56,6.268c-0.874,0.777-1.863,1.43-2.913,1.942
		C443.666,299.944,442.527,300.156,441.379,300.138z"/>
	<path style="fill:#2C2F38;" d="M476.69,300.138c-4.829,0.044-8.783-3.831-8.828-8.66c0-0.053,0-0.115,0-0.168
		c0-4.873,3.955-8.828,8.828-8.828c4.873,0,8.828,3.955,8.828,8.828c0.044,4.829-3.831,8.783-8.66,8.828
		C476.804,300.138,476.743,300.138,476.69,300.138z"/>
</g>
<g>
	<path style="fill:#2C3E50;" d="M114.759,220.69c0.009,2.348-0.909,4.599-2.56,6.268L47.846,291.31h-3.708
		c-4.873-0.018-8.81-3.955-8.828-8.828v-3.708l58.086-58.086H114.759z"/>
	<path style="fill:#2C3E50;" d="M100.811,291.31l64.353-64.353c1.651-1.668,2.569-3.919,2.56-6.268h-21.363l-64.353,64.353
		c-1.651,1.668-2.569,3.919-2.56,6.268H100.811z"/>
	<path style="fill:#2C3E50;" d="M220.69,220.69c0.009,2.348-0.909,4.599-2.56,6.268l-64.353,64.353h-21.363
		c-0.009-2.348,0.909-4.599,2.56-6.268l64.353-64.353H220.69z"/>
	<path style="fill:#2C3E50;" d="M273.655,220.69c0.009,2.348-0.909,4.599-2.56,6.268l-64.353,64.353h-21.363
		c-0.009-2.348,0.909-4.599,2.56-6.268l64.353-64.353H273.655z"/>
	<path style="fill:#2C3E50;" d="M326.621,220.69c0.009,2.348-0.909,4.599-2.56,6.268l-64.353,64.353h-21.363
		c-0.009-2.348,0.909-4.599,2.56-6.268l64.353-64.353H326.621z"/>
	<path style="fill:#2C3E50;" d="M370.759,229.517v3.708l-58.086,58.086H291.31c-0.009-2.348,0.909-4.599,2.56-6.268l64.353-64.353
		h3.708C366.804,220.707,370.741,224.644,370.759,229.517z"/>
</g>
<g>
</g>
<g>
</g>
<g>
</g>
<g>
</g>
<g>
</g>
<g>
</g>
<g>
</g>
<g>
</g>
<g>
</g>
<g>
</g>
<g>
</g>
<g>
</g>
<g>
</g>
<g>
</g>
<g>
</g>
</svg>
