<svg height="512pt" viewBox="0 0 512 512" width="512pt" xmlns="http://www.w3.org/2000/svg"><path d="m441.378906 44.136719h-370.757812c-4.875 0-8.828125-3.953125-8.828125-8.828125 0-4.871094 3.953125-8.824219 8.828125-8.824219h370.757812c4.875 0 8.828125 3.953125 8.828125 8.824219 0 4.875-3.953125 8.828125-8.828125 8.828125zm0 0" fill="#7383bf"/><path d="m476.691406 450.207031c-4.875 0-8.828125-3.953125-8.828125-8.828125v-370.757812c0-4.875 3.953125-8.828125 8.828125-8.828125 4.871094 0 8.824219 3.953125 8.824219 8.828125v370.757812c0 4.875-3.953125 8.828125-8.824219 8.828125zm0 0" fill="#7383bf"/><g fill="#556080"><path d="m0 0h70.621094v70.621094h-70.621094zm0 0"/><path d="m441.378906 0h70.621094v70.621094h-70.621094zm0 0"/><path d="m441.378906 441.378906h70.621094v70.621094h-70.621094zm0 0"/></g><path d="m0 123.585938h388.414062v388.414062h-388.414062zm0 0" fill="#28384c"/><path d="m52.964844 176.550781h282.484375v282.484375h-282.484375zm0 0" fill="#25ae88"/></svg>